<?xml version="1.0" encoding="UTF-8"?>
<svg width="551px" height="175px" viewBox="0 0 551 175" version="1.1" xmlns="http://www.w3.org/2000/svg" xmlns:xlink="http://www.w3.org/1999/xlink">
    <!-- Generator: Sketch 47.1 (45422) - http://www.bohemiancoding.com/sketch -->
    <title>attend -headline</title>
    <desc>Created with Sketch.</desc>
    <defs>
        <polygon id="path-1" points="89.314 109.9 89.314 0.551 0.6645 0.551 0.6645 109.9"></polygon>
        <polygon id="path-3" points="97.9502 0.725 0.0002 0.725 0.0002 115.0244 97.9502 115.0244 97.9502 0.725"></polygon>
    </defs>
    <g id="Desktop" stroke="none" stroke-width="1" fill="none" fill-rule="evenodd">
        <g id="D-::-Attend-(open)" transform="translate(-449.000000, -228.000000)">
            <g id="Hero">
                <g id="attend--headline" transform="translate(449.000000, 227.000000)">
                    <path d="M219.8359,28.1871 L109.4209,138.6021" id="Stroke-1" stroke="#FEFEFE" stroke-width="2"></path>
                    <polygon id="Fill-2" fill="#FEFEFE" points="228.1191 60.8258 228.1191 78.3758 201.1191 78.3758 201.1191 170.1758 182.6691 170.1758 182.6691 78.3758 169.5921 78.3758 187.2471 60.8258"></polygon>
                    <polygon id="Fill-3" fill="#FEFEFE" points="247.0176 170.1754 247.0176 60.8254 319.6176 60.8254 319.6176 77.4754 265.3166 77.4754 265.3166 106.8754 313.6176 106.8754 313.6176 123.9754 265.3166 123.9754 265.3166 153.0754 321.7166 153.0754 321.7166 170.1754"></polygon>
                    <g id="Group-14" transform="translate(0.000000, 0.275000)">
                        <path d="M436.4648,60.5508 L436.4648,174.9998 C435.7638,174.1008 434.2148,172.4498 431.8148,170.0508 C429.4148,167.6508 426.4648,164.7778 422.9648,161.4258 C419.4628,158.0758 415.5898,154.3748 411.3398,150.3248 C407.0878,146.2758 402.7638,142.1758 398.3648,138.0258 C393.9628,133.8768 389.6648,129.8008 385.4648,125.8008 C381.2658,121.8018 377.4398,118.1268 373.9898,114.7758 C370.5398,111.4258 367.6388,108.5758 365.2898,106.2258 C362.9398,103.8768 361.4138,102.2498 360.7148,101.3508 C360.6138,101.1518 360.2128,100.6258 359.5158,99.7758 C358.8148,98.9268 358.2148,98.1518 357.7148,97.4498 L358.1648,102.2498 L358.1648,169.9008 L339.8648,169.9008 L339.8648,55.6008 C340.5638,56.4998 342.1148,58.1268 344.5158,60.4758 C346.9148,62.8258 349.8628,65.6508 353.3648,68.9498 C356.8638,72.2498 360.7378,75.8508 364.9898,79.7498 C369.2388,83.6508 373.5638,87.6248 377.9648,91.6758 C382.3638,95.7258 386.6648,99.7268 390.8648,103.6758 C395.0648,107.6268 398.9138,111.2268 402.4148,114.4758 C405.9138,117.7268 408.8398,120.5008 411.1898,122.8008 C413.5388,125.1018 415.0648,126.6998 415.7658,127.6008 L418.6148,131.8008 L418.1648,126.6998 L418.1648,60.5508 L436.4648,60.5508 Z" id="Fill-4" fill="#FEFEFE"></path>
                        <g id="Group-8" transform="translate(461.000000, 60.000000)">
                            <mask id="mask-2" fill="white">
                                <use xlink:href="#path-1"></use>
                            </mask>
                            <g id="Clip-7"></g>
                            <path d="M31.5645,92.5 C37.2645,92.5 42.5145,91.701 47.3145,90.101 C52.1145,88.502 56.2625,86.125 59.7645,82.976 C63.2635,79.825 65.9895,75.977 67.9395,71.426 C69.8895,66.876 70.8645,61.601 70.8645,55.601 C70.8645,48.801 69.6875,43.026 67.3395,38.275 C64.9885,33.527 62.0145,29.676 58.4145,26.726 C54.8145,23.777 50.8135,21.625 46.4145,20.275 C42.0125,18.926 37.8125,18.25 33.8145,18.25 L19.1145,18.25 L19.1145,92.5 L31.5645,92.5 Z M0.6645,0.551 L29.0145,0.551 C40.0135,0.551 49.3395,2.227 56.9895,5.575 C64.6395,8.927 70.8645,13.251 75.6645,18.551 C80.4645,23.852 83.9375,29.875 86.0895,36.625 C88.2385,43.375 89.3145,50.102 89.3145,56.801 C89.3145,65.001 87.8375,72.377 84.8895,78.926 C81.9385,85.477 77.9635,91.052 72.9645,95.65 C67.9625,100.251 62.1385,103.776 55.4895,106.226 C48.8375,108.677 41.8135,109.9 34.4145,109.9 L0.6645,109.9 L0.6645,0.551 Z" id="Fill-6" fill="#FEFEFE" mask="url(#mask-2)"></path>
                        </g>
                        <g id="Group-11">
                            <mask id="mask-4" fill="white">
                                <use xlink:href="#path-3"></use>
                            </mask>
                            <g id="Clip-10"></g>
                            <path d="M36.4502,70.7744 L61.3502,70.7744 L50.5502,44.6744 C50.4492,44.5764 50.1982,43.9014 49.8002,42.6494 C49.3992,41.4004 49.0992,40.2754 48.9002,39.2744 C48.6982,40.2754 48.3982,41.4004 48.0002,42.6494 C47.5992,43.9014 47.4002,44.5764 47.4002,44.6744 L36.4502,70.7744 Z M79.8002,115.0244 C79.5002,114.3264 78.9752,113.0744 78.2252,111.2744 C77.4752,109.4744 76.5502,107.2764 75.4502,104.6744 C74.3482,102.0754 73.1482,99.1994 71.8502,96.0494 C70.5502,92.8994 69.1992,89.6254 67.8002,86.2244 L30.1502,86.2244 L18.1502,115.0244 L0.0002,115.0244 C0.3982,114.1244 1.3502,111.9004 2.8502,108.3494 C4.3502,104.8004 6.2252,100.3994 8.4752,95.1494 C10.7252,89.8994 13.2232,84.0494 15.9752,77.5994 C18.7242,71.1494 21.5492,64.5754 24.4502,57.8744 C27.3492,51.1754 30.1742,44.5994 32.9252,38.1494 C35.6752,31.6994 38.1752,25.8494 40.4252,20.5994 C42.6752,15.3494 44.5502,10.9504 46.0502,7.3994 C47.5502,3.8504 48.4992,1.6244 48.9002,0.7244 C49.2992,1.6244 50.2732,3.8504 51.8252,7.3994 C53.3742,10.9504 55.2752,15.3494 57.5252,20.5994 C59.7752,25.8494 62.2732,31.6994 65.0252,38.1494 C67.7742,44.5994 70.5982,51.1754 73.5002,57.8744 C76.3992,64.5754 79.2232,71.1494 81.9752,77.5994 C84.7242,84.0494 87.2252,89.8994 89.4752,95.1494 C91.7252,100.3994 93.6002,104.8004 95.1002,108.3494 C96.6002,111.9004 97.5502,114.1244 97.9502,115.0244 L79.8002,115.0244 Z" id="Fill-9" fill="#FEFEFE" mask="url(#mask-4)"></path>
                        </g>
                        <polygon id="Fill-12" fill="#FEFEFE" points="167.7012 5.6748 167.7012 23.2248 140.7012 23.2248 140.7012 107.0468 132.8172 115.0248 122.2522 115.0248 122.2522 23.2248 95.8512 23.2248 95.8512 5.6748"></polygon>
                    </g>
                </g>
            </g>
        </g>
    </g>
</svg>