<?xml version="1.0" encoding="UTF-8"?>
<svg width="445px" height="167px" viewBox="0 0 445 167" version="1.1" xmlns="http://www.w3.org/2000/svg" xmlns:xlink="http://www.w3.org/1999/xlink">
    <!-- Generator: Sketch 47.1 (45422) - http://www.bohemiancoding.com/sketch -->
    <title>Chefs - headline</title>
    <desc>Created with Sketch.</desc>
    <defs>
        <polygon id="path-1" points="77.92 0.8496 77.92 111.9996 0.3703 111.9996 0.3703 0.8496 77.92 0.8496"></polygon>
    </defs>
    <g id="Desktop" stroke="none" stroke-width="1" fill="none" fill-rule="evenodd">
        <g id="D-::-Experience-::-Chefs" transform="translate(-452.000000, -214.000000)">
            <g id="Hero" transform="translate(0.000000, 1.000000)">
                <g id="Chefs---headline" transform="translate(452.000000, 212.000000)">
                    <path d="M256.4355,24.4375 L146.0205,134.8525" id="Stroke-1" stroke="#FEFEFE" stroke-width="2"></path>
                    <polygon id="Fill-2" fill="#FEFEFE" points="200.8721 166.4258 200.8721 79.6448 223.7891 57.0758 273.4721 57.0758 273.4721 73.7258 219.1721 73.7258 219.1721 103.1258 267.4721 103.1258 267.4721 120.2258 219.1721 120.2258 219.1721 149.3258 275.5711 149.3258 275.5711 166.4258"></polygon>
                    <polygon id="Fill-3" fill="#FEFEFE" points="293.7197 166.4258 293.7197 57.0758 360.1697 57.0758 360.1697 74.0258 312.0197 74.0258 312.0197 104.6258 353.8697 104.6258 353.8697 121.7258 312.0197 121.7258 312.0197 166.4258"></polygon>
                    <g id="Group-11" transform="translate(0.000000, 0.626000)">
                        <g id="Group-6" transform="translate(367.000000, 55.000000)">
                            <mask id="mask-2" fill="white">
                                <use xlink:href="#path-1"></use>
                            </mask>
                            <g id="Clip-5"></g>
                            <path d="M74.3203,7.5996 L67.7193,22.5996 C63.5193,21.0996 59.3693,19.8996 55.2693,18.9996 C51.1683,18.0996 47.3693,17.6496 43.8703,17.6496 C37.7693,17.6496 32.9433,18.8496 29.3943,21.2496 C25.8433,23.6496 24.0703,26.7016 24.0703,30.3996 C24.0703,33.6016 25.3943,36.2006 28.0453,38.2006 C30.6933,40.2016 34.0193,42.0006 38.0193,43.5996 C42.0183,45.2006 46.3443,46.8256 50.9953,48.4746 C55.6443,50.1246 59.9683,52.2506 63.9693,54.8496 C67.9683,57.4516 71.2943,60.7506 73.9453,64.7496 C76.5933,68.7506 77.9203,73.8506 77.9203,80.0496 C77.9203,84.8496 77.0433,89.2006 75.2953,93.0996 C73.5443,96.9996 70.9193,100.3516 67.4203,103.1496 C63.9183,105.9506 59.4933,108.1256 54.1443,109.6746 C48.7943,111.2236 42.5193,111.9996 35.3203,111.9996 C30.9183,111.9996 26.9203,111.7006 23.3203,111.0996 C19.7193,110.4996 16.4953,109.7496 13.6443,108.8496 C10.7953,107.9506 8.2683,106.9746 6.0703,105.9246 C3.8693,104.8746 1.9683,103.8506 0.3703,102.8496 L8.3203,86.7996 C12.5193,89.1016 17.0193,90.8756 21.8203,92.1246 C26.6203,93.3756 30.8693,93.9996 34.5703,93.9996 C36.3703,93.9996 38.6953,93.8006 41.5453,93.3996 C44.3943,93.0006 47.1703,92.2506 49.8703,91.1496 C52.5703,90.0506 54.8943,88.5506 56.8443,86.6496 C58.7953,84.7506 59.7693,82.2996 59.7693,79.2996 C59.7693,75.8006 58.4433,72.9246 55.7953,70.6746 C53.1443,68.4246 49.8183,66.4256 45.8203,64.6746 C41.8193,62.9266 37.4953,61.2016 32.8443,59.4996 C28.1953,57.8006 23.8683,55.7756 19.8703,53.4246 C15.8693,51.0766 12.5433,48.1746 9.8943,44.7246 C7.2443,41.2746 5.9203,36.9016 5.9203,31.5996 C5.9203,27.8006 6.6703,24.0766 8.1703,20.4246 C9.6703,16.7756 11.9433,13.5006 14.9953,10.5996 C18.0443,7.7006 21.8433,5.3496 26.3943,3.5496 C30.9443,1.7496 36.3183,0.8496 42.5193,0.8496 C46.4203,0.8496 50.1933,1.1756 53.8443,1.8256 C57.4943,2.4766 60.7683,3.2006 63.6703,3.9996 C66.5693,4.8016 68.9683,5.5756 70.8703,6.3256 C72.7683,7.0756 73.9193,7.5006 74.3203,7.5996" id="Fill-4" fill="#FEFEFE" mask="url(#mask-2)"></path>
                        </g>
                        <path d="M89.4004,102.8242 C88.2014,103.6252 86.5254,104.5742 84.3754,105.6742 C82.2244,106.7752 79.6734,107.8002 76.7254,108.7492 C73.7754,109.7002 70.4494,110.5002 66.7504,111.1482 C63.0494,111.7982 59.1004,112.1242 54.9004,112.1242 C46.2984,112.1242 38.5994,110.6492 31.8004,107.6992 C24.9994,104.7502 19.2504,100.7752 14.5504,95.7732 C9.8494,90.7742 6.2494,84.9252 3.7504,78.2232 C1.2504,71.5252 0.0004,64.4752 0.0004,57.0742 C0.0004,48.8752 1.5004,41.3012 4.5004,34.3482 C7.5004,27.3992 11.5744,21.3992 16.7254,16.3482 C21.8754,11.3012 27.8754,7.3752 34.7254,4.5742 C41.5744,1.7752 48.9004,0.3742 56.7014,0.3742 C59.7014,0.3742 62.7244,0.5982 65.7754,1.0492 C68.8244,1.4992 71.7014,2.0752 74.4004,2.7732 C77.1004,3.4742 79.4744,4.2732 81.5254,5.1742 C83.5744,6.0742 85.0504,7.0252 85.9514,8.0232 C85.0504,9.4262 84.3494,10.5742 83.8504,11.4732 C83.3494,12.3742 82.8244,13.3002 82.2754,14.2492 C81.7244,15.2002 81.1254,16.2732 80.4754,17.4732 C79.8244,18.6742 78.9004,20.3242 77.7014,22.4242 C76.5004,21.6252 75.0494,20.9242 73.3504,20.3242 C71.6484,19.7232 69.8754,19.2502 68.0254,18.8982 C66.1734,18.5502 64.2984,18.2752 62.4004,18.0742 C60.5004,17.8752 58.8004,17.7732 57.3004,17.7732 C51.6994,17.7732 46.5234,18.8242 41.7754,20.9242 C37.0254,23.0232 32.9254,25.7992 29.4754,29.2492 C26.0254,32.6992 23.3264,36.7252 21.3754,41.3242 C19.4254,45.9252 18.4514,50.6762 18.4514,55.5742 C18.4514,60.3742 19.3744,65.0502 21.2254,69.5982 C23.0744,74.1502 25.6734,78.1752 29.0254,81.6742 C32.3754,85.1762 36.3494,88.0002 40.9514,90.1482 C45.5484,92.3012 50.6484,93.3742 56.2504,93.3742 C59.4494,93.3742 62.5504,93.0512 65.5504,92.3982 C68.5504,91.7502 71.1994,91.0252 73.5004,90.2232 C75.7994,89.4252 77.6744,88.6252 79.1254,87.8242 C80.5744,87.0242 81.3494,86.4732 81.4514,86.1742 L89.4004,102.8242 Z" id="Fill-7" fill="#FEFEFE"></path>
                        <path d="M104.5508,110.9238 L104.5508,1.5738 L122.9998,1.5738 L122.9998,47.1738 L175.2008,47.1738 L175.2008,1.5738 L193.8008,1.5738 L193.8008,11.6238 L193.8008,31.4988 C193.8008,39.2498 193.7758,47.4998 193.7258,56.2488 C193.6738,64.9998 193.6508,86.5168 193.6508,86.5168 L175.2008,105.0448 L175.2008,64.7238 L122.9998,64.7238 L122.9998,110.9238 L104.5508,110.9238 Z" id="Fill-9" fill="#FEFEFE"></path>
                    </g>
                </g>
            </g>
        </g>
    </g>
</svg>