<?xml version="1.0" encoding="UTF-8"?>
<svg width="673px" height="171px" viewBox="0 0 673 171" version="1.1" xmlns="http://www.w3.org/2000/svg" xmlns:xlink="http://www.w3.org/1999/xlink">
    <!-- Generator: Sketch 47.1 (45422) - http://www.bohemiancoding.com/sketch -->
    <title>contact - headline</title>
    <desc>Created with Sketch.</desc>
    <defs>
        <polygon id="path-1" points="0.7885 112 90.1885 112 90.1885 0.2502 0.7885 0.2502"></polygon>
    </defs>
    <g id="Desktop" stroke="none" stroke-width="1" fill="none" fill-rule="evenodd">
        <g id="D-::-Contact" transform="translate(-383.000000, -234.000000)">
            <g id="Hero" transform="translate(-1.000000, 0.000000)">
                <g id="contact---headline" transform="translate(384.000000, 233.000000)">
                    <path d="M384.8359,28.0625 L274.4209,138.4775" id="Stroke-1" stroke="#FFFFFF" stroke-width="2"></path>
                    <polygon id="Fill-2" fill="#FFFFFF" points="408.3867 60.7002 408.3867 78.2502 381.3867 78.2502 381.3867 170.0502 362.9367 170.0502 362.9367 78.2502 334.6487 78.2502 352.1987 60.7002"></polygon>
                    <g id="Group-16" transform="translate(0.000000, 0.250000)">
                        <path d="M441.0869,125.5498 L465.9869,125.5498 L455.1869,99.4498 C455.0859,99.3518 454.8349,98.6768 454.4369,97.4248 C454.0359,96.1758 453.7359,95.0508 453.5369,94.0498 C453.3349,95.0508 453.0349,96.1758 452.6369,97.4248 C452.2359,98.6768 452.0369,99.3518 452.0369,99.4498 L441.0869,125.5498 Z M484.4369,169.7998 C484.1369,169.1018 483.6119,167.8498 482.8619,166.0498 C482.1119,164.2498 481.1869,162.0518 480.0869,159.4498 C478.9849,156.8508 477.7849,153.9748 476.4869,150.8248 C475.1869,147.6748 473.8359,144.4008 472.4369,140.9998 L434.7869,140.9998 L422.7869,169.7998 L404.6369,169.7998 C405.0349,168.8998 405.9869,166.6758 407.4869,163.1248 C408.9869,159.5758 410.8619,155.1748 413.1119,149.9248 C415.3619,144.6748 417.8599,138.8248 420.6119,132.3748 C423.3609,125.9248 426.1859,119.3508 429.0869,112.6498 C431.9859,105.9508 434.8109,99.3748 437.5619,92.9248 C440.3119,86.4748 442.8119,80.6248 445.0619,75.3748 C447.3119,70.1248 449.1869,65.7258 450.6869,62.1748 C452.1869,58.6258 453.1359,56.3998 453.5369,55.4998 C453.9359,56.3998 454.9099,58.6258 456.4619,62.1748 C458.0109,65.7258 459.9119,70.1248 462.1619,75.3748 C464.4119,80.6248 466.9099,86.4748 469.6619,92.9248 C472.4109,99.3748 475.2349,105.9508 478.1369,112.6498 C481.0359,119.3508 483.8599,125.9248 486.6119,132.3748 C489.3609,138.8248 491.8619,144.6748 494.1119,149.9248 C496.3619,155.1748 498.2369,159.5758 499.7369,163.1248 C501.2369,166.6758 502.1869,168.8998 502.5869,169.7998 L484.4369,169.7998 Z" id="Fill-3" fill="#FFFFFF"></path>
                        <g id="Group-7" transform="translate(505.000000, 59.000000)">
                            <mask id="mask-2" fill="white">
                                <use xlink:href="#path-1"></use>
                            </mask>
                            <g id="Clip-6"></g>
                            <path d="M88.1885,102.7002 C86.9885,103.5012 85.3125,104.4502 83.1635,105.5502 C81.0115,106.6512 78.4615,107.6762 75.5135,108.6252 C72.5625,109.5762 69.2375,110.3762 65.5385,111.0242 C61.8375,111.6742 57.8885,112.0002 53.6885,112.0002 C45.0865,112.0002 37.3875,110.5252 30.5885,107.5752 C23.7875,104.6262 18.0385,100.6512 13.3385,95.6492 C8.6365,90.6502 5.0375,84.8012 2.5385,78.0992 C0.0385,71.4012 -1.2115,64.3512 -1.2115,56.9502 C-1.2115,48.7512 0.2885,41.1772 3.2885,34.2242 C6.2885,27.2752 10.3625,21.2752 15.5135,16.2242 C20.6635,11.1772 26.6635,7.2512 33.5135,4.4502 C40.3625,1.6512 47.6885,0.2502 55.4885,0.2502 C58.4885,0.2502 61.5115,0.4742 64.5635,0.9252 C67.6125,1.3752 70.4885,1.9512 73.1885,2.6492 C75.8885,3.3502 78.2625,4.1492 80.3135,5.0502 C82.3625,5.9502 83.8385,6.9012 84.7385,7.8992 C83.8385,9.3022 83.1375,10.4502 82.6385,11.3492 C82.1365,12.2502 81.6125,13.1762 81.0635,14.1252 C80.5125,15.0762 79.9135,16.1492 79.2635,17.3492 C78.6125,18.5502 77.6885,20.2002 76.4885,22.3002 C75.2885,21.5012 73.8375,20.8002 72.1385,20.2002 C70.4365,19.5992 68.6635,19.1262 66.8135,18.7742 C64.9615,18.4262 63.0865,18.1512 61.1885,17.9502 C59.2885,17.7512 57.5885,17.6492 56.0885,17.6492 C50.4875,17.6492 45.3115,18.7002 40.5635,20.8002 C35.8125,22.8992 31.7135,25.6752 28.2635,29.1252 C24.8135,32.5752 22.1135,36.6012 20.1635,41.2002 C18.2135,45.8012 17.2385,50.5522 17.2385,55.4502 C17.2385,60.2502 18.1625,64.9262 20.0135,69.4742 C21.8625,74.0262 24.4615,78.0512 27.8135,81.5502 C31.1635,85.0522 35.1375,87.8762 39.7385,90.0242 C44.3365,92.1772 49.4365,93.2502 55.0385,93.2502 C58.2375,93.2502 61.3385,92.9272 64.3385,92.2742 C67.3385,91.6262 69.9875,90.9012 72.2885,90.0992 C74.5875,89.3012 76.4625,88.5012 77.9135,87.7002 C79.3625,86.9002 80.1375,86.3492 80.2385,86.0502 L88.1885,102.7002 Z" id="Fill-5" fill="#FFFFFF" mask="url(#mask-2)"></path>
                        </g>
                        <polygon id="Fill-8" fill="#FFFFFF" points="672.3887 60.4502 672.3887 78.0002 645.3887 78.0002 645.3887 169.8002 626.9387 169.8002 626.9387 78.0002 600.5377 78.0002 600.5377 60.4502"></polygon>
                        <path d="M89.4004,106.8262 C88.2004,107.6272 86.5244,108.5762 84.3754,109.6762 C82.2234,110.7772 79.6734,111.8022 76.7254,112.7512 C73.7744,113.7022 70.4484,114.5022 66.7504,115.1502 C63.0494,115.8002 59.1004,116.1262 54.9004,116.1262 C46.2984,116.1262 38.5994,114.6512 31.8004,111.7012 C24.9984,108.7522 19.2494,104.7772 14.5504,99.7752 C9.8484,94.7762 6.2484,88.9272 3.7504,82.2252 C1.2494,75.5272 0.0004,68.4772 0.0004,61.0762 C0.0004,52.8772 1.5004,45.3032 4.5004,38.3502 C7.5004,31.4012 11.5734,25.4012 16.7254,20.3502 C21.8744,15.3032 27.8744,11.3772 34.7254,8.5762 C41.5734,5.7772 48.9004,4.3762 56.7004,4.3762 C59.7004,4.3762 62.7234,4.6002 65.7754,5.0512 C68.8244,5.5012 71.7004,6.0772 74.4004,6.7752 C77.1004,7.4762 79.4744,8.2752 81.5254,9.1762 C83.5734,10.0762 85.0504,11.0272 85.9504,12.0252 C85.0504,13.4282 84.3494,14.5762 83.8504,15.4752 C83.3484,16.3762 82.8234,17.3022 82.2754,18.2512 C81.7244,19.2022 81.1244,20.2752 80.4754,21.4752 C79.8234,22.6762 78.9004,24.3262 77.7004,26.4262 C76.5004,25.6272 75.0494,24.9262 73.3504,24.3262 C71.6484,23.7252 69.8744,23.2522 68.0254,22.9002 C66.1734,22.5522 64.2984,22.2772 62.4004,22.0762 C60.4994,21.8772 58.8004,21.7752 57.3004,21.7752 C51.6984,21.7752 46.5234,22.8262 41.7754,24.9262 C37.0244,27.0252 32.9254,29.8012 29.4754,33.2512 C26.0254,36.7012 23.3254,40.7272 21.3754,45.3262 C19.4254,49.9272 18.4504,54.6782 18.4504,59.5762 C18.4504,64.3762 19.3734,69.0522 21.2254,73.6002 C23.0744,78.1522 25.6734,82.1772 29.0254,85.6762 C32.3744,89.1782 36.3494,92.0022 40.9504,94.1502 C45.5484,96.3032 50.6484,97.3762 56.2504,97.3762 C59.4494,97.3762 62.5504,97.0532 65.5504,96.4002 C68.5504,95.7522 71.1984,95.0272 73.5004,94.2252 C75.7994,93.4272 77.6744,92.6272 79.1254,91.8262 C80.5734,91.0262 81.3494,90.4752 81.4504,90.1762 L89.4004,106.8262 Z" id="Fill-10" fill="#FFFFFF"></path>
                        <path d="M112.8018,60.4756 C112.8018,65.7776 113.7768,70.7506 115.7268,75.4006 C117.6768,80.0506 120.3768,84.1006 123.8268,87.5506 C127.2768,91.0006 131.2748,93.7266 135.8268,95.7256 C140.3758,97.7276 145.2998,98.7256 150.6018,98.7256 C155.7018,98.7256 160.5248,97.7276 165.0768,95.7256 C169.6258,93.7266 173.5748,91.0006 176.9268,87.5506 C180.2768,84.1006 182.9268,80.0506 184.8758,75.4006 C186.8268,70.7506 187.8018,65.7776 187.8018,60.4756 C187.8018,55.1766 186.8008,50.2016 184.8018,45.5506 C182.7998,40.9006 180.1008,36.8276 176.7018,33.3266 C173.3008,29.8266 169.3248,27.0776 164.7768,25.0766 C160.2258,23.0766 155.3508,22.0766 150.1518,22.0766 C144.9498,22.0766 140.0748,23.0766 135.5268,25.0766 C130.9758,27.0776 127.0268,29.8266 123.6768,33.3266 C120.3248,36.8276 117.6768,40.9006 115.7268,45.5506 C113.7768,50.2016 112.8018,55.1766 112.8018,60.4756 M94.3518,60.4756 C94.3518,52.8766 95.8258,45.6776 98.7768,38.8756 C101.7248,32.0766 105.7258,26.1256 110.7768,21.0256 C115.8248,15.9256 121.7268,11.8756 128.4768,8.8756 C135.2268,5.8756 142.4498,4.3756 150.1518,4.3756 C157.7498,4.3756 164.9498,5.8756 171.7508,8.8756 C178.5508,11.8756 184.5008,15.9256 189.6018,21.0256 C194.7018,26.1256 198.7258,32.0766 201.6768,38.8756 C204.6248,45.6776 206.1018,52.8766 206.1018,60.4756 C206.1018,68.1776 204.6248,75.4006 201.6768,82.1506 C198.7258,88.9006 194.7018,94.8026 189.6018,99.8506 C184.5008,104.9016 178.5508,108.8766 171.7508,111.7756 C164.9498,114.6776 157.7498,116.1256 150.1518,116.1256 C142.4498,116.1256 135.2268,114.6776 128.4768,111.7756 C121.7268,108.8766 115.8248,104.9016 110.7768,99.8506 C105.7258,94.8026 101.7248,88.9006 98.7768,82.1506 C95.8258,75.4006 94.3518,68.1776 94.3518,60.4756" id="Fill-12" fill="#FFFFFF"></path>
                        <path d="M322.2002,5.7002 L322.2002,90.4482 L307.7642,105.6812 C307.7642,105.6812 301.3232,99.5242 297.0752,95.4752 C292.8232,91.4252 288.4992,87.3252 284.0992,83.1752 C279.6982,79.0262 275.3992,74.9502 271.2002,70.9502 C266.9992,66.9522 263.1752,63.2762 259.7242,59.9252 C256.2742,56.5752 253.3732,53.7252 251.0242,51.3762 C248.6742,49.0262 247.1472,47.3992 246.4502,46.5012 C246.3482,46.3022 245.9482,45.7762 245.2492,44.9252 C244.5492,44.0772 243.9482,43.3022 243.4502,42.6002 L243.8992,47.3992 L243.8992,115.0502 L225.5992,115.0502 L225.5992,0.7512 C226.2982,1.6492 227.8492,3.2762 230.2492,5.6262 C232.6492,7.9752 235.5982,10.8002 239.0992,14.1002 C242.5982,17.3992 246.4732,21.0012 250.7242,24.8992 C254.9732,28.8002 259.2982,32.7742 263.7002,36.8252 C268.0982,40.8762 272.3992,44.8762 276.5992,48.8252 C280.8002,52.7762 284.6472,56.3762 288.1492,59.6262 C291.6492,62.8762 294.5732,65.6512 296.9252,67.9502 C299.2722,70.2512 300.7992,71.8502 301.4992,72.7512 L304.3492,76.9502 L303.8992,71.8502 L303.8992,5.7002 L322.2002,5.7002 Z" id="Fill-14" fill="#FFFFFF"></path>
                    </g>
                </g>
            </g>
        </g>
    </g>
</svg>