<?xml version="1.0" encoding="UTF-8"?>
<svg width="1614px" height="409px" viewBox="0 0 1614 409" version="1.1" xmlns="http://www.w3.org/2000/svg" xmlns:xlink="http://www.w3.org/1999/xlink">
    <!-- Generator: Sketch 47.1 (45422) - http://www.bohemiancoding.com/sketch -->
    <title>drive</title>
    <desc>Created with Sketch.</desc>
    <defs></defs>
    <g id="Page-1" stroke="none" stroke-width="1" fill="none" fill-rule="evenodd" opacity="0.15">
        <g id="drive" fill="#EF4550">
            <g id="Desktop">
                <g id="D-::-Home">
                    <g id="DRIVE">
                        <path d="M0.44,0.92 L117.04,0.92 C166.860249,0.92 207.846506,10.5482371 240,29.805 C272.153494,49.061763 295.561593,73.9715139 310.225,104.535 C324.888407,135.098486 332.22,167.869825 332.22,202.85 C332.22,240.303521 323.386755,273.339857 305.72,301.96 C288.053245,330.580143 264.291816,352.574923 234.435,367.945 C204.578184,383.315077 171.806845,391 136.12,391 L0.44,391 L0.44,0.92 Z M122.87,316.8 C162.796866,316.8 194.419883,306.553436 217.74,286.06 C241.060117,265.566564 252.72,236.063526 252.72,197.55 C252.72,166.456511 246.271731,141.723425 233.375,123.35 C220.478269,104.976575 205.461752,92.256702 188.325,85.19 C171.188248,78.123298 155.023409,74.59 139.83,74.59 L77.29,74.59 L77.29,316.8 L122.87,316.8 Z M619.48,391 L537.33,266.98 L485.92,266.98 L485.92,391 L409.07,391 L409.07,0.92 L527.26,0.92 C575.666909,0.92 613.2082,12.6682158 639.885,36.165 C666.5618,59.6617841 679.9,91.7264635 679.9,132.36 C679.9,156.386787 674.86505,178.911562 664.795,199.935 C654.72495,220.958438 639.266771,237.476607 618.42,249.49 L709.05,391 L619.48,391 Z M485.92,192.78 L540.51,192.78 C561.356771,192.78 576.549952,186.685061 586.09,174.495 C595.630048,162.304939 600.4,149.143404 600.4,135.01 C600.4,120.876596 596.336707,107.361731 588.21,94.465 C580.083293,81.5682688 564.360117,75.12 541.04,75.12 L485.92,75.12 L485.92,192.78 Z M849.5,0.92 L849.5,391 L772.65,391 L772.65,0.92 L849.5,0.92 Z M1272.97,0.92 L1094.89,409.02 L916.81,0.92 L1009.03,0.92 L1098.07,220.87 L1181.81,0.92 L1272.97,0.92 Z M1606.34,0.92 L1606.34,75.12 L1417.13,75.12 L1417.13,158.33 L1584.61,158.33 L1584.61,232.53 L1417.13,232.53 L1417.13,316.8 L1613.76,316.8 L1613.76,391 L1340.28,391 L1340.28,0.92 L1606.34,0.92 Z"></path>
                    </g>
                </g>
            </g>
        </g>
    </g>
</svg>
