<?xml version="1.0" encoding="UTF-8"?>
<svg width="1234px" height="175px" viewBox="0 0 1234 175" version="1.1" xmlns="http://www.w3.org/2000/svg" xmlns:xlink="http://www.w3.org/1999/xlink">
    <!-- Generator: Sketch 47.1 (45422) - http://www.bohemiancoding.com/sketch -->
    <title>entertainment - headline</title>
    <desc>Created with Sketch.</desc>
    <defs>
        <polygon id="path-1" points="0 175 1233.257 175 1233.257 0.726 0 0.726"></polygon>
    </defs>
    <g id="Desktop" stroke="none" stroke-width="1" fill="none" fill-rule="evenodd">
        <g id="D-::-Entertainment" transform="translate(-103.000000, -234.000000)">
            <g id="Hero" transform="translate(-1.000000, 0.000000)">
                <g id="entertainment---headline" transform="translate(104.000000, 233.000000)">
                    <path d="M530.7793,28.1861 L420.3643,138.6011" id="Stroke-1" stroke="#FFFFFF" stroke-width="2"></path>
                    <polygon id="Fill-2" fill="#FFFFFF" points="545.0615 60.8248 545.0615 78.3748 518.0615 78.3748 518.0615 170.1748 499.6125 170.1748 499.6125 78.3748 480.5905 78.3748 498.4685 60.8248"></polygon>
                    <g id="Group-17" transform="translate(0.000000, 0.274000)">
                        <path d="M577.7627,125.6504 L602.6627,125.6504 L591.8627,99.5504 C591.7617,99.4524 591.5107,98.7774 591.1127,97.5254 C590.7117,96.2764 590.4107,95.1514 590.2117,94.1504 C590.0107,95.1514 589.7107,96.2764 589.3127,97.5254 C588.9107,98.7774 588.7117,99.4524 588.7117,99.5504 L577.7627,125.6504 Z M621.1127,169.9004 C620.8127,169.2024 620.2877,167.9504 619.5377,166.1504 C618.7877,164.3504 617.8627,162.1524 616.7627,159.5504 C615.6607,156.9514 614.4607,154.0754 613.1627,150.9254 C611.8627,147.7754 610.5117,144.5014 609.1127,141.1004 L571.4617,141.1004 L559.4617,169.9004 L541.3127,169.9004 C541.7107,169.0004 542.6627,166.7764 544.1627,163.2254 C545.6627,159.6764 547.5377,155.2754 549.7877,150.0254 C552.0377,144.7754 554.5357,138.9254 557.2877,132.4754 C560.0357,126.0254 562.8607,119.4514 565.7627,112.7504 C568.6607,106.0514 571.4857,99.4754 574.2377,93.0254 C576.9877,86.5754 579.4877,80.7254 581.7377,75.4754 C583.9877,70.2254 585.8627,65.8264 587.3627,62.2754 C588.8627,58.7264 589.8117,56.5004 590.2117,55.6004 C590.6107,56.5004 591.5857,58.7264 593.1377,62.2754 C594.6867,65.8264 596.5867,70.2254 598.8367,75.4754 C601.0867,80.7254 603.5857,86.5754 606.3367,93.0254 C609.0867,99.4754 611.9107,106.0514 614.8127,112.7504 C617.7117,119.4514 620.5357,126.0254 623.2877,132.4754 C626.0357,138.9254 628.5377,144.7754 630.7877,150.0254 C633.0377,155.2754 634.9127,159.6764 636.4127,163.2254 C637.9127,166.7764 638.8627,169.0004 639.2627,169.9004 L621.1127,169.9004 Z" id="Fill-3" fill="#FFFFFF"></path>
                        <mask id="mask-2" fill="white">
                            <use xlink:href="#path-1"></use>
                        </mask>
                        <g id="Clip-6"></g>
                        <polygon id="Fill-5" fill="#FFFFFF" mask="url(#mask-2)" points="651.862 169.901 670.312 169.901 670.312 60.551 651.862 60.551"></polygon>
                        <path d="M792.1104,60.5508 L792.1104,174.9998 C791.4094,174.1008 789.8604,172.4498 787.4604,170.0508 C785.0604,167.6508 782.1104,164.7778 778.6104,161.4258 C775.1084,158.0758 771.2354,154.3748 766.9854,150.3248 C762.7334,146.2758 758.4094,142.1758 754.0104,138.0258 C749.6084,133.8768 745.3104,129.8008 741.1104,125.8008 C736.9114,121.8018 733.0854,118.1268 729.6354,114.7758 C726.1854,111.4258 723.2844,108.5758 720.9354,106.2258 C718.5854,103.8768 717.0594,102.2498 716.3604,101.3508 C716.2594,101.1518 715.8584,100.6258 715.1614,99.7758 C714.4604,98.9268 713.8604,98.1518 713.3604,97.4498 L713.8104,102.2498 L713.8104,169.9008 L695.5104,169.9008 L695.5104,55.6008 C696.2094,56.4998 697.7604,58.1268 700.1614,60.4758 C702.5604,62.8258 705.5084,65.6508 709.0104,68.9498 C712.5094,72.2498 716.3834,75.8508 720.6354,79.7498 C724.8844,83.6508 729.2094,87.6248 733.6104,91.6758 C738.0094,95.7258 742.3104,99.7268 746.5104,103.6758 C750.7104,107.6268 754.5594,111.2268 758.0604,114.4758 C761.5594,117.7268 764.4854,120.5008 766.8354,122.8008 C769.1844,125.1018 770.7104,126.6998 771.4114,127.6008 L774.2604,131.8008 L773.8104,126.6998 L773.8104,60.5508 L792.1104,60.5508 Z" id="Fill-7" fill="#FFFFFF" mask="url(#mask-2)"></path>
                        <path d="M817.3096,55.75 C817.8096,56.451 818.9086,58.026 820.6106,60.476 C822.3096,62.927 824.4346,65.927 826.9856,69.476 C829.5356,73.026 832.3846,76.952 835.5356,81.25 C838.6846,85.551 841.8836,89.927 845.1346,94.375 C848.3836,98.826 851.5596,103.176 854.6606,107.426 C857.7586,111.677 860.5596,115.551 863.0596,119.051 C865.5586,122.552 867.6846,125.477 869.4346,127.825 C871.1836,130.176 872.2586,131.65 872.6606,132.25 C872.8596,131.95 873.7586,130.676 875.3606,128.426 C876.9576,126.176 878.9836,123.352 881.4346,119.95 C883.8836,116.552 886.6596,112.676 889.7596,108.325 C892.8586,103.976 896.0596,99.551 899.3606,95.051 C902.6606,90.551 905.8846,86.102 909.0356,81.7 C912.1846,77.301 915.0836,73.301 917.7356,69.7 C920.3836,66.101 922.6106,63.051 924.4106,60.551 C926.2096,58.052 927.3586,56.451 927.8606,55.75 L927.8606,169.9 L908.2096,169.9 L908.2096,114.101 C908.2096,113.301 908.3086,112.45 908.5096,111.551 C908.7086,110.65 908.8096,110.102 908.8096,109.9 L872.6606,161.95 C872.1586,161.351 870.9346,159.7 868.9856,157 C867.0356,154.301 864.7096,151.102 862.0096,147.4 C859.3096,143.702 856.4596,139.727 853.4596,135.476 C850.4596,131.227 847.6336,127.277 844.9856,123.625 C842.3336,119.977 840.0836,116.875 838.2356,114.325 C836.3836,111.775 835.3596,110.301 835.1606,109.9 C835.1606,110.102 835.2586,110.65 835.4596,111.551 C835.6596,112.45 835.7596,113.301 835.7596,114.101 L835.7596,169.9 L817.3096,169.9 L817.3096,55.75 Z" id="Fill-8" fill="#FFFFFF" mask="url(#mask-2)"></path>
                        <polygon id="Fill-9" fill="#FFFFFF" mask="url(#mask-2)" points="953.0596 169.9004 953.0596 60.5504 1025.6606 60.5504 1025.6606 77.2004 971.3606 77.2004 971.3606 106.6004 1019.6606 106.6004 1019.6606 123.7004 971.3606 123.7004 971.3606 152.8004 1027.7596 152.8004 1027.7596 169.9004"></polygon>
                        <path d="M1142.5088,60.5508 L1142.5088,174.9998 C1141.8078,174.1008 1140.2588,172.4498 1137.8588,170.0508 C1135.4578,167.6508 1132.5068,164.7778 1129.0088,161.4258 C1125.5068,158.0758 1121.6318,154.3748 1117.3838,150.3248 C1113.1318,146.2758 1108.8078,142.1758 1104.4078,138.0258 C1100.0068,133.8768 1095.7078,129.8008 1091.5088,125.8008 C1087.3078,121.8018 1083.4838,118.1268 1080.0328,114.7758 C1076.5828,111.4258 1073.6818,108.5758 1071.3328,106.2258 C1068.9828,103.8768 1067.4558,102.2498 1066.7588,101.3508 C1066.6568,101.1518 1066.2568,100.6258 1065.5578,99.7758 C1064.8578,98.9268 1064.2568,98.1518 1063.7588,97.4498 L1064.2078,102.2498 L1064.2078,169.9008 L1045.9078,169.9008 L1045.9078,55.6008 C1046.6068,56.4998 1048.1578,58.1268 1050.5578,60.4758 C1052.9578,62.8258 1055.9068,65.6508 1059.4078,68.9498 C1062.9068,72.2498 1066.7818,75.8508 1071.0328,79.7498 C1075.2818,83.6508 1079.6068,87.6248 1084.0088,91.6758 C1088.4068,95.7258 1092.7078,99.7268 1096.9078,103.6758 C1101.1088,107.6268 1104.9558,111.2268 1108.4578,114.4758 C1111.9578,117.7268 1114.8818,120.5008 1117.2338,122.8008 C1119.5808,125.1018 1121.1078,126.6998 1121.8078,127.6008 L1124.6578,131.8008 L1124.2078,126.6998 L1124.2078,60.5508 L1142.5088,60.5508 Z" id="Fill-10" fill="#FFFFFF" mask="url(#mask-2)"></path>
                        <polygon id="Fill-11" fill="#FFFFFF" mask="url(#mask-2)" points="1233.2568 60.5508 1233.2568 78.1008 1206.2568 78.1008 1206.2568 169.9008 1187.8078 169.9008 1187.8078 78.1008 1161.4068 78.1008 1161.4068 60.5508"></polygon>
                        <polygon id="Fill-12" fill="#FFFFFF" mask="url(#mask-2)" points="0 115.0254 0 5.6754 72.601 5.6754 72.601 22.3254 18.3 22.3254 18.3 51.7254 66.601 51.7254 66.601 68.8254 18.3 68.8254 18.3 97.9254 74.7 97.9254 74.7 115.0254"></polygon>
                        <path d="M190.9482,5.6758 L190.9482,120.1248 C190.2472,119.2258 188.6982,117.5748 186.2982,115.1758 C183.8972,112.7758 180.9472,109.9028 177.4482,106.5508 C173.9462,103.2008 170.0722,99.4998 165.8232,95.4498 C161.5712,91.4008 157.2472,87.3008 152.8482,83.1508 C148.4462,79.0018 144.1472,74.9258 139.9482,70.9258 C135.7482,66.9268 131.9232,63.2518 128.4732,59.9008 C125.0222,56.5508 122.1222,53.7008 119.7722,51.3508 C117.4232,49.0018 115.8962,47.3748 115.1982,46.4758 C115.0962,46.2768 114.6962,45.7508 113.9982,44.9008 C113.2982,44.0518 112.6972,43.2768 112.1982,42.5748 L112.6472,47.3748 L112.6472,115.0258 L94.3482,115.0258 L94.3482,0.7258 C95.0462,1.6248 96.5982,3.2518 98.9982,5.6008 C101.3972,7.9508 104.3462,10.7758 107.8482,14.0748 C111.3462,17.3748 115.2212,20.9758 119.4732,24.8748 C123.7212,28.7758 128.0462,32.7498 132.4482,36.8008 C136.8462,40.8508 141.1472,44.8518 145.3482,48.8008 C149.5482,52.7518 153.3962,56.3518 156.8972,59.6008 C160.3972,62.8518 163.3222,65.6258 165.6732,67.9258 C168.0212,70.2268 169.5482,71.8248 170.2482,72.7258 L173.0982,76.9258 L172.6472,71.8248 L172.6472,5.6758 L190.9482,5.6758 Z" id="Fill-13" fill="#FFFFFF" mask="url(#mask-2)"></path>
                        <polygon id="Fill-14" fill="#FFFFFF" mask="url(#mask-2)" points="283.1973 5.6758 283.1973 23.2258 256.1973 23.2258 256.1973 115.0258 237.7473 115.0258 237.7473 23.2258 211.3463 23.2258 211.3463 5.6758"></polygon>
                        <polygon id="Fill-15" fill="#FFFFFF" mask="url(#mask-2)" points="303.5957 115.0254 303.5957 5.6754 376.1967 5.6754 376.1967 22.3254 321.8957 22.3254 321.8957 51.7254 370.1967 51.7254 370.1967 68.8254 321.8957 68.8254 321.8957 97.9254 378.2957 97.9254 378.2957 115.0254"></polygon>
                        <path d="M416.2432,60.125 L430.9442,60.125 C434.7432,60.125 437.8932,59.477 440.3932,58.176 C442.8912,56.877 444.8932,55.302 446.3932,53.45 C447.8932,51.602 448.9442,49.602 449.5442,47.45 C450.1432,45.301 450.4442,43.325 450.4442,41.525 C450.4442,39.826 450.1672,37.902 449.6182,35.75 C449.0672,33.602 448.0672,31.576 446.6182,29.676 C445.1682,27.777 443.1922,26.176 440.6942,24.875 C438.1922,23.577 434.9932,22.926 431.0942,22.926 L416.2432,22.926 L416.2432,60.125 Z M397.9442,115.025 L397.9442,5.676 L428.8442,5.676 C434.8442,5.676 440.3192,6.477 445.2682,8.075 C450.2192,9.676 454.4192,11.976 457.8682,14.976 C461.3192,17.976 463.9932,21.676 465.8932,26.075 C467.7922,30.477 468.7432,35.427 468.7432,40.926 C468.7432,43.926 468.4442,46.926 467.8442,49.926 C467.2432,52.926 466.2922,55.827 464.9932,58.625 C463.6922,61.426 461.9932,64.002 459.8932,66.351 C457.7942,68.701 455.2932,70.727 452.3932,72.426 C454.5932,75.927 456.7432,79.352 458.8442,82.7 C460.9442,86.052 465.2192,92.825 465.2192,92.825 L451.9942,106.698 C447.4942,99.7 448.5932,101.401 444.5942,95.15 C440.5932,88.902 436.7422,82.977 433.0442,77.375 L431.5442,77.375 L416.2432,77.375 L416.2432,115.025 L397.9442,115.025 Z" id="Fill-16" fill="#FFFFFF" mask="url(#mask-2)"></path>
                    </g>
                </g>
            </g>
        </g>
    </g>
</svg>