<?xml version="1.0" encoding="UTF-8"?>
<svg width="878px" height="169px" viewBox="0 0 878 169" version="1.1" xmlns="http://www.w3.org/2000/svg" xmlns:xlink="http://www.w3.org/1999/xlink">
    <!-- Generator: Sketch 47.1 (45422) - http://www.bohemiancoding.com/sketch -->
    <title>Experience - headline</title>
    <desc>Created with Sketch.</desc>
    <defs>
        <polygon id="path-1" points="0 169.049 877.468 169.049 877.468 0 0 0"></polygon>
    </defs>
    <g id="Desktop" stroke="none" stroke-width="1" fill="none" fill-rule="evenodd">
        <g id="D-::-Experience" transform="translate(-281.000000, -243.000000)">
            <g id="Hero" transform="translate(0.000000, 1.000000)">
                <g id="Experience---headline" transform="translate(281.000000, 242.000000)">
                    <path d="M191.0773,109.049 L205.7773,109.049 C209.5773,109.049 212.7263,108.401 215.2273,107.1 C217.7253,105.801 219.7273,104.174 221.2273,102.225 C222.7273,100.275 223.7773,98.226 224.3783,96.074 C224.9773,93.925 225.2773,92.001 225.2773,90.299 C225.2773,88.701 225.0013,86.826 224.4523,84.674 C223.9013,82.526 222.9013,80.5 221.4523,78.6 C220.0023,76.701 218.0263,75.1 215.5273,73.799 C213.0263,72.501 209.8273,71.85 205.9283,71.85 L191.0773,71.85 L191.0773,109.049 Z M172.7773,163.949 L172.7773,78.945 L196.9663,54.6 L203.6783,54.6 C209.6783,54.6 215.1523,55.401 220.1023,56.999 C225.0533,58.6 229.2533,60.9 232.7023,63.9 C236.1523,66.9 238.8273,70.6 240.7273,74.999 C242.6263,79.401 243.5773,84.351 243.5773,89.85 C243.5773,94.251 242.9263,98.624 241.6283,102.975 C240.3273,107.324 238.2013,111.225 235.2533,114.674 C232.3023,118.124 228.4763,120.925 223.7773,123.074 C219.0763,125.226 213.2773,126.299 206.3783,126.299 L191.0773,126.299 L191.0773,163.949 L172.7773,163.949 Z" id="Fill-1" fill="#FEFEFE"></path>
                    <polygon id="Fill-3" fill="#FEFEFE" points="260.2267 163.9494 260.2267 54.5994 332.8267 54.5994 332.8267 71.2494 278.5267 71.2494 278.5267 100.6494 326.8267 100.6494 326.8267 117.7494 278.5267 117.7494 278.5267 146.8494 334.9257 146.8494 334.9257 163.9494"></polygon>
                    <path d="M371.3742,109.049 L386.0742,109.049 C389.8742,109.049 393.0232,108.401 395.5242,107.1 C398.0222,105.801 400.0242,104.226 401.5242,102.374 C403.0242,100.526 404.0742,98.526 404.6752,96.374 C405.2742,94.225 405.5742,92.249 405.5742,90.449 C405.5742,88.75 405.2982,86.826 404.7492,84.674 C404.1982,82.526 403.1982,80.5 401.7492,78.6 C400.2992,76.701 398.3232,75.1 395.8242,73.799 C393.3232,72.501 390.1242,71.85 386.2252,71.85 L371.3742,71.85 L371.3742,109.049 Z M353.0742,163.949 L353.0742,54.6 L383.9752,54.6 C389.9752,54.6 395.4492,55.401 400.3992,56.999 C405.3502,58.6 409.5502,60.9 412.9992,63.9 C416.4492,66.9 419.1242,70.6 421.0242,74.999 C422.9232,79.401 423.8742,84.351 423.8742,89.85 C423.8742,92.85 423.5742,95.85 422.9752,98.85 C422.3742,101.85 421.4232,104.751 420.1242,107.549 C418.8232,110.35 417.1242,112.926 415.0242,115.275 C412.9252,117.625 410.4242,119.651 407.5242,121.35 C409.7232,124.851 411.8742,128.276 413.9752,131.624 C416.0742,134.976 418.1982,138.351 420.3502,141.749 C422.4992,145.151 424.7232,148.65 427.0242,152.249 C429.3232,155.85 431.8242,159.749 434.5242,163.949 L412.4752,163.949 C407.9752,156.951 403.7232,150.325 399.7252,144.074 C395.7242,137.826 391.8732,131.901 388.1752,126.299 L386.6752,126.299 L371.3742,126.299 L371.3742,163.949 L353.0742,163.949 Z" id="Fill-5" fill="#FEFEFE"></path>
                    <mask id="mask-2" fill="white">
                        <use xlink:href="#path-1"></use>
                    </mask>
                    <g id="Clip-8"></g>
                    <polygon id="Fill-7" fill="#FEFEFE" mask="url(#mask-2)" points="448.473 163.95 466.922 163.95 466.922 54.6 448.473 54.6"></polygon>
                    <polygon id="Fill-9" fill="#FEFEFE" mask="url(#mask-2)" points="492.1203 163.9494 492.1203 54.5994 564.7213 54.5994 564.7213 71.2494 510.4203 71.2494 510.4203 100.6494 558.7213 100.6494 558.7213 117.7494 510.4203 117.7494 510.4203 146.8494 566.8203 146.8494 566.8203 163.9494"></polygon>
                    <path d="M681.5685,54.5998 L681.5685,169.0488 C680.8675,168.1498 679.3185,166.4988 676.9185,164.0998 C674.5185,161.6998 671.5675,158.8268 668.0685,155.4748 C664.5665,152.1248 660.6925,148.4238 656.4435,144.3738 C652.1915,140.3248 647.8675,136.2248 643.4685,132.0748 C639.0665,127.9258 634.7685,123.8498 630.5685,119.8498 C626.3685,115.8508 622.5435,112.1758 619.0935,108.8248 C615.6435,105.4748 612.7425,102.6248 610.3935,100.2748 C608.0435,97.9258 606.5165,96.2988 605.8185,95.3998 C605.7175,95.2008 605.3165,94.6748 604.6185,93.8248 C603.9185,92.9758 603.3175,92.2008 602.8185,91.4988 L603.2685,96.2988 L603.2685,163.9498 L584.9685,163.9498 L584.9685,49.6498 C585.6675,50.5488 587.2185,52.1758 589.6185,54.5248 C592.0185,56.8748 594.9665,59.6998 598.4685,62.9988 C601.9675,66.2988 605.8415,69.8998 610.0935,73.7988 C614.3425,77.6998 618.6675,81.6738 623.0685,85.7248 C627.4675,89.7748 631.7685,93.7758 635.9685,97.7248 C640.1685,101.6758 644.0165,105.2758 647.5185,108.5248 C651.0175,111.7758 653.9425,114.5498 656.2935,116.8498 C658.6415,119.1508 660.1685,120.7488 660.8685,121.6498 L663.7185,125.8498 L663.2685,120.7488 L663.2685,54.5998 L681.5685,54.5998 Z" id="Fill-10" fill="#FEFEFE" mask="url(#mask-2)"></path>
                    <path d="M789.1183,155.8498 C787.9183,156.6508 786.2423,157.5998 784.0933,158.6998 C781.9413,159.8008 779.3913,160.8258 776.4423,161.7748 C773.4923,162.7258 770.1663,163.5258 766.4683,164.1738 C762.7663,164.8238 758.8173,165.1498 754.6183,165.1498 C746.0163,165.1498 738.3173,163.6748 731.5173,160.7248 C724.7163,157.7758 718.9673,153.8008 714.2673,148.7988 C709.5663,143.7998 705.9663,137.9508 703.4683,131.2488 C700.9673,124.5508 699.7183,117.5008 699.7183,110.0998 C699.7183,101.9008 701.2183,94.3268 704.2183,87.3738 C707.2183,80.4248 711.2913,74.4248 716.4423,69.3738 C721.5923,64.3268 727.5923,60.4008 734.4423,57.5998 C741.2913,54.8008 748.6183,53.3998 756.4183,53.3998 C759.4183,53.3998 762.4413,53.6238 765.4933,54.0748 C768.5423,54.5248 771.4183,55.1008 774.1183,55.7988 C776.8173,56.4998 779.1923,57.2988 781.2433,58.1998 C783.2913,59.0998 784.7673,60.0508 785.6683,61.0488 C784.7673,62.4518 784.0673,63.5998 783.5673,64.4988 C783.0663,65.3998 782.5413,66.3258 781.9933,67.2748 C781.4423,68.2258 780.8423,69.2988 780.1923,70.4988 C779.5413,71.6998 778.6183,73.3498 777.4183,75.4498 C776.2183,74.6508 774.7663,73.9498 773.0673,73.3498 C771.3663,72.7488 769.5923,72.2758 767.7433,71.9238 C765.8913,71.5758 764.0163,71.3008 762.1183,71.0998 C760.2173,70.9008 758.5173,70.7988 757.0173,70.7988 C751.4163,70.7988 746.2413,71.8498 741.4933,73.9498 C736.7423,76.0488 732.6423,78.8248 729.1923,82.2748 C725.7433,85.7248 723.0433,89.7508 721.0933,94.3498 C719.1423,98.9508 718.1683,103.7018 718.1683,108.5998 C718.1683,113.3998 719.0913,118.0758 720.9423,122.6238 C722.7923,127.1758 725.3913,131.2008 728.7433,134.6998 C732.0923,138.2018 736.0673,141.0258 740.6683,143.1738 C745.2663,145.3268 750.3663,146.3998 755.9683,146.3998 C759.1673,146.3998 762.2673,146.0768 765.2673,145.4238 C768.2673,144.7758 770.9163,144.0508 773.2183,143.2488 C775.5163,142.4508 777.3913,141.6508 778.8433,140.8498 C780.2913,140.0498 781.0673,139.4988 781.1683,139.1998 L789.1183,155.8498 Z" id="Fill-11" fill="#FEFEFE" mask="url(#mask-2)"></path>
                    <polygon id="Fill-12" fill="#FEFEFE" mask="url(#mask-2)" points="802.7678 163.9494 802.7678 54.5994 875.3688 54.5994 875.3688 71.2494 821.0678 71.2494 821.0678 100.6494 835.150195 100.6494 869.3688 100.6494 869.3688 117.7494 821.0678 117.7494 821.0678 146.8494 877.4678 146.8494 877.4678 163.9494"></polygon>
                    <polygon id="Fill-13" fill="#FEFEFE" mask="url(#mask-2)" points="0.0002 109.3488 0.0002 -0.0012 72.6002 -0.0012 72.6002 16.6478 18.3002 16.6478 18.3002 46.0478 66.6002 46.0478 66.6002 63.1478 18.3002 63.1478 18.3002 92.2488 74.7002 92.2488 74.7002 109.3488"></polygon>
                    <path d="M118.1984,53.3977 C117.7974,52.8997 116.7214,51.2977 114.9734,48.5987 C113.2224,45.8977 111.1484,42.6497 108.7484,38.8487 C106.3484,35.0497 103.7464,30.9997 100.9484,26.6987 C98.1474,22.3997 95.5484,18.3747 93.1484,14.6247 C90.7484,10.8747 88.6714,7.6477 86.9234,4.9487 C85.1724,2.2497 84.1484,0.5987 83.8484,-0.0003 L106.4984,-0.0003 C106.7984,0.4997 107.4964,1.6477 108.5984,3.4487 C109.6974,5.2497 110.9984,7.3747 112.4984,9.8237 C113.9984,12.2747 115.5734,14.8747 117.2234,17.6247 C118.8734,20.3747 120.4484,22.9737 121.9484,25.4227 C123.4484,27.8747 124.7234,29.9997 125.7734,31.7977 C126.8234,33.5987 127.5474,34.7497 127.9484,35.2497 C128.0464,35.3487 128.3984,36.0497 128.9984,37.3487 C129.5984,38.6497 130.0974,39.7497 130.4984,40.6477 C130.8964,39.7497 131.3984,38.6497 131.9984,37.3487 C132.5984,36.0497 132.9474,35.3487 133.0484,35.2497 C133.3484,34.7497 134.0234,33.5987 135.0734,31.7977 C136.1234,29.9997 137.3724,27.8747 138.8234,25.4227 C140.2714,22.9737 141.7974,20.3747 143.3984,17.6247 C144.9964,14.8747 146.5224,12.2747 147.9734,9.8237 C149.4214,7.3747 150.6734,5.2497 151.7224,3.4487 C152.7724,1.6477 153.4484,0.4997 153.7484,-0.0003 L176.3974,-0.0003 L142.3484,54.4487 L163.4864,87.2317 L149.7754,101.1667 L133.3484,74.3977 C133.2474,74.2997 133.0224,73.9487 132.6734,73.3487 C132.3214,72.7497 131.9464,72.0987 131.5484,71.3977 C131.1474,70.7007 130.7464,69.9997 130.3484,69.2977 C129.9474,68.6007 129.6964,68.0987 129.5984,67.7977 C129.1974,68.7997 128.7214,69.8487 128.1734,70.9487 C127.6224,72.0497 127.3484,72.6497 127.3484,72.7497 C126.9474,73.3487 126.1974,74.5737 125.0984,76.4227 C123.9964,78.2747 122.6984,80.4507 121.1984,82.9487 C119.6984,85.4487 118.0974,88.1497 116.3984,91.0477 C114.6964,93.9507 113.0984,96.6497 111.5984,99.1477 C110.0984,101.6497 108.7974,103.8507 107.6984,105.7497 C106.5964,107.6497 105.8464,108.8487 105.4484,109.3487 L82.3484,109.3487 C82.7464,108.7497 83.8484,107.0227 85.6484,104.1727 C87.4484,101.3237 89.5974,97.9487 92.0984,94.0477 C94.5964,90.1477 97.2964,85.9247 100.1984,81.3747 C103.0974,76.8237 105.8234,72.5987 108.3734,68.6987 C110.9234,64.7977 113.0984,61.4227 114.8984,58.5737 C116.6984,55.7237 117.7974,53.9997 118.1984,53.3977" id="Fill-14" fill="#FEFEFE" mask="url(#mask-2)"></path>
                    <path d="M228.6828,21.9318 L119.0398,131.5748" id="Stroke-15" stroke="#FEFEFE" stroke-width="2" mask="url(#mask-2)"></path>
                </g>
            </g>
        </g>
    </g>
</svg>