<?xml version="1.0" encoding="UTF-8"?>
<svg width="12px" height="22px" viewBox="0 0 12 22" version="1.1" xmlns="http://www.w3.org/2000/svg" xmlns:xlink="http://www.w3.org/1999/xlink">
    <!-- Generator: Sketch 47.1 (45422) - http://www.bohemiancoding.com/sketch -->
    <title>facebook copy</title>
    <desc>Created with Sketch.</desc>
    <defs></defs>
    <g id="Symbols" stroke="none" stroke-width="1" fill="none" fill-rule="evenodd">
        <g id="Footer" transform="translate(-1068.000000, -94.000000)" fill="#981E32">
            <g id="footer15" transform="translate(-1.000000, 44.000000)">
                <g id="social" transform="translate(1069.000000, 46.000000)">
                    <path d="M2.82450943,15.6438 L0,15.6438 L0,11.9374 L2.82450943,11.9374 L2.82450943,8.7718 C2.82450943,6.2842 4.49298113,4 8.33737736,4 C9.89398113,4 11.0452453,4.1438 11.0452453,4.1438 L10.9543396,7.6048 C10.9543396,7.6048 9.78045283,7.5938 8.4994717,7.5938 C7.1130566,7.5938 6.89098113,8.2094 6.89098113,9.2314 C6.89098113,10.0392 6.89098113,7.5096 6.89098113,11.9376 L11.0645472,11.9376 L10.8829434,15.644 L6.89098113,15.644 L6.89098113,25.9378 L2.82450943,25.9378 L2.82450943,15.6438 Z" id="facebook-copy"></path>
                </g>
            </g>
        </g>
    </g>
</svg>