<?xml version="1.0" encoding="UTF-8"?>
<svg width="1423px" height="430px" viewBox="0 0 1423 430" version="1.1" xmlns="http://www.w3.org/2000/svg" xmlns:xlink="http://www.w3.org/1999/xlink">
    <!-- Generator: Sketch 47.1 (45422) - http://www.bohemiancoding.com/sketch -->
    <title>featured-chefs</title>
    <desc>Created with Sketch.</desc>
    <defs></defs>
    <g id="Page-1" stroke="none" stroke-width="1" fill="none" fill-rule="evenodd" opacity="0.15">
        <g id="featured-chefs" fill="#EF4550">
            <g id="Page-1">
                <g id="featured-chefs">
                    <g id="Desktop">
                        <path d="M136.85,8.28 L136.85,46.08 L51.8,46.08 L51.8,91.17 L125.51,91.17 L125.51,128.97 L51.8,128.97 L51.8,207 L12.65,207 L12.65,8.28 L136.85,8.28 Z M310.19,8.28 L310.19,46.08 L213.8,46.08 L213.8,88.47 L299.12,88.47 L299.12,126.27 L213.8,126.27 L213.8,169.2 L313.97,169.2 L313.97,207 L174.65,207 L174.65,8.28 L310.19,8.28 Z M452.75,168.12 L386.87,168.12 L370.67,207 L332.06,207 L421.7,0.45 L423.86,0.45 L513.5,207 L468.14,207 L452.75,168.12 Z M439.79,135.18 L420.62,86.85 L400.64,135.18 L439.79,135.18 Z M646.61,8.28 L646.61,46.08 L598.28,46.08 L598.28,207 L559.13,207 L559.13,46.08 L512.69,46.08 L512.69,8.28 L646.61,8.28 Z M725.18,151.65 C728.960019,157.410029 733.999968,162.089982 740.3,165.69 C746.600031,169.290018 753.349964,171.09 760.55,171.09 C768.290039,171.09 775.399968,169.290018 781.88,165.69 C788.360032,162.089982 793.444982,157.410029 797.135,151.65 C800.825018,145.889971 802.67,139.860031 802.67,133.56 L802.67,8.28 L841.28,8.28 L841.28,134.37 C841.28,148.590071 837.680036,161.414943 830.48,172.845 C823.279964,184.275057 813.515062,193.184968 801.185,199.575 C788.854938,205.965032 775.310074,209.16 760.55,209.16 C745.789926,209.16 732.290061,205.965032 720.05,199.575 C707.809939,193.184968 698.135036,184.275057 691.025,172.845 C683.914964,161.414943 680.36,148.590071 680.36,134.37 L680.36,8.28 L719.51,8.28 L719.51,133.56 C719.51,139.860031 721.399981,145.889971 725.18,151.65 Z M995.72,207 L953.87,143.82 L927.68,143.82 L927.68,207 L888.53,207 L888.53,8.28 L948.74,8.28 C973.400123,8.28 992.524932,14.2649401 1006.115,26.235 C1019.70507,38.2050598 1026.5,54.5398965 1026.5,75.24 C1026.5,87.4800612 1023.93503,98.9549464 1018.805,109.665 C1013.67497,120.375054 1005.80005,128.789969 995.18,134.91 L1041.35,207 L995.72,207 Z M927.68,106.02 L955.49,106.02 C966.110053,106.02 973.849976,102.915031 978.71,96.705 C983.570024,90.4949689 986,83.790036 986,76.59 C986,69.389964 983.930021,62.5050328 979.79,55.935 C975.649979,49.3649671 967.640059,46.08 955.76,46.08 L927.68,46.08 L927.68,106.02 Z M1209.29,8.28 L1209.29,46.08 L1112.9,46.08 L1112.9,88.47 L1198.22,88.47 L1198.22,126.27 L1112.9,126.27 L1112.9,169.2 L1213.07,169.2 L1213.07,207 L1073.75,207 L1073.75,8.28 L1209.29,8.28 Z M1253.57,8.28 L1312.97,8.28 C1338.35013,8.28 1359.22992,13.1849509 1375.61,22.995 C1391.99008,32.805049 1403.91496,45.4949221 1411.385,61.065 C1418.85504,76.6350778 1422.59,93.3299109 1422.59,111.15 C1422.59,130.230095 1418.09005,147.059927 1409.09,161.64 C1400.08996,176.220073 1387.98508,187.424961 1372.775,195.255 C1357.56492,203.085039 1340.87009,207 1322.69,207 L1253.57,207 L1253.57,8.28 Z M1315.94,169.2 C1336.2801,169.2 1352.38994,163.980052 1364.27,153.54 C1376.15006,143.099948 1382.09,128.070098 1382.09,108.45 C1382.09,92.6099208 1378.80503,80.0100468 1372.235,70.65 C1365.66497,61.2899532 1358.01504,54.810018 1349.285,51.21 C1340.55496,47.609982 1332.32004,45.81 1324.58,45.81 L1292.72,45.81 L1292.72,169.2 L1315.94,169.2 Z" id="FEATURED"></path>
                        <path d="M137.66,422.95 C126.679945,427.090021 114.710065,429.16 101.75,429.16 C81.0498965,429.16 63.0500765,424.660045 47.75,415.66 C32.4499235,406.659955 20.7500405,394.555076 12.65,379.345 C4.5499595,364.134924 0.5,347.440091 0.5,329.26 C0.5,309.2799 4.5499595,291.460078 12.65,275.8 C20.7500405,260.139922 32.0899271,247.945044 46.67,239.215 C61.2500729,230.484956 78.0799046,226.12 97.16,226.12 C109.22006,226.12 120.379949,227.739984 130.64,230.98 C140.900051,234.220016 149.899961,238.269976 157.64,243.13 L142.25,280.12 C128.029929,269.319946 113.450075,263.92 98.51,263.92 C88.4299496,263.92 78.9800441,266.709972 70.16,272.29 C61.3399559,277.870028 54.3200261,285.474952 49.1,295.105 C43.8799739,304.735048 41.27,315.399942 41.27,327.1 C41.27,339.880064 43.6999757,351.084952 48.56,360.715 C53.4200243,370.345048 60.349955,377.859973 69.35,383.26 C78.350045,388.660027 88.8799397,391.36 100.94,391.36 C110.660049,391.36 119.389961,389.785016 127.13,386.635 C134.870039,383.484984 140.989977,379.750022 145.49,375.43 L161.69,410.53 C156.649975,414.670021 148.640055,418.809979 137.66,422.95 Z M367.97,427 L328.82,427 L328.82,346.27 L239.99,346.27 L239.99,427 L200.84,427 L200.84,228.28 L239.99,228.28 L239.99,308.47 L328.82,308.47 L328.82,228.28 L367.97,228.28 L367.97,427 Z M554.81,228.28 L554.81,266.08 L458.42,266.08 L458.42,308.47 L543.74,308.47 L543.74,346.27 L458.42,346.27 L458.42,389.2 L558.59,389.2 L558.59,427 L419.27,427 L419.27,228.28 L554.81,228.28 Z M723.29,228.28 L723.29,266.08 L638.24,266.08 L638.24,311.17 L711.95,311.17 L711.95,348.97 L638.24,348.97 L638.24,427 L599.09,427 L599.09,228.28 L723.29,228.28 Z M822.11,262.03 C813.469957,262.03 806.765024,263.739983 801.995,267.16 C797.224976,270.580017 794.84,275.709966 794.84,282.55 C794.84,288.850032 798.304965,294.384976 805.235,299.155 C812.165035,303.925024 821.389942,308.469978 832.91,312.79 C842.270047,316.210017 850.279967,320.124978 856.94,324.535 C863.600033,328.945022 869.134978,335.019961 873.545,342.76 C877.955022,350.500039 880.16,360.309941 880.16,372.19 C880.16,382.450051 877.505027,391.944956 872.195,400.675 C866.884973,409.405044 859.100051,416.334974 848.84,421.465 C838.579949,426.595026 826.340071,429.16 812.12,429.16 C800.239941,429.16 788.450058,427.405018 776.75,423.895 C765.049941,420.384982 754.16005,415.030036 744.08,407.83 L761.36,377.32 C768.200034,382.360025 776.029956,386.499984 784.85,389.74 C793.670044,392.980016 801.589965,394.6 808.61,394.6 C816.890041,394.6 824.089969,392.845018 830.21,389.335 C836.330031,385.824982 839.39,380.11004 839.39,372.19 C839.39,361.929949 829.760096,353.020038 810.5,345.46 C799.159943,340.959977 789.710038,336.640021 782.15,332.5 C774.589962,328.359979 768.065027,322.420039 762.575,314.68 C757.084973,306.939961 754.34,297.220058 754.34,285.52 C754.34,268.419915 759.964944,254.650052 771.215,244.21 C782.465056,233.769948 797.449906,228.100004 816.17,227.2 C830.930074,227.2 843.25995,228.864983 853.16,232.195 C863.060049,235.525017 872.689953,240.249969 882.05,246.37 L867.2,276.34 C849.919914,266.799952 834.890064,262.03 822.11,262.03 Z" id="CHEFS"></path>
                    </g>
                </g>
            </g>
        </g>
    </g>
</svg>
