<?xml version="1.0" encoding="UTF-8"?>
<svg width="1043px" height="171px" viewBox="0 0 1043 171" version="1.1" xmlns="http://www.w3.org/2000/svg" xmlns:xlink="http://www.w3.org/1999/xlink">
    <!-- Generator: Sketch 47.1 (45422) - http://www.bohemiancoding.com/sketch -->
    <title>image upload - headline</title>
    <desc>Created with Sketch.</desc>
    <defs>
        <polygon id="path-1" points="0 171 1042.161 171 1042.161 0.625 0 0.625"></polygon>
    </defs>
    <g id="Desktop" stroke="none" stroke-width="1" fill="none" fill-rule="evenodd">
        <g id="D-::-Image-upload" transform="translate(-199.000000, -234.000000)">
            <g id="Hero" transform="translate(-1.000000, 0.000000)">
                <g id="image-upload---headline" transform="translate(200.000000, 233.000000)">
                    <polygon id="Fill-1" fill="#FFFFFF" points="405.774 139.3086 404.36 137.8946 514.775 27.4796 516.189 28.8936"></polygon>
                    <g id="Group-20" transform="translate(0.000000, 0.375000)">
                        <path d="M499.4649,171 C493.5629,171 488.0389,170.025 482.8899,168.076 C477.7379,166.125 473.2639,163.402 469.4649,159.9 C465.6629,156.4 462.6629,152.176 460.4649,147.225 C458.2639,142.275 457.1649,136.801 457.1649,130.801 L457.1649,86.073 L475.4649,67.718 L475.4649,130.35 C475.4649,133.553 476.0889,136.553 477.3399,139.35 C478.5889,142.15 480.2879,144.6 482.4399,146.701 C484.5889,148.801 487.1129,150.477 490.0149,151.725 C492.9139,152.977 496.0639,153.6 499.4649,153.6 C502.8629,153.6 506.0389,152.977 508.9899,151.725 C511.9379,150.477 514.5139,148.801 516.7149,146.701 C518.9129,144.6 520.6379,142.15 521.8899,139.35 C523.1389,136.553 523.7649,133.553 523.7649,130.35 L523.7649,60.451 L542.0649,60.451 L542.0649,130.801 C542.0649,136.801 540.9639,142.275 538.7649,147.225 C536.5639,152.176 533.5379,156.4 529.6899,159.9 C525.8389,163.402 521.3129,166.125 516.1149,168.076 C510.9139,170.025 505.3639,171 499.4649,171 Z" id="Fill-2" fill="#FFFFFF"></path>
                        <path d="M584.5128,114.9004 L599.2128,114.9004 C603.0128,114.9004 606.1618,114.2524 608.6628,112.9514 C611.1608,111.6524 613.1628,110.0254 614.6628,108.0764 C616.1628,106.1254 617.2128,104.0764 617.8128,101.9254 C618.4128,99.7754 618.7128,97.8514 618.7128,96.1504 C618.7128,94.5524 618.4358,92.6774 617.8878,90.5254 C617.3368,88.3774 616.3368,86.3514 614.8878,84.4514 C613.4368,82.5524 611.4618,80.9514 608.9628,79.6504 C606.4618,78.3514 603.2628,77.7014 599.3628,77.7014 L584.5128,77.7014 L584.5128,114.9004 Z M566.2128,169.8004 L566.2128,60.4514 L597.1128,60.4514 C603.1128,60.4514 608.5878,61.2524 613.5378,62.8494 C618.4878,64.4514 622.6878,66.7504 626.1378,69.7504 C629.5878,72.7504 632.2628,76.4514 634.1628,80.8494 C636.0608,85.2524 637.0128,90.2014 637.0128,95.7014 C637.0128,100.1014 636.3618,104.4744 635.0628,108.8264 C633.7628,113.1754 631.6368,117.0764 628.6878,120.5254 C625.7368,123.9744 621.9118,126.7754 617.2128,128.9254 C612.5118,131.0764 606.7128,132.1504 599.8128,132.1504 L584.5128,132.1504 L584.5128,169.8004 L566.2128,169.8004 Z" id="Fill-4" fill="#FFFFFF"></path>
                        <polygon id="Fill-6" fill="#FFFFFF" points="653.6617 169.8008 653.6617 60.4508 671.9617 60.4508 671.9617 152.4008 725.0617 152.4008 725.0617 169.8008"></polygon>
                        <path d="M748.6114,115.3496 C748.6114,120.6526 749.5864,125.6246 751.5364,130.2756 C753.4864,134.9256 756.1864,138.9746 759.6364,142.4256 C763.0864,145.8746 767.0844,148.6016 771.6364,150.5996 C776.1854,152.6016 781.1104,153.5996 786.4114,153.5996 C791.5114,153.5996 796.3344,152.6016 800.8864,150.5996 C805.4354,148.6016 809.3844,145.8746 812.7364,142.4256 C816.0854,138.9746 818.7364,134.9256 820.6864,130.2756 C822.6364,125.6246 823.6114,120.6526 823.6114,115.3496 C823.6114,110.0506 822.6104,105.0766 820.6114,100.4256 C818.6104,95.7756 815.9094,91.7016 812.5114,88.2016 C809.1104,84.7016 805.1354,81.9516 800.5864,79.9516 C796.0344,77.9516 791.1594,76.9516 785.9614,76.9516 C780.7604,76.9516 775.8854,77.9516 771.3364,79.9516 C766.7844,81.9516 762.8354,84.7016 759.4864,88.2016 C756.1344,91.7016 753.4864,95.7756 751.5364,100.4256 C749.5864,105.0766 748.6114,110.0506 748.6114,115.3496 M730.1614,115.3496 C730.1614,107.7516 731.6354,100.5526 734.5864,93.7496 C737.5344,86.9516 741.5354,80.9996 746.5864,75.9006 C751.6344,70.8006 757.5364,66.7496 764.2864,63.7496 C771.0364,60.7496 778.2594,59.2496 785.9614,59.2496 C793.5594,59.2496 800.7594,60.7496 807.5614,63.7496 C814.3604,66.7496 820.3114,70.8006 825.4114,75.9006 C830.5114,80.9996 834.5354,86.9516 837.4864,93.7496 C840.4344,100.5526 841.9114,107.7516 841.9114,115.3496 C841.9114,123.0526 840.4344,130.2756 837.4864,137.0256 C834.5354,143.7756 830.5114,149.6776 825.4114,154.7246 C820.3114,159.7756 814.3604,163.7516 807.5614,166.6506 C800.7594,169.5526 793.5594,170.9996 785.9614,170.9996 C778.2594,170.9996 771.0364,169.5526 764.2864,166.6506 C757.5364,163.7516 751.6344,159.7756 746.5864,154.7246 C741.5354,149.6776 737.5344,143.7756 734.5864,137.0256 C731.6354,130.2756 730.1614,123.0526 730.1614,115.3496" id="Fill-8" fill="#FFFFFF"></path>
                        <path d="M879.4107,125.5508 L904.3107,125.5508 L893.5107,99.4508 C893.4097,99.3518 893.1587,98.6778 892.7607,97.4258 C892.3597,96.1758 892.0597,95.0508 891.8607,94.0508 C891.6587,95.0508 891.3587,96.1758 890.9607,97.4258 C890.5597,98.6778 890.3607,99.3518 890.3607,99.4508 L879.4107,125.5508 Z M922.7607,169.8008 C922.4607,169.1018 921.9357,167.8498 921.1857,166.0508 C920.4357,164.2498 919.5097,162.0528 918.4107,159.4508 C917.3087,156.8518 916.1087,153.9748 914.8107,150.8258 C913.5097,147.6758 912.1597,144.4008 910.7607,140.9998 L873.1107,140.9998 L861.1107,169.8008 L842.9607,169.8008 C843.3587,168.9008 844.3107,166.6758 845.8107,163.1248 C847.3107,159.5758 849.1857,155.1758 851.4357,149.9258 C853.6857,144.6758 856.1837,138.8258 858.9357,132.3748 C861.6847,125.9258 864.5087,119.3518 867.4107,112.6508 C870.3097,105.9508 873.1337,99.3748 875.8857,92.9258 C878.6347,86.4748 881.1357,80.6248 883.3857,75.3748 C885.6357,70.1248 887.5107,65.7268 889.0107,62.1758 C890.5107,58.6268 891.4597,56.4008 891.8607,55.4998 C892.2587,56.4008 893.2337,58.6268 894.7857,62.1758 C896.3347,65.7268 898.2357,70.1248 900.4857,75.3748 C902.7357,80.6248 905.2337,86.4748 907.9857,92.9258 C910.7347,99.3748 913.5587,105.9508 916.4607,112.6508 C919.3597,119.3518 922.1837,125.9258 924.9357,132.3748 C927.6847,138.8258 930.1857,144.6758 932.4357,149.9258 C934.6857,155.1758 936.5607,159.5758 938.0607,163.1248 C939.5607,166.6758 940.5097,168.9008 940.9107,169.8008 L922.7607,169.8008 Z" id="Fill-10" fill="#FFFFFF"></path>
                        <path d="M984.4107,152.4004 C990.1107,152.4004 995.3607,151.6014 1000.1607,150.0004 C1004.9607,148.4024 1009.1087,146.0254 1012.6107,142.8754 C1016.1097,139.7244 1018.8357,135.8774 1020.7857,131.3264 C1022.7357,126.7754 1023.7107,121.5004 1023.7107,115.5004 C1023.7107,108.7014 1022.5347,102.9254 1020.1857,98.1754 C1017.8347,93.4274 1014.8607,89.5764 1011.2607,86.6254 C1007.6607,83.6774 1003.6597,81.5254 999.2607,80.1754 C994.8587,78.8264 990.6597,78.1504 986.6607,78.1504 L971.9607,78.1504 L971.9607,152.4004 L984.4107,152.4004 Z M953.5107,60.4514 L981.8607,60.4514 C992.8597,60.4514 1002.1857,62.1274 1009.8357,65.4744 C1017.4857,68.8264 1023.7107,73.1504 1028.5107,78.4514 C1033.3107,83.7524 1036.7837,89.7754 1038.9357,96.5254 C1041.0847,103.2754 1042.1607,110.0024 1042.1607,116.7014 C1042.1607,124.9004 1040.6837,132.2774 1037.7357,138.8264 C1034.7847,145.3774 1030.8097,150.9514 1025.8107,155.5504 C1020.8087,160.1504 1014.9847,163.6754 1008.3357,166.1254 C1001.6837,168.5764 994.6597,169.8004 987.2607,169.8004 L953.5107,169.8004 L953.5107,60.4514 Z" id="Fill-12" fill="#FFFFFF"></path>
                        <mask id="mask-2" fill="white">
                            <use xlink:href="#path-1"></use>
                        </mask>
                        <g id="Clip-15"></g>
                        <polygon id="Fill-14" fill="#FFFFFF" mask="url(#mask-2)" points="0 114.925 18.45 114.925 18.45 5.575 0 5.575"></polygon>
                        <path d="M45.148,0.7744 C45.647,1.4754 46.746,3.0504 48.448,5.5004 C50.147,7.9514 52.273,10.9514 54.823,14.5004 C57.373,18.0504 60.223,21.9764 63.373,26.2744 C66.523,30.5754 69.722,34.9514 72.973,39.3994 C76.221,43.8504 79.397,48.2004 82.498,52.4504 C85.596,56.7014 88.397,60.5754 90.898,64.0754 C93.397,67.5764 95.522,70.5014 97.273,72.8494 C99.022,75.2004 100.097,76.6744 100.498,77.2744 C100.697,76.9744 101.597,75.7004 103.198,73.4504 C104.796,71.2004 106.821,68.3764 109.273,64.9744 C111.722,61.5764 114.497,57.7004 117.598,53.3494 C120.696,49.0004 123.898,44.5754 127.198,40.0754 C130.498,35.5754 133.723,31.1264 136.873,26.7244 C140.023,22.3254 142.922,18.3254 145.573,14.7244 C148.221,11.1254 150.448,8.0754 152.248,5.5754 C154.048,3.0764 155.196,1.4754 155.698,0.7744 L155.698,114.9244 L136.048,114.9244 L136.048,59.1254 C136.048,58.3254 136.147,57.4744 136.348,56.5754 C136.547,55.6744 136.648,55.1264 136.648,54.9244 L100.498,106.9744 C99.996,106.3754 98.773,104.7244 96.823,102.0244 C94.873,99.3254 92.548,96.1264 89.848,92.4244 C87.148,88.7264 84.298,84.7514 81.298,80.5004 C78.298,76.2514 75.471,72.3014 72.823,68.6494 C70.172,65.0014 67.922,61.8994 66.073,59.3494 C64.221,56.7994 63.197,55.3254 62.998,54.9244 C62.998,55.1264 63.096,55.6744 63.298,56.5754 C63.497,57.4744 63.598,58.3254 63.598,59.1254 L63.598,114.9244 L45.148,114.9244 L45.148,0.7744 Z" id="Fill-16" fill="#FFFFFF" mask="url(#mask-2)"></path>
                        <path d="M206.2481,70.6748 L231.1481,70.6748 L220.3481,44.5748 C220.2471,44.4768 219.9961,43.8018 219.5981,42.5498 C219.1971,41.3008 218.8971,40.1758 218.6981,39.1748 C218.4961,40.1758 218.1961,41.3008 217.7981,42.5498 C217.3971,43.8018 217.1981,44.4768 217.1981,44.5748 L206.2481,70.6748 Z M249.5981,114.9248 C249.2981,114.2268 248.7731,112.9748 248.0231,111.1748 C247.2731,109.3748 246.3471,107.1768 245.2481,104.5748 C244.1461,101.9758 242.9461,99.0998 241.6481,95.9498 C240.3471,92.7998 238.9971,89.5258 237.5981,86.1248 L199.9481,86.1248 L187.9481,114.9248 L169.7981,114.9248 C170.1961,114.0248 171.1481,111.8008 172.6481,108.2498 C174.1481,104.7008 176.0231,100.2998 178.2731,95.0498 C180.5231,89.7998 183.0211,83.9498 185.7731,77.4998 C188.5221,71.0498 191.3461,64.4758 194.2481,57.7748 C197.1471,51.0758 199.9711,44.4998 202.7231,38.0498 C205.4721,31.5998 207.9731,25.7498 210.2231,20.4998 C212.4731,15.2498 214.3481,10.8508 215.8481,7.2998 C217.3481,3.7508 218.2971,1.5248 218.6981,0.6248 C219.0961,1.5248 220.0711,3.7508 221.6231,7.2998 C223.1721,10.8508 225.0731,15.2498 227.3231,20.4998 C229.5731,25.7498 232.0711,31.5998 234.8231,38.0498 C237.5721,44.4998 240.3961,51.0758 243.2981,57.7748 C246.1971,64.4758 249.0211,71.0498 251.7731,77.4998 C254.5221,83.9498 257.0231,89.7998 259.2731,95.0498 C261.5231,100.2998 263.3981,104.7008 264.8981,108.2498 C266.3981,111.8008 267.3471,114.0248 267.7481,114.9248 L249.5981,114.9248 Z" id="Fill-17" fill="#FFFFFF" mask="url(#mask-2)"></path>
                        <path d="M360.1495,61.8252 L360.1495,108.3252 C355.9495,110.8252 350.8735,112.7502 344.9245,114.0992 C338.9735,115.4502 332.8985,116.1252 326.6995,116.1252 C318.0975,116.1252 310.3235,114.7742 303.3745,112.0752 C296.4225,109.3752 290.4985,105.6772 285.5995,100.9742 C280.6985,96.2752 276.9485,90.6772 274.3495,84.1752 C271.7485,77.6762 270.4495,70.5762 270.4495,62.8752 C270.4495,54.1752 271.9985,46.2512 275.0995,39.0992 C278.1975,31.9512 282.3745,25.8022 287.6245,20.6492 C292.8745,15.5012 298.9725,11.5002 305.9245,8.6492 C312.8735,5.8002 320.1975,4.3752 327.8995,4.3752 C330.4985,4.3752 333.2245,4.5512 336.0745,4.8992 C338.9245,5.2512 341.7485,5.7762 344.5495,6.4742 C347.3475,7.1762 350.0475,8.0012 352.6495,8.9502 C355.2485,9.9012 357.5995,11.0262 359.6995,12.3252 L350.6995,27.3252 C349.2975,26.4252 347.6245,25.6512 345.6745,25.0002 C343.7245,24.3502 341.6995,23.7762 339.5995,23.2742 C337.4995,22.7752 335.4225,22.4002 333.3745,22.1492 C331.3235,21.9012 329.3995,21.7742 327.5995,21.7742 C322.4995,21.7742 317.6245,22.8022 312.9745,24.8492 C308.3245,26.9002 304.1995,29.6762 300.5995,33.1752 C296.9995,36.6772 294.1235,40.8502 291.9745,45.7002 C289.8225,50.5522 288.7495,55.7262 288.7495,61.2242 C288.7495,66.2262 289.6985,70.9742 291.5995,75.4742 C293.4985,79.9742 296.1485,83.9502 299.5495,87.3992 C302.9475,90.8492 306.9985,93.6012 311.6995,95.6492 C316.3985,97.7002 321.5475,98.7242 327.1495,98.7242 C329.1485,98.7242 331.6495,98.5522 334.6495,98.2002 C337.6495,97.8502 340.4995,97.2242 343.1995,96.3252 L343.1995,77.7242 L322.7995,77.7242 L322.7995,61.8252 L360.1495,61.8252 Z" id="Fill-18" fill="#FFFFFF" mask="url(#mask-2)"></path>
                        <polygon id="Fill-19" fill="#FFFFFF" mask="url(#mask-2)" points="382.1978 114.9248 382.1978 5.5748 454.7978 5.5748 454.7978 22.2248 400.4978 22.2248 400.4978 51.6248 448.7978 51.6248 448.7978 68.7248 400.4978 68.7248 400.4978 97.8248 445.6088 97.8248 428.6788 114.9248"></polygon>
                    </g>
                </g>
            </g>
        </g>
    </g>
</svg>