<?xml version="1.0" encoding="UTF-8"?>
<svg width="495px" height="171px" viewBox="0 0 495 171" version="1.1" xmlns="http://www.w3.org/2000/svg" xmlns:xlink="http://www.w3.org/1999/xlink">
    <!-- Generator: Sketch 47.1 (45422) - http://www.bohemiancoding.com/sketch -->
    <title>impact - headline</title>
    <desc>Created with Sketch.</desc>
    <defs>
        <polygon id="path-1" points="0.768 112 90.168 112 90.168 0.2502 0.768 0.2502"></polygon>
        <polygon id="path-3" points="72.367 109.8002 72.367 0.4502 0.5172 0.4502 0.5172 109.8002"></polygon>
        <polygon id="path-5" points="0 171 494.367 171 494.367 0.774 0 0.774"></polygon>
    </defs>
    <g id="Desktop" stroke="none" stroke-width="1" fill="none" fill-rule="evenodd">
        <g id="D-::-Impact" transform="translate(-472.000000, -234.000000)">
            <g id="Hero" transform="translate(-1.000000, 0.000000)">
                <g id="impact---headline" transform="translate(473.000000, 233.000000)">
                    <path d="M218.335,28.0375 L107.92,138.4525" id="Stroke-1" stroke="#FEFEFE" stroke-width="2"></path>
                    <g id="Group-15" transform="translate(0.000000, 0.226000)">
                        <path d="M179.3672,114.8994 L194.0672,114.8994 C197.8672,114.8994 201.0162,114.2514 203.5172,112.9504 C206.0152,111.6514 208.0172,110.0244 209.5172,108.0754 C211.0172,106.1254 212.0672,104.0764 212.6682,101.9244 C213.2672,99.7754 213.5672,97.8514 213.5672,96.1494 C213.5672,94.5514 213.2912,92.6764 212.7422,90.5244 C212.1912,88.3764 211.1912,86.3504 209.7422,84.4504 C208.2912,82.5514 206.3162,80.9504 203.8172,79.6494 C201.3162,78.3514 198.1172,77.7004 194.2172,77.7004 L179.3672,77.7004 L179.3672,114.8994 Z M161.0672,169.7994 L161.0672,85.4814 L185.5362,60.4504 L191.9672,60.4504 C197.9672,60.4504 203.4422,61.2514 208.3922,62.8494 C213.3422,64.4504 217.5432,66.7504 220.9922,69.7504 C224.4422,72.7504 227.1172,76.4504 229.0172,80.8494 C230.9162,85.2514 231.8672,90.2014 231.8672,95.7004 C231.8672,100.1014 231.2162,104.4744 229.9182,108.8254 C228.6172,113.1744 226.4902,117.0754 223.5432,120.5244 C220.5922,123.9744 216.7662,126.7754 212.0672,128.9244 C207.3652,131.0764 201.5672,132.1494 194.6682,132.1494 L179.3672,132.1494 L179.3672,169.7994 L161.0672,169.7994 Z" id="Fill-2" fill="#FEFEFE"></path>
                        <path d="M263.0664,125.5498 L287.9664,125.5498 L277.1664,99.4498 C277.0664,99.3518 276.8144,98.6768 276.4164,97.4248 C276.0154,96.1758 275.7154,95.0508 275.5164,94.0498 C275.3144,95.0508 275.0154,96.1758 274.6174,97.4248 C274.2154,98.6768 274.0164,99.3518 274.0164,99.4498 L263.0664,125.5498 Z M306.4164,169.7998 C306.1174,169.1018 305.5914,167.8498 304.8414,166.0498 C304.0914,164.2498 303.1664,162.0518 302.0664,159.4498 C300.9644,156.8508 299.7654,153.9748 298.4664,150.8248 C297.1664,147.6748 295.8164,144.4008 294.4164,140.9998 L256.7664,140.9998 L244.7664,169.7998 L226.6174,169.7998 C227.0154,168.8998 227.9664,166.6758 229.4664,163.1248 C230.9664,159.5758 232.8414,155.1748 235.0914,149.9248 C237.3414,144.6748 239.8394,138.8248 242.5914,132.3748 C245.3404,125.9248 248.1654,119.3508 251.0664,112.6498 C253.9654,105.9508 256.7904,99.3748 259.5414,92.9248 C262.2914,86.4748 264.7914,80.6248 267.0414,75.3748 C269.2914,70.1248 271.1664,65.7258 272.6664,62.1748 C274.1664,58.6258 275.1154,56.3998 275.5164,55.4998 C275.9154,56.3998 276.8904,58.6258 278.4414,62.1748 C279.9904,65.7258 281.8914,70.1248 284.1414,75.3748 C286.3914,80.6248 288.8904,86.4748 291.6414,92.9248 C294.3904,99.3748 297.2144,105.9508 300.1174,112.6498 C303.0154,119.3508 305.8394,125.9248 308.5914,132.3748 C311.3404,138.8248 313.8414,144.6748 316.0914,149.9248 C318.3414,155.1748 320.2164,159.5758 321.7164,163.1248 C323.2164,166.6758 324.1664,168.8998 324.5664,169.7998 L306.4164,169.7998 Z" id="Fill-4" fill="#FEFEFE"></path>
                        <g id="Group-8" transform="translate(325.000000, 59.000000)">
                            <mask id="mask-2" fill="white">
                                <use xlink:href="#path-1"></use>
                            </mask>
                            <g id="Clip-7"></g>
                            <path d="M90.168,102.7002 C88.968,103.5012 87.292,104.4502 85.143,105.5502 C82.991,106.6512 80.441,107.6762 77.492,108.6252 C74.542,109.5762 71.217,110.3762 67.518,111.0242 C63.816,111.6742 59.867,112.0002 55.668,112.0002 C47.066,112.0002 39.367,110.5252 32.568,107.5752 C25.766,104.6262 20.018,100.6512 15.318,95.6492 C10.616,90.6502 7.016,84.8012 4.518,78.0992 C2.018,71.4012 0.768,64.3512 0.768,56.9502 C0.768,48.7512 2.268,41.1772 5.268,34.2242 C8.268,27.2752 12.342,21.2752 17.492,16.2242 C22.643,11.1772 28.643,7.2512 35.492,4.4502 C42.342,1.6512 49.668,0.2502 57.468,0.2502 C60.468,0.2502 63.491,0.4742 66.543,0.9252 C69.592,1.3752 72.468,1.9512 75.168,2.6492 C77.867,3.3502 80.242,4.1492 82.293,5.0502 C84.342,5.9502 85.818,6.9012 86.718,7.8992 C85.818,9.3022 85.117,10.4502 84.617,11.3492 C84.116,12.2502 83.592,13.1762 83.043,14.1252 C82.492,15.0762 81.893,16.1492 81.242,17.3492 C80.592,18.5502 79.668,20.2002 78.468,22.3002 C77.268,21.5012 75.816,20.8002 74.117,20.2002 C72.416,19.5992 70.643,19.1262 68.793,18.7742 C66.941,18.4262 65.066,18.1512 63.168,17.9502 C61.268,17.7512 59.568,17.6492 58.068,17.6492 C52.467,17.6492 47.291,18.7002 42.543,20.8002 C37.792,22.8992 33.693,25.6752 30.242,29.1252 C26.793,32.5752 24.093,36.6012 22.143,41.2002 C20.193,45.8012 19.218,50.5522 19.218,55.4502 C19.218,60.2502 20.141,64.9262 21.992,69.4742 C23.842,74.0262 26.441,78.0512 29.793,81.5502 C33.143,85.0522 37.117,87.8762 41.718,90.0242 C46.316,92.1772 51.416,93.2502 57.018,93.2502 C60.217,93.2502 63.318,92.9272 66.318,92.2742 C69.318,91.6262 71.967,90.9012 74.268,90.0992 C76.566,89.3012 78.441,88.5012 79.893,87.7002 C81.342,86.9002 82.117,86.3492 82.218,86.0502 L90.168,102.7002 Z" id="Fill-6" fill="#FEFEFE" mask="url(#mask-2)"></path>
                        </g>
                        <g id="Group-11" transform="translate(422.000000, 60.000000)">
                            <mask id="mask-4" fill="white">
                                <use xlink:href="#path-3"></use>
                            </mask>
                            <g id="Clip-10"></g>
                            <polygon id="Fill-9" fill="#FEFEFE" mask="url(#mask-4)" points="72.3672 0.4502 72.3672 18.0002 45.3672 18.0002 45.3672 109.8002 26.9182 109.8002 26.9182 18.0002 0.5172 18.0002 0.5172 0.4502"></polygon>
                        </g>
                        <mask id="mask-6" fill="white">
                            <use xlink:href="#path-5"></use>
                        </mask>
                        <g id="Clip-13"></g>
                        <polygon id="Fill-12" fill="#FEFEFE" mask="url(#mask-6)" points="0 114.925 18.45 114.925 18.45 5.575 0 5.575"></polygon>
                        <path d="M45.1484,0.7744 C45.6474,1.4754 46.7464,3.0504 48.4484,5.5004 C50.1474,7.9514 52.2734,10.9514 54.8234,14.5004 C57.3734,18.0504 60.2224,21.9764 63.3734,26.2744 C66.5234,30.5754 69.7224,34.9514 72.9724,39.3994 C76.2214,43.8504 79.3974,48.2004 82.4984,52.4504 C85.5964,56.7014 88.3974,60.5754 90.8984,64.0754 C93.3964,67.5764 95.5224,70.5014 97.2734,72.8494 C99.0214,75.2004 100.0974,76.6744 100.4984,77.2744 C100.6974,76.9744 101.5974,75.7004 103.1984,73.4504 C104.7964,71.2004 106.8224,68.3764 109.2734,64.9744 C111.7224,61.5764 114.4984,57.7004 117.5974,53.3494 C120.6974,49.0004 123.8984,44.5754 127.1984,40.0754 C130.4984,35.5754 133.7224,31.1264 136.8734,26.7244 C140.0234,22.3254 142.9214,18.3254 145.5734,14.7244 C148.2214,11.1254 150.4484,8.0754 152.2484,5.5754 C154.0484,3.0764 155.1974,1.4754 155.6984,0.7744 L155.6984,90.6494 L136.0484,110.6734 L136.0484,59.1254 C136.0484,58.3254 136.1464,57.4744 136.3474,56.5754 C136.5464,55.6744 136.6484,55.1264 136.6484,54.9244 L100.4984,106.9744 C99.9964,106.3754 98.7734,104.7244 96.8234,102.0244 C94.8734,99.3254 92.5484,96.1264 89.8474,92.4244 C87.1484,88.7264 84.2984,84.7514 81.2984,80.5004 C78.2984,76.2514 75.4714,72.3014 72.8234,68.6494 C70.1714,65.0014 67.9214,61.8994 66.0734,59.3494 C64.2214,56.7994 63.1974,55.3254 62.9984,54.9244 C62.9984,55.1264 63.0964,55.6744 63.2984,56.5754 C63.4984,57.4744 63.5974,58.3254 63.5974,59.1254 L63.5974,114.9244 L45.1484,114.9244 L45.1484,0.7744 Z" id="Fill-14" fill="#FEFEFE" mask="url(#mask-6)"></path>
                    </g>
                </g>
            </g>
        </g>
    </g>
</svg>