<?xml version="1.0" encoding="UTF-8"?>
<svg width="92px" height="48px" viewBox="0 0 92 48" version="1.1" xmlns="http://www.w3.org/2000/svg" xmlns:xlink="http://www.w3.org/1999/xlink">
    <!-- Generator: Sketch 47.1 (45422) - http://www.bohemiancoding.com/sketch -->
    <title>Group</title>
    <desc>Created with Sketch.</desc>
    <defs></defs>
    <g id="Page-1" stroke="none" stroke-width="1" fill="none" fill-rule="evenodd">
        <g id="lockup-primary" transform="translate(-425.000000, -18.000000)" fill-rule="nonzero">
            <g id="Group" transform="translate(425.000000, 18.000000)">
                <g transform="translate(26.000000, 1.000000)" id="Shape">
                    <path d="M37.6,16.1 C37.6,16.1 37.1,14.9 36.8,14.7 C36.5,14.5 28.1,22 28.1,22 L24.6,25.6 L24.5,26.1 L24.7,26 L24.6,26.2 L24.6,26.2 C24.6,26.2 24.9,26 25.6,25.7 L27.7,25.1 C33,22.3 34.4,21.9 38.3,19.7 C38.8,19.4 38,17 37.6,16.1" fill="#000000"></path>
                    <path d="M37.2,17.4 C36.8,16.4 36.4,15.6 36.2,15.3 C35.1,16.3 28.7,22.4 22,28.7 C22.3,28.7 23.4,26.8 28.2,24.1 C32.5,21.7 35.9,20 37.2,19.3 C37.7,19.1 37.8,19.1 37.2,17.4" fill="#FEDC00"></path>
                    <path d="M37,14 C36.7,13.6 36.4,13.9 36.4,13.9 L19.5,29.8 C19.7,29.8 19.9,29.8 20.1,29.8 C20.4,29.8 20.7,29.8 20.9,29.7 C36.1,15.3 36.9,14.6 36.9,14.6 C36.9,14.6 37.3,14.3 37,14" fill="#000000"></path>
                    <path d="M27.7,25.1 L27.5,24.9 L24.5,25.9 C24.5,25.9 24.5,25.9 24.5,25.9 L24.9,25.4 L25.6,23.5 L25,22.8 L20.2,21.2 L17.1,21.3 L15.8,21.7 L14.7,23 L14.9,26.7 L14.9,26.8 L19.5,29.8 C19.7,29.8 19.9,29.9 20.2,29.8 C21,29.8 21.7,29.5 22.3,29.1 L22.6,28.6 C22.6,28.7 22.6,28.8 22.6,28.8 C22.6,28.8 24.6,26.7 27.7,25.1" fill="#000000"></path>
                    <path d="M33.8,8.7 C33.8,8.7 35.6,11.2 35.8,12.9 C35.8,13.4 35.4,13.9 35.2,14.1 C35,14.3 34.8,15.1 36.1,16.4 C36.7,17 36.7,16.9 35.8,17.6 C34.9,18.3 29.9,21.7 28.9,22.8 C27.9,23.8 24.9,26.4 24.9,26.4 L24.8,24.2 L33.8,8.7 Z" fill="#000000"></path>
                    <path d="M34.5,14.8 C34.5,14.8 34.6,15.7 35.4,16.4 C35.8,16.7 35.6,16.9 35.2,17.2 C34.8,17.5 28.9,21.7 26.2,24.6 L24.2,26.3 L34.5,14.8 Z" fill="#000000"></path>
                    <path d="M33.7,9.8 C32.3,12.3 28.4,19.1 25.4,24.2 L24.1,26.4 C24.1,26.4 34.1,14.2 34.3,14 C34.5,13.8 35,13.1 35,12.7 C35,12.1 34.1,10.5 33.7,9.8" fill="#000000"></path>
                    <path d="M34.2,8.2 C33.8,7.9 33.6,8.3 33.6,8.3 L21.3,29.6 C22.1,29.3 22.7,28.8 23.2,28.1 L23.2,28.1 C26.5,22.4 34.2,9 34.3,8.9 C34.4,8.7 34.5,8.5 34.2,8.2" fill="#000000"></path>
                    <path d="M1.6,17.7 C1.7,17.7 3.2,15.6 4,14.9 C4.8,14.2 5.4,14.6 5.7,15 C6.1,15.4 6.6,14.8 6.5,14.4 C6.4,14 15.5,24.4 15.5,24.4 L17.3,26.6 L16.7,28 L1.5,18.2 L1.6,17.7 Z" fill="#000000"></path>
                    <path d="M6.5,15.9 C6.5,15.9 7.1,15.6 7.1,15.2 C7.2,14.8 15.1,23.8 15.1,23.8 L15.2,24.1 L6.5,15.9 Z" fill="#016938"></path>
                    <path d="M19.1,28.9 L18.8,27.9 L15.9,25.1 L5.1,15.7 C5.1,15.7 4.6,15.4 4.3,15.7 C4,16 3,17.3 2.5,17.9 C4.6,19.3 14.5,25.9 19.1,28.9" fill="#016938"></path>
                    <path d="M18.1,29.3 C18.7,29.7 19.4,29.9 20.1,29.9 C20.2,29.9 20.3,29.9 20.5,29.9 C16.1,27 1.7,17.6 1.6,17.5 C1.5,17.4 1.2,17.2 0.9,17.5 C0.6,17.9 1,18.1 1,18.1 L18.1,29.3 L18.1,29.3 Z" fill="#000000"></path>
                    <path d="M3.9,10.3 L6.1,8.7 C6.1,8.7 8.1,7.2 8.8,8.5 C9.2,9.2 10.2,8.2 10.2,8.2 L16.4,21.4 L15,23.6 L5.9,13 L3.9,10.3 Z" fill="#000000"></path>
                    <path d="M9.4,9.4 C9.4,9.4 10,9.3 10.5,9 C11,8.6 16.1,20.8 16.1,20.8 L15.9,20.8 L9.4,9.4 Z" fill="#FFFFFF"></path>
                    <path d="M18.9,27.9 L16.9,22.7 L8.3,9.5 C8.3,9.5 7.7,8.5 7.1,8.8 C6.4,9.2 5.1,10.1 4.4,10.6 C5.9,12.4 15.1,23.3 18.9,27.9" fill="#FFFFFF"></path>
                    <path d="M20.1,29.8 C20.2,29.8 20.3,29.8 20.5,29.8 C17.2,25.9 4,10.2 3.9,10 C3.8,9.9 3.6,9.6 3.2,9.8 C2.8,10.1 3.1,10.4 3.1,10.4 L19.2,29.7 C19.6,29.8 19.8,29.8 20.1,29.8" fill="#000000"></path>
                    <path d="M8.7,4.2 C8.7,4.2 9.8,3.3 13.8,2.7 C14.4,2.6 14.9,3.1 15,3.7 C15,3.8 15.1,4.7 17.7,4 C20.5,3.3 19.8,19.3 19.8,19.3 L19.9,23.9 L17.6,24.3 L8.6,4.6 L8.7,4.2 Z" fill="#000000"></path>
                    <path d="M15.2,4.8 C15.2,4.8 16,5.4 18,4.7 L19.5,18.8 L19.9,25.4 L15.2,4.8 Z" fill="#0073B5"></path>
                    <path d="M20,28.4 L19.8,25.2 L14.2,4.1 C14.2,4.1 14.1,3.3 13.2,3.5 C11.4,3.8 9.6,4.6 9.1,4.8 C10.2,7 17.2,22.2 20,28.4" fill="#0073B5"></path>
                    <path d="M20.1,29.8 C20.3,29.8 20.4,29.8 20.6,29.8 C18.5,25.3 8.8,4.1 8.8,4 C8.7,3.8 8.6,3.5 8.2,3.6 C7.8,3.8 8,4.1 8,4.1 L19.7,29.7 C19.8,29.8 20,29.8 20.1,29.8" fill="#000000"></path>
                    <path d="M27.9,3.1 C29.1,3.5 32.5,6.3 32.8,7 C33,7.3 32.9,7.7 32.6,8.3 C32.3,8.9 32.1,9.1 33.7,10.5 C34,10.7 34.9,11.2 33.9,12.4 C31,15.9 31,15.9 27.3,21 L25.1,23.4 L22.6,23.3 L27.9,3.1 Z" fill="#000000"></path>
                    <path d="M32.1,9.6 L24.1,22.7 L22.5,26.6 L33.8,11.4 C33.8,11.4 32.7,10.9 32.5,10.2 C32.3,9.5 32.1,9.6 32.1,9.6" fill="#E21F26"></path>
                    <path d="M32,7 C31.2,6 29,4.5 28.2,4 C27.5,6.6 24.9,16.6 23.1,23.5 L24,23.5 L25.8,19.2 C31,10 31.3,9.3 31.6,8.7 C31.8,8.2 32.2,7.3 32,7" fill="#E21F26"></path>
                    <path d="M28.2,2.6 C27.7,2.4 27.7,2.9 27.7,2.9 L20.5,29.9 C20.9,29.9 21.2,29.8 21.5,29.6 C22.8,24.4 28.4,3.4 28.4,3.3 C28.5,3 28.6,2.7 28.2,2.6" fill="#000000"></path>
                    <path d="M28.7,6.1 L23.6,4.7 L19.5,20.1 L20.1,28 L23.7,26.7 C24,25 25.6,18.7 26.4,15.9 C27.6,12 28.8,8.6 29.4,7.5 C30,6.4 28.7,6.1 28.7,6.1" fill="#000000"></path>
                    <path d="M28.7,7.1 C28.7,7.1 28.8,7.1 28.7,7.1 C28.6,7.1 28.6,7 28.5,7 L28.5,7 L28.5,7 L24.2,5.8 L21.1,22.2 L23.8,23.1 C24.2,21.1 25,18.1 25.7,15.6 C26.8,11.7 28.1,8.3 28.7,7.1" fill="#000000"></path>
                    <path d="M23,1.3 L18.2,0.5 L17.5,1 L19.3,20.9 L23.8,20.9 C23.8,20.9 25.4,11.2 26.2,6.8 C27.2,2 23,1.3 23,1.3" fill="#000000"></path>
                    <path d="M25.2,12.5 C25,13.6 24.8,14.7 24.7,15.7 C24.9,15.9 25.2,16.1 25.5,16.3 C25.6,16.1 25.6,15.9 25.7,15.7 C26,14.8 26.2,14 26.5,13.2 C25.9,13 25.5,12.7 25.2,12.5" fill="#FFFFFF"></path>
                    <path d="M24,19.7 C23.9,20.4 23.8,20.9 23.8,20.9 L21.3,20.9 L21.1,22.2 L23.8,23.1 C24,22.2 24.3,21 24.6,19.8 L24,19.7 Z" fill="#FFFFFF"></path>
                    <path d="M28.5,7 L28.5,7 L28.5,7 L26.3,6.4 C26.3,6.5 26.3,6.7 26.2,6.8 C26.1,7.5 25.9,8.3 25.8,9.2 C26.2,9.5 26.8,9.8 27.6,9.9 C28.1,8.7 28.4,7.7 28.7,7.2 C28.7,7.2 28.7,7.2 28.7,7.2 C28.7,7 28.6,7 28.5,7" fill="#FFFFFF"></path>
                    <path d="M25,3.5 C24.2,2.4 22.8,2.1 22.8,2.1 L18.3,1.3 C18.4,2.9 18.7,6.2 19,9.9 L19.9,20.1 L23,20.1 C23.4,17.8 24.6,10.3 25.3,6.6 C25.7,5.3 25.6,4.3 25,3.5" fill="#000000"></path>
                    <path d="M19,9.1 C19,9.4 19,9.6 19.1,9.9 L19.5,13.9 C20.1,13.8 21.3,13.6 22.4,14.1 L22.3,10 C21,9.4 19.7,9.2 19,9.1" fill="#FFFFFF"></path>
                    <path d="M18.4,1.3 C18.5,2 18.6,3.1 18.7,4.5 C19.4,4.5 20.8,4.7 22.2,5.1 L22.1,2 L18.4,1.3 Z" fill="#FFFFFF"></path>
                    <path d="M24.5,12.1 C24.7,10.7 25,9.2 25.2,8 C25,6.4 23.6,5.5 22.1,5 L22.2,9.9 C23.3,10.4 24.2,11.1 24.5,12.1" fill="#FFFFFF"></path>
                    <path d="M22.3,14.1 L22.4,20.1 L23.1,20.1 C23.2,19.3 23.5,17.9 23.8,16.2 C23.6,15.1 23,14.4 22.3,14.1" fill="#FFFFFF"></path>
                </g>
                <g id="Shape" fill="#000000">
                    <path d="M45.9,30.8 C46,30.8 46,30.8 46.1,30.8 C46.3,30.8 46.5,30.8 46.8,30.7 C46.4,25.7 44.3,1.4 44.3,1.3 C44.3,1.1 44.3,0.8 43.8,0.8 C43.3,0.8 43.4,1.2 43.4,1.2 L45.9,30.8 Z"></path>
                    <path d="M40.3,29.1 C39.5,29.1 38.7,28.7 38.3,28 L38.3,28 L38.3,28 C36.6,25.8 33.4,24.3 29.8,24.3 C28.9,24.3 28.1,24.4 27.2,24.6 L27.2,24.6 C23.6,25.3 19.1,25.6 14.3,25.6 C8.9,25.6 3.9,25.1 0.1,24.3 L0.1,24.3 C0.1,24.4 0.1,24.6 0.1,24.7 C0.1,27.7 3.1,30.2 7.4,31.3 C8.2,34.1 11.9,36.3 16.4,36.6 L16.4,36.6 L16.7,36.7 C18.1,37.1 19.9,37.4 21.8,37.3 C22,37.3 22.2,37.3 22.5,37.3 L22.5,37.4 C23.3,38.7 26,39.3 29.1,38.9 L29.1,38.9 C30.1,40 32.4,40.1 34.8,39.1 L34.8,39.1 C35.4,39.6 36.6,39.7 38,39.3 C38.2,38.1 39.2,37.2 40.4,37.2 L45.9,37.2 L45.9,35 L45.9,32 L45.9,29 L40.3,29 L40.3,29.1 Z"></path>
                </g>
                <g transform="translate(2.000000, 18.000000)">
                    <path d="M49.2,11.1 C50,11.1 50.8,10.7 51.2,10 L51.2,10 L51.2,10 C52.9,7.8 56.1,6.3 59.7,6.3 C60.6,6.3 61.4,6.4 62.3,6.6 L62.3,6.6 C65.9,7.3 70.4,7.6 75.2,7.6 C80.6,7.6 85.6,7.1 89.4,6.3 L89.4,6.3 C89.4,6.4 89.4,6.6 89.4,6.7 C89.4,9.7 86.4,12.2 82.1,13.3 C81.3,16.1 77.6,18.3 73.1,18.6 L73.1,18.6 L72.8,18.7 C71.4,19.1 69.6,19.4 67.7,19.3 C67.5,19.3 67.3,19.3 67,19.3 L67,19.4 C66.2,20.7 63.5,21.3 60.4,20.9 L60.4,20.9 C59.4,22 56.7,22 54.2,21.1 C53.1,20.7 52.5,20.3 51.4,19.4 C51.2,18.2 50.4,19.3 49.2,19.3 L43.7,19.3 L43.7,17 L43.7,14 L43.7,11 L49.2,11 L49.2,11.1 Z" id="Shape" fill="#000000"></path>
                    <path d="M87.5,7.4 C84.1,8.1 80,8.5 75.6,8.7 C70.4,8.9 65.6,8.1 61.9,7.4 C61.1,7.3 60.3,7.2 59.5,7.2 C56.1,7.2 53,8.9 51,10.8 L51,10.8 C50.6,11.2 50,11.5 49.3,11.5 L48,11.5 C47.9,12.3 47.8,13.2 47.8,14.2 C47.8,14.6 47.8,15.1 47.8,15.5 C47.8,16.4 47.8,17.3 47.9,18.2 L48.6,18.2 L48.6,18.2 L51.9,17.6 C51.8,17.2 52.3,18.5 52.2,18.1 C52.7,18.9 53.6,19.4 54.3,19.7 C56.2,20.5 58.5,20.8 59.4,20 C59,19.7 58.5,19.4 58.1,19 C57.2,18.2 56.5,17.3 56.1,16.5 L56.1,16.5 C56.8,17.5 58.3,18.6 60.2,19.2 C62.7,20.1 65.2,20 66,19 C65.3,18.6 64.5,18.1 63.8,17.5 C63.5,17.2 63.1,16.9 62.8,16.6 C63.8,17.4 65.6,18 67.7,18.2 C69.3,18.4 70.7,18.3 71.9,18 C71.6,17.9 71.2,17.9 70.9,17.8 C69.8,17.5 68.8,17 67.9,16.5 C69.3,17.1 71,17.5 72.8,17.5 C77,17.5 80.4,15.6 81.2,13 L81.2,13 C81.2,13 81.2,13 81.2,13 C80.2,13 79.2,12.8 78.1,12.6 C82.7,12.6 86.8,10.4 87.5,7.4 L87.5,7.4 C87.5,7.4 87.5,7.4 87.5,7.4" id="Shape" fill="#A5925B"></path>
                    <path d="M51.2,5.2 C50.1,2.2 48.6,0.6 46.9,0.6 L41.3,0.6 C39.6,0.6 38.1,2.2 37,5.2 C36.1,7.9 35.5,11.4 35.5,15.1 C35.5,18.7 36,22.2 36.9,24.8 C37.7,27.2 38.8,28.8 40.1,29.3 C40.1,29.3 40.7,29.5 41.4,29.5 L46.7,29.5 C46.7,29.5 46.6,29.5 46.7,29.5 C47.4,29.5 48,29.3 48,29.3 C49.3,28.7 50.4,27.2 51.2,24.8 C52.1,22.2 52.6,18.7 52.6,15.1 C52.6,11.4 52.1,7.9 51.2,5.2" id="Shape" fill="#000000"></path>
                    <path d="M46.9,1.4 L40.9,1.4 C40.7,1.4 40.4,1.4 40.2,1.5 C42.7,2.4 44.5,8.2 44.5,15.1 C44.5,22.1 42.6,27.8 40.2,28.7 C40.4,28.8 40.6,28.8 40.7,28.8 L40.7,28.8 L40.8,28.8 C40.8,28.8 40.9,28.8 40.9,28.8 C40.9,28.8 41,28.8 41,28.8 L46.8,28.8 C46.8,28.8 46.9,28.8 46.9,28.8 C46.9,28.8 47,28.8 47,28.8 L47.1,28.8 L47.1,28.8 C49.8,28.6 52,22.5 52,15 C51.9,7.5 49.7,1.4 46.9,1.4" id="Shape" fill="#A5925B"></path>
                    <path d="M45.3,14.9 C45.3,22.5 43.3,28.6 40.7,28.6 C38.1,28.6 36.1,22.5 36.1,14.9 C36.1,7.3 38.1,1.2 40.7,1.2 C43.3,1.2 45.3,7.4 45.3,14.9" id="Shape" fill="#000000"></path>
                    <path d="M44.1,5.1 C43.2,2.4 41.9,1 40.5,1 C40.3,1 40.1,1 39.9,1.1 L39.9,1.2 C40,1.2 40.1,1.2 40.2,1.3 C37.9,1.9 36.1,7.8 36.1,14.9 C36.1,22.1 38,28 40.3,28.6 C40.1,28.7 39.9,28.7 39.6,28.7 L39.6,28.8 C39.9,28.9 40.2,29 40.5,29 C41.9,29 43.1,27.5 44.1,24.9 C45,22.3 45.6,18.7 45.6,15 C45.6,11.3 45.1,7.8 44.1,5.1" id="Shape" fill="#000000"></path>
                    <path d="M44.9,14.9 C44.9,22.1 42.9,28 40.5,28 C38.1,28 36.1,22.1 36.1,14.9 C36.1,7.7 38.1,1.8 40.5,1.8 C43,1.8 44.9,7.7 44.9,14.9" id="Shape" fill="#A5925B"></path>
                    <path d="M44.3,14.7 C44.3,21.7 42.4,27.4 40.1,27.4 C37.8,27.4 35.9,21.7 35.9,14.7 C35.9,7.7 37.8,2 40.1,2 C42.4,2 44.3,7.7 44.3,14.7" id="Shape" fill="#000000"></path>
                    <path d="M42,28 L46.7,28 C46.7,28 49.2,28.3 50.4,25.1 L50.6,25.2 L49.7,27.4 L48.7,28.4 L47.3,29.1 L42.8,29.3 L40.8,29.2 L40.6,28.7 L42,28 Z" id="Shape" fill="#000000"></path>
                    <path d="M43.6,15.3 C43.6,8.4 42,2.8 40,2.8 C38,2.8 36.4,8.4 36.4,15.3 C36.4,20.9 37.5,25.7 39,27.2 L39,27.2 C39,27.2 39,27.3 39.1,27.3 C39.1,27.3 39.1,27.3 39.2,27.3 C39.2,27.3 39.2,27.3 39.2,27.3 C39.2,27.3 39.2,27.3 39.2,27.3 C39.4,27.5 39.8,27.7 40.3,27.8 L40.3,27.5 C42.1,27.2 43.6,21.8 43.6,15.3" id="Shape" fill="#A5925B"></path>
                    <path d="M41.7,14.9 C41.7,18.6 40.8,21.6 39.8,21.6 C38.8,21.6 37.9,18.6 37.9,14.9 C37.9,11.2 38.8,8.2 39.8,8.2 C40.8,8.2 41.7,11.2 41.7,14.9" id="Shape" fill="#000000"></path>
                    <path d="M39.5,11.3 L39.2,11.3 L38.6,11.3 L37.8,11.3 C36.5,11.3 35.8,10.6 35.7,10.5 C35.2,9.8 34.3,9.2 34.1,9.1 C32.4,8.1 30.4,7.4 28.2,7.4 C27.4,7.4 26.5,7.5 25.8,7.6 C22,8.2 17.3,9 12.1,8.9 C7.7,8.8 3.6,8.3 0.2,7.6 C0.9,10.5 5,12.8 9.9,12.8 C8.8,13.1 7.8,13.2 6.7,13.3 C7.5,15.8 10.9,17.8 15.1,17.8 C16.9,17.8 18.6,17.4 20,16.8 C19.1,17.3 18.1,17.8 17,18.1 C16.6,18.2 16.3,18.3 16,18.3 C17.1,18.6 18.6,18.7 20.2,18.5 C22.3,18.3 24,17.6 25.1,16.9 C24.8,17.2 24.5,17.5 24.1,17.8 C23.4,18.4 22.6,18.9 21.9,19.3 C22.7,20.3 25.1,20.4 27.7,19.5 C29.6,18.8 31.1,17.8 31.8,16.8 L31.8,16.8 C31.3,17.6 30.6,18.5 29.8,19.3 C29.4,19.7 29,20 28.5,20.3 C29.4,21.1 31.5,20.9 33.4,19.7 C34.4,19.1 35.2,18.3 35.6,17.5 C35.5,17.9 35.4,18.3 35.3,18.7 C35.1,19.4 34.8,20 34.4,20.5 C34.7,20.7 35.2,20.6 35.7,20.5 L35.7,20.5 C35.9,20.4 36.1,20.3 36.3,20.2 C36.4,20.1 37,19.7 37.2,19.4 C37.5,19.1 37.6,18.7 38.4,18.7 L39.7,18.7 L39.7,18.7 C40.2,18.6 40.6,17 40.6,15 C40.6,13 40,11.3 39.5,11.3" id="Shape" fill="#A5925B"></path>
                    <path d="M35.7,10.4 C35.8,10.6 36.5,11.2 37.8,11.2 L39.3,11.2 L39.1,10.6 L38.1,10.6 C38.1,10.6 37,10.7 36.4,9.9 C35.6,9.5 34.1,8.9 34.1,8.9 C34.1,8.9 35.1,9.6 35.7,10.4" id="Shape" fill="#000000"></path>
                    <path d="M36.1,20.1 C36.1,20.1 36.8,19.6 37,19.3 C37.3,19 37.4,18.6 38.2,18.6 C39,18.6 39.4,19.4 39.4,19.4 C39.4,19.4 38.3,19.3 37.7,20.1 C37.6,20.2 37.1,21 35.9,21.3 C35.5,21 35.6,20.8 35.6,20.8" id="Shape" fill="#000000"></path>
                    <path d="M5.6,9.3 C5.6,9.3 14.5,10.6 25.4,9.4 C33.3,8.7 34.7,11.4 34.7,11.4 C34.7,11.4 31.8,9.5 25.2,10.3 C18.6,11 8.8,10.6 5.6,9.3" id="Shape" fill="#000000"></path>
                    <path d="M82.5,9.3 C82.5,9.3 73.6,10.6 62.7,9.4 C54.8,8.7 53.4,11.4 53.4,11.4 C53.4,11.4 56.3,9.5 62.9,10.3 C69.5,11 79.3,10.6 82.5,9.3" id="Shape" fill="#000000"></path>
                    <rect id="Rectangle-path" fill="#000000" x="10.7" y="12.3" width="1" height="3.7"></rect>
                    <polygon id="Shape" fill="#000000" points="14.4 16 13.8 16 12.6 13.9 12.6 16 11.9 16 11.9 12.3 12.5 12.3 13.7 14.3 13.7 12.3 14.4 12.3"></polygon>
                    <rect id="Rectangle-path" fill="#000000" x="17.7" y="12.3" width="1" height="3.7"></rect>
                    <path d="M20.3,14.6 L20,13.3 L19.7,14.6 L20.3,14.6 Z M21.4,16 L20.7,16 L20.5,15.3 L19.5,15.3 L19.3,16 L18.6,16 L19.6,12.3 L20.4,12.3 L21.4,16 Z" id="Shape" fill="#000000"></path>
                    <polygon id="Shape" fill="#000000" points="24 16 23.4 16 22.2 13.9 22.2 16 21.6 16 21.6 12.3 22.2 12.3 23.3 14.3 23.3 12.3 24 12.3"></polygon>
                    <path d="M26,14.6 L25.7,13.3 L25.4,14.6 L26,14.6 Z M27,16 L26.3,16 L26.1,15.3 L25.1,15.3 L24.9,16 L24.2,16 L25.2,12.3 L26,12.3 L27,16 Z" id="Shape" fill="#000000"></path>
                    <polygon id="Shape" fill="#000000" points="34.8 16 33.1 16 33.1 12.3 33.8 12.3 33.8 15.1 34.8 15.1"></polygon>
                    <rect id="Rectangle-path" fill="#000000" x="35.1" y="12.3" width="1" height="3.7"></rect>
                    <path d="M31.1,15.2 C30.5,15.2 30,14.7 30,14.1 C30,13.5 30.5,13 31.1,13 C31.7,13 32.2,13.5 32.2,14.1 C32.2,14.7 31.7,15.2 31.1,15.2 M31.1,12.3 C30.1,12.3 29.3,13.1 29.3,14.1 C29.3,15.1 30.1,15.9 31.1,15.9 C32.1,15.9 32.9,15.1 32.9,14.1 C32.9,13.1 32.1,12.3 31.1,12.3" id="Shape" fill="#000000"></path>
                    <path d="M15.5,15.2 L15.5,13 C16.1,13 16.6,13.5 16.6,14.1 C16.6,14.7 16.1,15.2 15.5,15.2 M15.5,12.3 L14.8,12.3 L14.8,16 L15.5,16 C16.5,16 17.3,15.2 17.3,14.2 C17.3,13.1 16.5,12.3 15.5,12.3" id="Shape" fill="#000000"></path>
                    <path d="M38.3,14.4 C38.3,14.4 38.3,14.4 38.3,14.4 L38.3,14.4 C38.3,14.4 38.3,14.4 38.3,14.4 L38.3,14.4 C38.2,14.3 38.2,14.2 38.1,14.1 C37.9,13.9 37.7,13.8 37.5,13.7 C37.3,13.6 37,13.6 37,13.3 C37,13.1 37,13 37.1,12.9 C37.2,12.8 37.4,12.8 37.5,12.8 C37.8,12.9 38,13.1 38.2,13.3 L38.2,13.3 L38.2,12.4 L38.2,12.4 C37.9,12.1 37.3,12 36.9,12.1 C36.7,12.2 36.5,12.3 36.4,12.4 C36.3,12.6 36.2,12.8 36.2,13 C36.2,13.4 36.3,13.7 36.5,14 C36.6,14.1 36.7,14.2 36.9,14.2 C37,14.3 37.2,14.3 37.3,14.3 C37.4,14.3 37.6,14.4 37.6,14.6 C37.7,14.7 37.7,14.9 37.6,15 C37.5,15.2 37.2,15.2 37,15.2 C36.7,15.1 36.4,14.9 36.2,14.7 L36.2,14.7 L36.2,15.6 L36.2,15.6 C36.6,15.9 37.1,16.1 37.5,16 C37.7,16 37.9,15.9 38.1,15.7 C38.2,15.5 38.3,15.3 38.4,15.1 C38.4,14.9 38.4,14.7 38.3,14.4" id="Shape" fill="#000000"></path>
                    <path d="M28.1,13.9 C28.1,13.9 28.1,13.9 28.1,13.9 L28.1,13.9 L27.9,13.9 L27.9,13.8 L27.9,13 L27.9,12.9 L28.1,12.9 L28.1,12.9 C28.1,12.9 28.1,12.9 28.1,12.9 C28.3,12.9 28.5,13.1 28.5,13.4 C28.5,13.7 28.4,13.9 28.1,13.9 M28.1,12.3 L27.9,12.3 L27.7,12.3 L27.2,12.3 L27.2,16 L27.9,16 L27.9,14.6 L28.1,14.6 C28.1,14.6 28.1,14.6 28.1,14.6 C28.7,14.6 29.2,14.1 29.2,13.4 C29.2,12.7 28.7,12.3 28.1,12.3" id="Shape" fill="#000000"></path>
                    <polygon id="Shape" fill="#000000" points="61.8 16 60 16 60 12.3 61.8 12.3 61.8 13 60.8 13 60.8 13.7 61.7 13.7 61.7 14.4 60.8 14.4 60.8 15.2 61.8 15.2"></polygon>
                    <polygon id="Shape" fill="#000000" points="64.1 16 62.3 16 62.3 12.3 64.1 12.3 64.1 13 63 13 63 13.7 64 13.7 64 14.4 63 14.4 63 15.2 64.1 15.2"></polygon>
                    <polygon id="Shape" fill="#000000" points="71.3 12.3 70.2 16 69.8 16 69.2 13.8 68.6 16 68.2 16 67.2 12.3 67.9 12.3 68.4 14.3 69 12.3 69.5 12.3 70 14.3 70.5 12.3"></polygon>
                    <path d="M72.9,14.6 L72.6,13.3 L72.3,14.6 L72.9,14.6 Z M74,16 L73.3,16 L73.1,15.3 L72.1,15.3 L71.9,16 L71.2,16 L72.2,12.3 L73,12.3 L74,16 Z" id="Shape" fill="#000000"></path>
                    <polygon id="Shape" fill="#000000" points="76.2 12.3 75.3 14.3 75.3 16 74.6 16 74.6 14.3 73.7 12.3 74.4 12.3 74.9 13.4 75.5 12.3"></polygon>
                    <path d="M65.3,15.2 L65.3,13 C65.9,13 66.4,13.5 66.4,14.1 C66.4,14.7 65.9,15.2 65.3,15.2 M65.3,12.3 L64.6,12.3 L64.6,16 L65.3,16 C66.3,16 67.1,15.2 67.1,14.2 C67.1,13.1 66.3,12.3 65.3,12.3" id="Shape" fill="#000000"></path>
                    <path d="M57.1,14.4 C57.1,14.4 57.1,14.4 57.1,14.4 L57.1,14.4 C57.1,14.4 57.1,14.4 57.1,14.4 L57.1,14.4 C57,14.3 57,14.2 56.9,14.1 C56.7,13.9 56.5,13.8 56.3,13.7 C56.1,13.6 55.8,13.6 55.8,13.3 C55.8,13.1 55.8,13 55.9,12.9 C56,12.8 56.2,12.8 56.3,12.8 C56.6,12.9 56.8,13.1 57.1,13.3 L57.1,13.3 L57.1,12.4 L57.1,12.4 C56.7,12.1 56.2,12 55.8,12.1 C55.6,12.2 55.4,12.3 55.3,12.4 C55.2,12.6 55.1,12.8 55.1,13 C55.1,13.4 55.2,13.7 55.4,14 C55.5,14.1 55.6,14.2 55.8,14.2 C55.9,14.3 56.1,14.3 56.3,14.3 C56.4,14.3 56.6,14.4 56.6,14.6 C56.7,14.7 56.7,14.9 56.6,15 C56.5,15.2 56.2,15.2 56,15.2 C55.7,15.1 55.4,14.9 55.2,14.7 L55.2,14.7 L55.2,15.6 L55.2,15.6 C55.6,15.9 56.1,16.1 56.6,16 C56.8,16 57,15.9 57.2,15.7 C57.4,15.5 57.4,15.3 57.5,15.1 C57.3,14.9 57.2,14.7 57.1,14.4" id="Shape" fill="#000000"></path>
                    <path d="M58.6,13.9 C58.6,13.9 58.6,13.9 58.6,13.9 L58.4,13.9 L58.4,13.8 L58.4,13 L58.4,12.9 L58.6,12.9 L58.6,12.9 C58.6,12.9 58.6,12.9 58.6,12.9 C58.8,12.9 59,13.1 59,13.4 C59,13.7 58.8,13.9 58.6,13.9 M58.6,12.3 L58.4,12.3 L58.2,12.3 L57.7,12.3 L57.7,16 L58.4,16 L58.4,14.6 L58.6,14.6 C58.6,14.6 58.6,14.6 58.6,14.6 C59.2,14.6 59.8,14.1 59.8,13.4 C59.7,12.8 59.2,12.3 58.6,12.3" id="Shape" fill="#000000"></path>
                    <polygon id="Shape" fill="#000000" points="61.8 16 60 16 60 12.3 61.8 12.3 61.8 13 60.8 13 60.8 13.7 61.7 13.7 61.7 14.4 60.8 14.4 60.8 15.2 61.8 15.2"></polygon>
                    <polygon id="Shape" fill="#000000" points="64.1 16 62.3 16 62.3 12.3 64.1 12.3 64.1 13 63 13 63 13.7 64 13.7 64 14.4 63 14.4 63 15.2 64.1 15.2"></polygon>
                    <polygon id="Shape" fill="#000000" points="71.3 12.3 70.2 16 69.8 16 69.2 13.8 68.6 16 68.2 16 67.2 12.3 67.9 12.3 68.4 14.3 69 12.3 69.5 12.3 70 14.3 70.5 12.3"></polygon>
                    <path d="M72.9,14.6 L72.6,13.3 L72.3,14.6 L72.9,14.6 Z M74,16 L73.3,16 L73.1,15.3 L72.1,15.3 L71.9,16 L71.2,16 L72.2,12.3 L73,12.3 L74,16 Z" id="Shape" fill="#000000"></path>
                    <polygon id="Shape" fill="#000000" points="76.2 12.3 75.3 14.3 75.3 16 74.6 16 74.6 14.3 73.7 12.3 74.4 12.3 74.9 13.4 75.5 12.3"></polygon>
                    <path d="M65.3,15.2 L65.3,13 C65.9,13 66.4,13.5 66.4,14.1 C66.4,14.7 65.9,15.2 65.3,15.2 M65.3,12.3 L64.6,12.3 L64.6,16 L65.3,16 C66.3,16 67.1,15.2 67.1,14.2 C67.1,13.1 66.3,12.3 65.3,12.3" id="Shape" fill="#000000"></path>
                    <path d="M57.1,14.4 C57.1,14.4 57.1,14.4 57.1,14.4 L57.1,14.4 C57.1,14.4 57.1,14.4 57.1,14.4 L57.1,14.4 C57,14.3 57,14.2 56.9,14.1 C56.7,13.9 56.5,13.8 56.3,13.7 C56.1,13.6 55.8,13.6 55.8,13.3 C55.8,13.1 55.8,13 55.9,12.9 C56,12.8 56.2,12.8 56.3,12.8 C56.6,12.9 56.8,13.1 57.1,13.3 L57.1,13.3 L57.1,12.4 L57.1,12.4 C56.7,12.1 56.2,12 55.8,12.1 C55.6,12.2 55.4,12.3 55.3,12.4 C55.2,12.6 55.1,12.8 55.1,13 C55.1,13.4 55.2,13.7 55.4,14 C55.5,14.1 55.6,14.2 55.8,14.2 C55.9,14.3 56.1,14.3 56.3,14.3 C56.4,14.3 56.6,14.4 56.6,14.6 C56.7,14.7 56.7,14.9 56.6,15 C56.5,15.2 56.2,15.2 56,15.2 C55.7,15.1 55.4,14.9 55.2,14.7 L55.2,14.7 L55.2,15.6 L55.2,15.6 C55.6,15.9 56.1,16.1 56.6,16 C56.8,16 57,15.9 57.2,15.7 C57.4,15.5 57.4,15.3 57.5,15.1 C57.3,14.9 57.2,14.7 57.1,14.4" id="Shape" fill="#000000"></path>
                    <path d="M58.6,13.9 C58.6,13.9 58.6,13.9 58.6,13.9 L58.4,13.9 L58.4,13.8 L58.4,13 L58.4,12.9 L58.6,12.9 L58.6,12.9 C58.6,12.9 58.6,12.9 58.6,12.9 C58.8,12.9 59,13.1 59,13.4 C59,13.7 58.8,13.9 58.6,13.9 M58.6,12.3 L58.4,12.3 L58.2,12.3 L57.7,12.3 L57.7,16 L58.4,16 L58.4,14.6 L58.6,14.6 C58.6,14.6 58.6,14.6 58.6,14.6 C59.2,14.6 59.8,14.1 59.8,13.4 C59.7,12.8 59.2,12.3 58.6,12.3" id="Shape" fill="#000000"></path>
                    <polygon id="Shape" fill="#000000" points="62.5 18.7 62.3 18.7 62.3 19.4 62.1 19.4 62.1 18.7 61.8 18.7 61.8 18.5 62.5 18.5"></polygon>
                    <polygon id="Shape" fill="#000000" points="63.5 19.4 63.2 19.4 63.2 18.9 63.1 19.2 63 19.2 62.9 18.9 62.9 19.4 62.7 19.4 62.7 18.5 62.8 18.5 63.1 18.8 63.3 18.5 63.5 18.5"></polygon>
                    <path d="M48.1,4.6 C48,5 47.9,5.5 47.8,5.9 C47.8,6 47.7,6.2 47.7,6.3 C47.6,6.2 47.4,6 47.3,5.9 C46.9,5.4 46.4,5 45.9,4.6 L45.2,4.6 C45.7,5.8 46.1,7 46.4,8.2 L47.2,8.2 C47,7.5 46.8,6.8 46.6,6.1 C47,6.5 47.4,7 47.8,7.4 L48.2,7.4 C48.3,7 48.5,6.5 48.6,6.1 C48.8,6.8 49.1,7.5 49.2,8.2 L50,8.2 C49.7,7 49.3,5.8 48.8,4.6 L48.1,4.6 Z" id="Shape" fill="#000000"></path>
                    <path d="M50.8,14 L49.4,14 C49.4,14.9 49.4,15.9 49.4,16.8 L48.6,16.8 C48.7,15.9 48.7,14.9 48.6,14 L47.2,14 C47.2,13.7 47.2,13.4 47.1,13.1 L50.7,13.1 C50.7,13.4 50.8,13.7 50.8,14" id="Shape" fill="#000000"></path>
                    <path d="M48,23.5 C48,23.5 48,23.5 48,23.5 L48,23.5 L48,23.5 L48,23.5 L47,23.5 C47.1,23.2 47.2,22.8 47.3,22.5 L48.2,22.5 L48.2,22.5 L48.2,22.5 C48.2,22.5 48.2,22.5 48.2,22.5 C48.5,22.5 48.7,22.7 48.6,23 C48.6,23.3 48.3,23.5 48,23.5 M48.9,24.7 C48.9,24.4 48.9,24.2 48.9,24.1 C48.9,24 48.8,23.9 48.7,23.8 C49.1,23.6 49.5,23.3 49.6,22.9 C49.8,22.3 49.3,21.8 48.6,21.8 L47.5,21.8 L46.9,21.8 L46.6,21.8 C46.3,23 45.9,24.2 45.4,25.4 L46.3,25.4 C46.5,25 46.7,24.5 46.8,24.1 L47.5,24.1 L47.6,24.1 C47.7,24.1 47.8,24.1 47.8,24.1 C47.9,24.1 47.9,24.2 47.9,24.3 C47.9,24.4 47.9,24.6 47.9,24.8 C47.9,25 47.9,25.2 47.9,25.4 L48.8,25.4 C48.9,25.2 48.9,25 48.9,24.7" id="Shape" fill="#000000"></path>
                    <path d="M49.7,11.2 C49.7,11.4 49.6,11.5 49.4,11.5 L48.1,11.5 C47.9,11.5 47.7,11.3 47.7,11.2 C47.6,10.7 47.5,10.2 47.4,9.7 C47.4,9.5 47.5,9.4 47.7,9.4 L49,9.4 C49.2,9.4 49.4,9.6 49.4,9.7 C49.6,10.2 49.7,10.7 49.7,11.2 M49.8,8.9 C49.5,8.7 49.2,8.7 48.9,8.6 L47.7,8.6 C47.4,8.6 47.1,8.7 46.9,8.9 C46.7,9.1 46.6,9.3 46.7,9.5 C46.8,10.2 46.9,10.8 47,11.5 C47,11.7 47.2,11.9 47.4,12.1 C47.7,12.3 47.9,12.4 48.3,12.4 L49.5,12.4 C49.8,12.4 50.1,12.3 50.3,12.1 C50.5,11.9 50.6,11.7 50.6,11.5 C50.5,10.8 50.4,10.2 50.3,9.5 C50.2,9.3 50,9.1 49.8,8.9" id="Shape" fill="#000000"></path>
                    <path d="M49.6,20.1 C49.6,20.3 49.4,20.4 49.2,20.4 L47.9,20.4 C47.7,20.4 47.6,20.2 47.6,20.1 C47.7,19.6 47.8,19.1 47.8,18.6 C47.8,18.4 48,18.3 48.2,18.3 L49.5,18.3 C49.7,18.3 49.8,18.5 49.8,18.6 C49.7,19.1 49.7,19.6 49.6,20.1 M50.4,17.7 C50.2,17.5 49.9,17.4 49.6,17.4 L48.4,17.4 C48.1,17.4 47.8,17.5 47.5,17.7 C47.2,17.9 47.1,18.1 47.1,18.3 C47,19 46.9,19.6 46.8,20.3 C46.8,20.5 46.8,20.7 47,20.9 C47.2,21.1 47.5,21.2 47.8,21.2 L49,21.2 C49.3,21.2 49.6,21.1 49.9,20.9 C50.2,20.7 50.3,20.5 50.4,20.3 C50.5,19.6 50.6,19 50.7,18.3 C50.7,18.1 50.6,17.9 50.4,17.7" id="Shape" fill="#000000"></path>
                </g>
            </g>
        </g>
    </g>
</svg>
