<?xml version="1.0" encoding="UTF-8"?>
<svg width="94px" height="40px" viewBox="0 0 94 40" version="1.1" xmlns="http://www.w3.org/2000/svg" xmlns:xlink="http://www.w3.org/1999/xlink">
    <!-- Generator: Sketch 47.1 (45422) - http://www.bohemiancoding.com/sketch -->
    <title>Group</title>
    <desc>Created with Sketch.</desc>
    <defs></defs>
    <g id="Page-1" stroke="none" stroke-width="1" fill="none" fill-rule="evenodd">
        <g id="lockup-primary" transform="translate(-546.000000, -22.000000)" fill-rule="nonzero">
            <g id="Group" transform="translate(546.000000, 22.000000)">
                <path d="M92.9,11.3 L93.6,9.3 C93.8,8.7 93.8,8 93.4,7.6 C93.1,7.1 92.5,6.9 91.9,6.9 L71.4,6.9 L77,1.7 C77.4,1.3 77.1,0.7 76.6,0.7 L26.3,0.7 C25.8,0.7 25.5,1.2 25.8,1.6 L26.5,2.7 L25,6.9 L7.3,6.9 C6.8,6.9 6.3,7.2 6.1,7.7 L4.7,11.6 L1,11.6 C0.6,11.6 0.3,12 0.4,12.4 L0.6,13.2 C1.2,15 2.8,16.4 4.6,16.8 L4.8,17.3 C5.4,19.1 7,20.5 8.8,20.9 L9,21.4 C9.7,23.5 11.8,25.1 14,25.1 L18.5,25.1 L17.5,27.9 C17.3,28.4 17.2,28.9 17.2,29.3 C17.2,30.6 17.9,31.6 19.2,32.2 C20.2,32.7 21.7,32.9 23.6,32.9 L31.7,32.9 L31.7,32.9 L39.5,32.9 L38.8,34.8 C38.7,35.2 38.9,35.6 39.4,35.6 L51.4,35.6 C51.5,37 52.6,38.1 54,38.1 L74.1,38.1 L74.1,38.8 C74.1,39.1 74.4,39.4 74.7,39.4 L84.5,39.4 C84.8,39.4 85.1,39.1 85.1,38.8 L85.1,38.1 L88,38.1 C88.3,38.1 88.6,37.8 88.6,37.5 L88.6,33 C88.6,32.7 88.3,32.4 88,32.4 L86,32.4 C85.7,32.4 84,32.4 84,32.4 C84.4,32.3 84.8,32.1 85.1,31.9 C86.7,31.1 87.9,29.6 88.6,27.6 L92.4,17.1 C92.7,16.3 92.8,15.7 92.8,15.1 C92.8,14.4 92.6,13.3 91.5,12.5 C92.2,12.4 92.6,11.9 92.9,11.3" id="Shape" fill="#FFFFFF"></path>
                <path d="M31.7,23 C32.3,23 32.6,23.2 32.6,23.7 C32.6,23.9 32.6,24.1 32.5,24.3 L31.8,26.1 C31.8,26.2 31.8,26.2 31.7,26.3 L41.7,26.3 L43,22.7 C43.2,22.2 43.3,21.7 43.3,21.3 C43.3,19.4 41.5,18.4 38,18.4 C36.1,18.4 34,18.7 31.8,19.4 L31.8,19.4 L32.6,17.1 L45,17.1 L46.6,12.8 L24,12.8 L20,23.9 L30.2,23.9 C30.6,23.3 31.2,23 31.7,23" id="Shape" fill="#002E6D"></path>
                <path d="M43,26.3 L52.7,26.3 C52.7,26.3 52.7,26.2 52.7,26.2 L55.6,18.4 C55.9,17.5 56.5,17 57.3,17 C57.7,17 58,17.1 58.1,17.3 C58.2,17.5 58.2,17.8 58,18.3 L55.1,26.1 C55.1,26.1 55.1,26.2 55.1,26.2 L64.8,26.2 L68.3,16.7 C68.5,16.1 68.6,15.6 68.6,15.1 C68.6,14.1 68,13.3 66.8,13 C66.1,12.8 65.1,12.7 63.7,12.7 L53.7,12.7 C51.9,12.7 50.4,13 49.3,13.5 C47.9,14.1 47,15.2 46.4,16.7 L43,26.3 Z" id="Shape" fill="#002E6D"></path>
                <path d="M75.8,26.2 L78.7,18.4 C79,17.5 79.6,17 80.4,17 C80.8,17 81.1,17.1 81.2,17.3 C81.3,17.5 81.3,17.8 81.1,18.3 L83.2,13.7 L79.3,12.7 L76.9,12.7 C75.1,12.7 73.6,13 72.5,13.5 C71.1,14.1 70.2,15.2 69.6,16.7 L66.1,26.2 L75.8,26.2 C75.8,26.3 75.8,26.3 75.8,26.2" id="Shape" fill="#002E6D"></path>
                <path d="M78.3,26.2 C78,27.1 77.4,27.5 76.6,27.5 L30,27.5 C30,27.5 30,27.5 30,27.5 C29.4,27.5 29.1,27.2 29.2,26.6 L26.6,30.5 L31.6,31.7 L72.7,31.7 L78.7,30.2 L78.3,26.2 Z" id="Shape" fill="#002E6D"></path>
                <path d="M22.8,12.8 L1.8,12.8 C2.3,14.4 4,15.7 5.6,15.7 L21.7,15.7 L22.8,12.8 Z" id="Shape" fill="#002E6D"></path>
                <path d="M21.3,16.9 L5.9,16.9 C6.4,18.5 8.1,19.8 9.7,19.8 L20.2,19.8 L21.3,16.9 Z" id="Shape" fill="#002E6D"></path>
                <path d="M19.8,21 L10,21 C10.5,22.6 12.2,23.9 13.8,23.9 L18.7,23.9 L19.8,21 Z" id="Shape" fill="#002E6D"></path>
                <path d="M40.7,34 L40.6,34 L40.4,34.6 L40,34.6 L40.6,33.1 L41.1,33.1 C41.3,33.1 41.4,33.2 41.3,33.4 L41.2,33.7 C41.1,33.9 40.9,34 40.7,34 L40.7,34 Z M41,33.4 C41,33.3 41,33.3 41,33.4 L40.9,33.3 L40.7,33.7 L40.8,33.7 C40.8,33.7 40.9,33.7 40.9,33.6 L41,33.4 Z" id="Shape" fill="#99A4AE"></path>
                <path d="M41.6,34.5 C41.5,34.5 41.6,34.4 41.6,34.3 L41.7,34 C41.7,34 41.7,33.9 41.7,33.9 L41.6,33.9 L41.4,34.5 L41,34.5 L41.6,33 L42.1,33 C42.3,33 42.4,33.1 42.3,33.3 L42.2,33.6 C42.2,33.7 42.1,33.8 42,33.8 C42.1,33.8 42.1,33.9 42.1,34 L42,34.3 C42,34.4 42,34.5 42,34.5 L42,34.5 L41.6,34.5 Z M42,33.4 C42,33.3 42,33.3 42,33.4 L41.9,33.3 L41.8,33.7 L41.9,33.7 C41.9,33.7 42,33.7 42,33.6 L42,33.4 Z" id="Shape" fill="#99A4AE"></path>
                <polygon id="Shape" fill="#99A4AE" points="42.1 34.5 42.6 33 43.4 33 43.3 33.3 42.9 33.3 42.8 33.6 43 33.6 42.9 33.9 42.7 33.9 42.5 34.2 42.9 34.2 42.8 34.5"></polygon>
                <path d="M43.4,34.6 C43.1,34.6 43,34.5 43.1,34.2 L43.1,34.1 L43.4,34.1 L43.4,34.2 C43.4,34.3 43.4,34.3 43.5,34.3 C43.6,34.3 43.6,34.3 43.6,34.2 C43.6,34.1 43.6,34 43.5,33.9 C43.4,33.8 43.3,33.6 43.4,33.4 C43.5,33.2 43.7,33 44,33 C44.2,33 44.3,33.2 44.2,33.4 L44.2,33.5 L43.9,33.5 L43.9,33.4 C43.9,33.3 43.9,33.3 43.9,33.3 C43.9,33.3 43.8,33.3 43.8,33.4 C43.8,33.5 43.8,33.6 43.9,33.7 C44,33.8 44.1,34 44,34.2 C43.9,34.4 43.6,34.6 43.4,34.6" id="Shape" fill="#99A4AE"></path>
                <polygon id="Shape" fill="#99A4AE" points="44 34.5 44.5 33 45.3 33 45.2 33.3 44.8 33.3 44.7 33.6 44.9 33.6 44.8 33.9 44.6 33.9 44.5 34.2 44.8 34.2 44.7 34.5"></polygon>
                <polygon id="Shape" fill="#99A4AE" points="45.5 34.5 45.5 34 45.5 33.8 45.2 34.5 44.9 34.5 45.5 33 45.8 33 45.8 33.6 45.8 33.8 46.1 33 46.4 33 45.8 34.5"></polygon>
                <polygon id="Shape" fill="#99A4AE" points="47 33.3 46.6 34.5 46.2 34.5 46.7 33.3 46.4 33.3 46.5 33 47.4 33 47.3 33.3"></polygon>
                <polygon id="Shape" fill="#99A4AE" points="47 34.5 47.5 33 48.3 33 48.2 33.3 47.8 33.3 47.6 33.6 47.9 33.6 47.8 33.9 47.6 33.9 47.4 34.2 47.8 34.2 47.7 34.5"></polygon>
                <path d="M48.3,34.5 L47.9,34.5 L48.5,33 L48.9,33 C49.2,33 49.3,33.2 49.2,33.4 L48.9,34.1 C48.8,34.4 48.6,34.5 48.3,34.5 L48.3,34.5 Z M48.8,33.4 C48.8,33.3 48.8,33.3 48.7,33.3 L48.6,33.3 L48.3,34.2 L48.4,34.2 C48.5,34.2 48.5,34.2 48.5,34.1 L48.8,33.4 Z" id="Shape" fill="#99A4AE"></path>
                <path d="M49.8,34.5 L49.3,34.5 L49.9,33 L50.4,33 C50.6,33 50.7,33.1 50.6,33.3 L50.5,33.5 C50.5,33.6 50.4,33.7 50.2,33.7 C50.3,33.7 50.3,33.8 50.3,33.9 L50.2,34.1 C50.2,34.4 50,34.5 49.8,34.5 L49.8,34.5 Z M50,34 C50,33.9 50,33.9 50,34 L49.9,33.9 L49.8,34.3 L49.9,34.3 C49.9,34.3 50,34.3 50,34.2 L50,34 Z M50.2,33.4 C50.3,33.3 50.2,33.3 50.2,33.4 L50.1,33.3 L50,33.7 L50.1,33.7 C50.1,33.7 50.2,33.7 50.2,33.6 L50.2,33.4 Z" id="Shape" fill="#99A4AE"></path>
                <polygon id="Shape" fill="#99A4AE" points="51.1 33.9 50.9 34.5 50.6 34.5 50.8 33.9 50.8 33 51.2 33 51.1 33.5 51.4 33 51.8 33"></polygon>
                <path d="M51.3,34.5 L51.4,34.2 L51.7,34.2 L51.6,34.5 L51.3,34.5 Z M51.5,33.8 L51.6,33.5 L51.9,33.5 L51.8,33.8 L51.5,33.8 Z" id="Shape" fill="#99A4AE"></path>
                <path d="M57.8,33 L56.9,33 L54.3,33 C54.5,33.4 54.9,34.1 55.1,34.4 L55.1,34.4 L55.1,34.4 C55.1,34.5 55.2,34.5 55.2,34.6 C55.4,34.9 55.5,35.2 55.5,35.6 C55.5,36.2 55.2,36.6 54.8,37 L56.9,37 L57.8,33 Z" id="Shape" fill="#DD0031"></path>
                <path d="M54.9,34.6 C54.5,34 53.8,32.7 53.8,32.7 C53.8,32.7 53.1,34.1 52.8,34.6 C52.6,34.9 52.4,35.2 52.4,35.6 C52.4,36.4 53,37 53.8,37 C54.6,37 55.2,36.4 55.2,35.6 C55.3,35.2 55.1,35 54.9,34.6" id="Shape" fill="#231F20"></path>
                <path d="M58.4,33 L60.7,33 C60.9,33 61.1,33 61.2,33.1 C61.4,33.1 61.5,33.2 61.6,33.3 C61.7,33.4 61.8,33.5 61.9,33.7 C62,33.9 62,34.1 62,34.3 C62,34.6 62,34.8 61.9,35 C61.8,35.2 61.7,35.3 61.6,35.4 C61.5,35.5 61.3,35.6 61.2,35.6 C61,35.6 60.9,35.7 60.7,35.7 L59.3,35.7 L59.3,37 L58.4,37 L58.4,33 Z M60.7,35 C60.8,35 60.8,35 60.9,35 C61,35 61,34.9 61,34.9 C61,34.9 61.1,34.8 61.1,34.7 C61.1,34.6 61.1,34.5 61.1,34.4 C61.1,34.2 61.1,34.1 61,34 C60.9,33.9 60.8,33.9 60.7,33.9 L59.3,33.9 L59.3,35 L60.7,35 Z" id="Shape" fill="#DD0031"></path>
                <path d="M62.9,36.9 C62.7,36.8 62.6,36.7 62.5,36.6 C62.4,36.5 62.3,36.3 62.2,36.1 C62.1,35.9 62.1,35.6 62.1,35.3 C62.1,35 62.1,34.7 62.2,34.5 C62.3,34.3 62.4,34.1 62.5,34 C62.6,33.9 62.8,33.8 62.9,33.7 C63.1,33.6 63.3,33.6 63.4,33.6 L64.6,33.6 L64.6,34.2 L63.5,34.2 C63.4,34.2 63.3,34.2 63.2,34.2 C63.1,34.2 63,34.3 63,34.3 C62.9,34.4 62.9,34.4 62.8,34.5 C62.8,34.6 62.7,34.7 62.7,34.8 L64.6,34.8 L64.6,35.4 L62.7,35.4 C62.7,35.5 62.8,35.6 62.8,35.7 C62.8,35.8 62.9,35.9 63,35.9 C63.1,36 63.1,36 63.2,36 C63.3,36 63.4,36 63.5,36 L64.6,36 L64.6,37 L63.4,37 C63.3,37 63.1,37 62.9,36.9" id="Shape" fill="#DD0031"></path>
                <polygon id="Shape" fill="#DD0031" points="65.1 33.7 65.9 33.7 67.1 35.9 67.1 33.7 67.9 33.7 67.9 37 67 37 65.8 34.8 65.8 37 65.1 37"></polygon>
                <polygon id="Shape" fill="#DD0031" points="68.2 33.7 69.1 33.7 70.3 35.9 70.3 33.7 71.1 33.7 71.1 37 70.2 37 69 34.8 69 37 68.2 37"></polygon>
                <path d="M72.2,36.9 C72,36.8 71.8,36.7 71.7,36.6 C71.5,36.4 71.4,36.2 71.3,36 C71.2,35.8 71.2,35.4 71.2,35.1 C71.2,34.7 71.2,34.4 71.3,34.2 C71.4,33.9 71.5,33.7 71.7,33.6 C71.9,33.4 72,33.3 72.2,33.3 C72.4,33.2 72.6,33.2 72.9,33.2 L74.8,33.2 L74.8,34 L73,34 C72.9,34 72.8,34 72.6,34.1 C72.5,34.1 72.4,34.2 72.3,34.3 C72.2,34.4 72.1,34.5 72.1,34.7 C72.1,34.9 72,35 72,35.3 C72,35.5 72,35.7 72.1,35.9 C72.1,36.1 72.2,36.2 72.3,36.3 C72.4,36.4 72.5,36.5 72.6,36.5 C72.7,36.5 72.8,36.6 73,36.6 L73.9,36.6 L73.9,35.8 L73.1,35.8 L73.1,35 L74.7,35 L74.7,37 L72.8,37 C72.7,37 72.4,37 72.2,36.9" id="Shape" fill="#231F20"></path>
                <path d="M80.1,33.7 L79.4,33.7 L78.1,36.7 L77.5,35.7 C77.6,35.7 77.7,35.6 77.8,35.6 C77.9,35.6 78,35.5 78,35.4 C78.1,35.3 78.1,35.2 78.2,35.1 C78.2,35 78.3,34.9 78.3,34.7 C78.3,34.5 78.3,34.4 78.2,34.2 C78.1,34.1 78.1,34 78,33.9 C77.9,33.8 77.8,33.8 77.7,33.7 C77.6,33.7 77.4,33.6 77.3,33.6 L75.4,33.6 L75.4,37 L76.1,37 L76.1,35.8 L76.9,35.8 L77.6,37 L79,37 L79.3,36.4 L80.8,36.4 L81.1,37 L81.9,37 L80.1,33.7 Z M77.3,35 C77.2,35.1 77.2,35.1 77.1,35.1 L75.9,35.1 L75.9,34.3 L77.1,34.3 C77.2,34.3 77.3,34.3 77.3,34.4 C77.4,34.5 77.4,34.5 77.4,34.7 C77.4,34.9 77.4,35 77.3,35 L77.3,35 Z M79.2,35.7 L79.7,34.6 C79.8,34.8 79.9,35 79.9,35.2 C80,35.4 80.1,35.6 80.1,35.8 L79.2,35.8 L79.2,35.7 Z" id="Shape" fill="#231F20"></path>
                <path d="M81.5,33.7 L83.1,33.7 C83.3,33.7 83.5,33.7 83.6,33.8 C83.8,33.9 83.9,34 84,34.1 C84.1,34.2 84.2,34.4 84.3,34.6 C84.4,34.8 84.4,35.1 84.4,35.4 C84.4,35.7 84.4,36 84.3,36.2 C84.2,36.4 84.1,36.6 84,36.7 C83.9,36.8 83.7,36.9 83.6,37 C83.4,37.1 83.2,37.1 83.1,37.1 L81.5,37.1 L81.5,33.7 Z M83,36.4 C83.1,36.4 83.2,36.4 83.3,36.4 C83.4,36.4 83.5,36.3 83.5,36.2 C83.6,36.1 83.6,36 83.7,35.9 C83.7,35.8 83.8,35.6 83.8,35.4 C83.8,35.2 83.8,35 83.7,34.9 C83.7,34.8 83.6,34.7 83.5,34.6 C83.4,34.5 83.3,34.5 83.3,34.4 C83.2,34.4 83.1,34.4 83,34.4 L82.2,34.4 L82.2,36.4 L83,36.4 Z" id="Shape" fill="#231F20"></path>
                <path d="M85.5,36.9 C85.3,36.8 85.2,36.7 85.1,36.6 C85,36.5 84.9,36.3 84.8,36.1 C84.7,35.9 84.7,35.6 84.7,35.3 C84.7,35 84.7,34.7 84.8,34.5 C84.9,34.3 85,34.1 85.1,34 C85.2,33.9 85.4,33.8 85.5,33.7 C85.7,33.6 85.9,33.6 86,33.6 L87.2,33.6 L87.2,34.2 L86.1,34.2 C86,34.2 85.9,34.2 85.8,34.2 C85.7,34.2 85.6,34.3 85.6,34.3 C85.5,34.4 85.5,34.4 85.4,34.5 C85.4,34.6 85.3,34.7 85.3,34.8 L87.2,34.8 L87.2,35.4 L85.3,35.4 C85.3,35.5 85.4,35.6 85.4,35.7 C85.4,35.8 85.5,35.9 85.6,35.9 C85.7,36 85.7,36 85.8,36 C85.9,36 86,36 86.1,36 L87.2,36 L87.2,37 L86,37 C85.8,37 85.7,37 85.5,36.9" id="Shape" fill="#231F20"></path>
                <polygon id="Shape" fill="#231F20" points="76.1 38.7 76.1 38.1 75.9 38.4 75.7 38.4 75.5 38.1 75.5 38.7 75.1 38.7 75.1 37.4 75.5 37.4 75.8 38 76.1 37.4 76.4 37.4 76.4 38.7"></polygon>
                <path d="M77.4,38.6 C77.3,38.7 77.2,38.7 77,38.7 C76.8,38.7 76.7,38.7 76.6,38.6 C76.5,38.5 76.5,38.3 76.5,38.1 C76.5,37.9 76.5,37.7 76.6,37.6 C76.7,37.5 76.8,37.5 77,37.5 C77.2,37.5 77.3,37.5 77.4,37.6 C77.5,37.7 77.5,37.9 77.5,38.1 C77.5,38.2 77.5,38.4 77.4,38.6 M77.2,37.7 C77.2,37.7 77.1,37.6 77.1,37.6 C77,37.6 77,37.6 77,37.7 C77,37.7 77,37.8 77,38 C77,38.2 77,38.3 77,38.3 C77,38.3 77.1,38.4 77.1,38.4 C77.2,38.4 77.2,38.4 77.2,38.3 C77.2,38.3 77.2,38.2 77.2,38 C77.2,37.8 77.2,37.8 77.2,37.7" id="Shape" fill="#231F20"></path>
                <polygon id="Shape" fill="#231F20" points="78.2 37.7 78.2 38.7 77.9 38.7 77.9 37.7 77.5 37.7 77.5 37.4 78.5 37.4 78.5 37.7"></polygon>
                <path d="M79.4,38.6 C79.3,38.7 79.2,38.7 79,38.7 C78.8,38.7 78.7,38.7 78.6,38.6 C78.5,38.5 78.5,38.3 78.5,38.1 C78.5,37.9 78.5,37.7 78.6,37.6 C78.7,37.5 78.8,37.5 79,37.5 C79.2,37.5 79.3,37.5 79.4,37.6 C79.5,37.7 79.5,37.9 79.5,38.1 C79.5,38.2 79.6,38.4 79.4,38.6 M79.2,37.7 C79.2,37.7 79.1,37.6 79.1,37.6 C79,37.6 79,37.6 79,37.7 C79,37.7 79,37.8 79,38 C79,38.2 79,38.3 79,38.3 C79,38.3 79.1,38.4 79.1,38.4 C79.2,38.4 79.2,38.4 79.2,38.3 C79.2,38.3 79.2,38.2 79.2,38 C79.2,37.8 79.2,37.8 79.2,37.7" id="Shape" fill="#231F20"></path>
                <path d="M80.3,38.7 L80.1,38.2 L80,38.2 L80,38.7 L79.7,38.7 L79.7,37.4 L80.2,37.4 C80.5,37.4 80.7,37.6 80.7,37.8 C80.7,38 80.6,38.1 80.5,38.1 L80.8,38.6 L80.3,38.6 L80.3,38.7 Z M80.2,37.7 L80,37.7 L80,38 L80.2,38 C80.3,38 80.3,37.9 80.3,37.9 C80.3,37.8 80.3,37.7 80.2,37.7 L80.2,37.7 Z" id="Shape" fill="#231F20"></path>
                <path d="M82.2,38.6 C82.1,38.7 82,38.7 81.8,38.7 C81.6,38.7 81.5,38.7 81.4,38.6 C81.3,38.5 81.3,38.3 81.3,38.1 C81.3,37.9 81.3,37.7 81.4,37.6 C81.5,37.5 81.6,37.5 81.8,37.5 C82,37.5 82.1,37.5 82.2,37.6 C82.3,37.7 82.3,37.9 82.3,38.1 C82.3,38.2 82.3,38.4 82.2,38.6 M81.9,37.7 C81.9,37.7 81.8,37.6 81.8,37.6 C81.7,37.6 81.7,37.6 81.7,37.7 C81.7,37.7 81.7,37.8 81.7,38 C81.7,38.2 81.7,38.3 81.7,38.3 C81.7,38.3 81.8,38.4 81.8,38.4 C81.9,38.4 81.9,38.4 81.9,38.3 C81.9,38.3 81.9,38.2 81.9,38 C82,37.8 81.9,37.8 81.9,37.7" id="Shape" fill="#231F20"></path>
                <rect id="Rectangle-path" fill="#231F20" x="82.4" y="37.4" width="1" height="1.3"></rect>
                <polygon id="Shape" fill="#231F20" points="82.9 38.7 82.9 37.4 83.2 37.4 83.2 38.4 83.8 38.4 83.8 38.7"></polygon>
                <path d="M89.9,13.2 C89.2,13 88.2,12.9 86.8,12.9 L77.1,12.9 C78.5,12.9 79.5,13 80.2,13.2 C81.4,13.6 82,14.3 82,15.3 C82,15.8 81.9,16.3 81.7,16.9 L81.1,18.4 C81.1,18.4 81.1,18.4 81.1,18.5 L80.7,19.6 L77.9,27.4 C77.2,29.2 76.3,30.4 75,31.1 C73.9,31.6 72.3,31.9 70.3,31.9 L80,31.9 C82.1,31.9 83.7,31.6 84.7,31.1 C86,30.4 87,29.2 87.6,27.4 L91.4,16.9 C91.6,16.3 91.7,15.8 91.7,15.3 C91.7,14.2 91.1,13.5 89.9,13.2" id="Shape" fill="#99A4AE"></path>
                <polygon id="Shape" fill="#DD0031" points="42.8 1.9 41.4 5.7 41.2 5.3 38.8 1.9 34 1.9 34.4 2.5 31.1 11.6 35.7 11.6 37.1 7.8 37.3 8.3 39.5 11.6 43.8 11.6 47.4 1.9"></polygon>
                <path d="M55.3,1.9 L48.4,1.9 L48.8,2.6 L45.5,11.7 L51.8,11.7 C56.1,11.7 59.2,9.5 60.2,6.9 L60.3,6.7 C61.2,4 59.7,1.9 55.3,1.9 M55,6.6 L54.9,6.8 C54.5,7.8 53.8,8.6 52.4,8.6 L51.6,8.6 L53,4.8 L53.8,4.8 C55.2,4.8 55.4,5.7 55,6.6" id="Shape" fill="#DD0031"></path>
                <polygon id="Shape" fill="#DD0031" points="27.4 1.9 27.8 2.5 24.5 11.6 29.6 11.6 33.1 1.9"></polygon>
                <polygon id="Shape" fill="#DD0031" points="70 1.9 67.1 4.7 66.3 1.9 60.6 1.9 62.9 8.3 61.7 11.6 66.8 11.6 68 8.3 75 1.9"></polygon>
                <polygon id="Shape" fill="#99A4AE" points="72.1 11.6 73 9.2 72.5 10.1 71.7 11.6 71.2 11.6 71.5 10.1 71.7 9.2 70.9 11.6 70.2 11.6 71.5 8.1 72.5 8.1 72.2 9.5 72.1 10.1 72.4 9.5 73.1 8.1 74.1 8.1 72.8 11.6"></polygon>
                <path d="M74.4,11.6 L74.5,11.1 L74,11.1 L73.7,11.6 L73,11.6 L74.9,8 L75.8,8 L75.1,11.6 L74.4,11.6 Z M75.1,9.2 L74.5,10.5 L74.8,10.5 L75.1,9.2 Z" id="Shape" fill="#99A4AE"></path>
                <polygon id="Shape" fill="#99A4AE" points="77.1 10.2 76.5 11.6 75.8 11.6 76.3 10.2 76.4 8.1 77.2 8.1 77 9.3 77.8 8.1 78.5 8.1"></polygon>
                <path d="M80,10.2 C79.6,10.6 79.4,10.8 79.4,10.9 L80.3,10.9 L80.1,11.6 L78.4,11.6 L78.5,11.4 C78.7,10.8 79,10.5 79.8,9.8 C80.3,9.4 80.5,9.2 80.6,8.9 C80.7,8.7 80.6,8.6 80.5,8.6 C80.4,8.6 80.3,8.7 80.2,8.9 L80.1,9.2 L79.5,9.2 L79.7,8.8 C79.9,8.4 80.3,7.9 80.8,7.9 C81.4,7.9 81.5,8.3 81.3,8.8 C80.9,9.4 80.7,9.7 80,10.2" id="Shape" fill="#99A4AE"></path>
                <path d="M81.5,11.6 L80.7,11.6 C81.1,10.6 81.9,9.4 82.5,8.8 L81.5,8.8 L81.8,8.1 L83.5,8.1 L83.4,8.4 C82.5,9.4 81.9,10.4 81.5,11.6" id="Shape" fill="#99A4AE"></path>
                <path d="M82,12.2 L82.1,12 C82.2,12 82.4,11.9 82.5,11.6 L82.2,11.6 L82.5,10.8 L83.1,10.8 L82.9,11.5 C82.7,11.9 82.4,12.2 82,12.2" id="Shape" fill="#99A4AE"></path>
                <path d="M85.7,10.2 C85.3,10.6 85.1,10.8 85.1,10.9 L86,10.9 L85.8,11.6 L84,11.6 L84.1,11.4 C84.3,10.8 84.6,10.5 85.4,9.8 C85.9,9.4 86.1,9.2 86.2,8.9 C86.3,8.7 86.2,8.6 86.1,8.6 C86,8.6 85.9,8.7 85.8,8.9 L85.7,9.2 L85.1,9.2 L85.3,8.8 C85.5,8.4 85.9,7.9 86.4,7.9 C87,7.9 87.1,8.3 86.9,8.8 C86.6,9.4 86.4,9.7 85.7,10.2" id="Shape" fill="#99A4AE"></path>
                <path d="M87,11.7 C86.5,11.7 86.2,11.3 86.5,10.8 L87.2,8.9 C87.4,8.3 87.9,8 88.4,8 C88.9,8 89.2,8.4 88.9,8.9 L88.2,10.8 C88.1,11.3 87.6,11.7 87,11.7 L87,11.7 Z M88.3,8.9 C88.3,8.8 88.3,8.7 88.2,8.7 C88.1,8.7 88,8.8 87.9,8.9 L87.2,10.8 C87.2,10.9 87.2,11 87.3,11 C87.4,11 87.5,10.9 87.6,10.8 L88.3,8.9 Z" id="Shape" fill="#99A4AE"></path>
                <path d="M88.5,11.6 L89.7,8.4 C89.9,8.4 90.1,8.2 90.1,8.1 L90.5,8.1 L89.2,11.7 L88.5,11.7 L88.5,11.6 Z" id="Shape" fill="#99A4AE"></path>
                <path d="M90.5,11.7 C90,11.7 89.7,11.4 89.9,10.8 L90.1,10.4 C90.2,10.1 90.4,9.9 90.6,9.8 C90.4,9.7 90.4,9.5 90.5,9.2 L90.6,8.8 C90.8,8.3 91.3,7.9 91.8,7.9 C92.3,7.9 92.6,8.3 92.4,8.8 L92.3,9.2 C92.2,9.5 92,9.7 91.8,9.8 C92,9.9 92,10.1 91.9,10.4 L91.7,10.8 C91.5,11.4 91.1,11.7 90.5,11.7 L90.5,11.7 Z M91.3,10.2 C91.3,10.1 91.3,10 91.2,10 C91.1,10 91,10.1 90.9,10.2 L90.7,10.8 C90.7,10.9 90.7,11 90.8,11 C90.9,11 91,10.9 91.1,10.8 L91.3,10.2 Z M91.8,8.9 C91.8,8.8 91.8,8.7 91.7,8.7 C91.6,8.7 91.5,8.8 91.4,8.9 L91.2,9.5 C91.2,9.6 91.2,9.7 91.3,9.7 C91.4,9.7 91.5,9.6 91.6,9.5 L91.8,8.9 Z" id="Shape" fill="#99A4AE"></path>
                <path d="M5.9,11.6 L7,8.6 C7.4,8.6 7.7,8.3 7.8,8 L8.7,8 L7.4,11.6 L5.9,11.6 Z" id="Shape" fill="#DD0031"></path>
                <path d="M9.7,11.8 C8.6,11.8 8,11.1 8.4,10 L8.5,9.8 C8.9,8.6 10,8 11.1,8 C12.2,8 12.8,8.7 12.4,9.8 L12.3,10 C11.9,11.1 10.9,11.8 9.7,11.8 L9.7,11.8 Z M11,9.7 C11.2,9.2 11.1,9 10.8,9 C10.5,9 10.2,9.2 10,9.7 L9.9,9.9 C9.7,10.4 9.8,10.6 10.1,10.6 C10.4,10.6 10.7,10.4 10.9,9.9 L11,9.7 Z" id="Shape" fill="#DD0031"></path>
                <path d="M14,10.6 L15.9,10.6 L15.5,11.7 L12,11.7 L12.1,11.3 C12.6,9.9 14.7,9.9 14.9,9.3 C15,9.1 14.8,9 14.5,9 C14.1,9 13.6,9.1 13.1,9.3 L13.1,8.3 C13.8,8 14.3,7.9 15.1,7.9 C16.1,7.9 16.6,8.4 16.4,9 C16.1,9.8 15.3,10.1 14,10.6" id="Shape" fill="#DD0031"></path>
                <polygon id="Shape" fill="#DD0031" points="18.2 11.6 17.6 10.7 17.6 10.5 17.2 11.6 16 11.6 17 8.8 18.1 8.8 18.7 9.8 18.8 9.9 19.2 8.8 20.4 8.8 19.4 11.6"></polygon>
                <path d="M21.5,11.6 L19.8,11.6 L20.8,8.7 L22.5,8.7 C23.7,8.7 24,9.3 23.8,10.1 L23.8,10.2 C23.5,11 22.6,11.6 21.5,11.6 L21.5,11.6 Z M22.4,10.2 C22.5,9.9 22.5,9.7 22.1,9.7 L21.9,9.7 L21.5,10.8 L21.7,10.8 C22.1,10.8 22.3,10.5 22.4,10.2 L22.4,10.2 Z" id="Shape" fill="#DD0031"></path>
                <path d="M28.4,29.3 C28.4,29 28.5,28.7 28.6,28.3 C28.6,28.3 29.2,26.7 29.2,26.7 L29.7,25.2 L19.5,25.2 L18.3,28.4 C18.2,28.8 18.1,29.1 18.1,29.4 C18.1,31 19.8,31.9 23.3,31.9 L33.5,31.9 C30.1,31.8 28.4,31 28.4,29.3" id="Shape" fill="#99A4AE"></path>
            </g>
        </g>
    </g>
</svg>