<?xml version="1.0" encoding="UTF-8"?>
<svg width="32px" height="32px" viewBox="0 0 32 32" version="1.1" xmlns="http://www.w3.org/2000/svg" xmlns:xlink="http://www.w3.org/1999/xlink">
    <!-- Generator: Sketch 47.1 (45422) - http://www.bohemiancoding.com/sketch -->
    <title>Shape</title>
    <desc>Created with Sketch.</desc>
    <defs></defs>
    <g id="Symbols" stroke="none" stroke-width="1" fill="none" fill-rule="evenodd">
        <g id="Footer" transform="translate(-1238.000000, -90.000000)" fill-rule="nonzero" fill="#981E32">
            <g id="footer15" transform="translate(-1.000000, 44.000000)">
                <g id="social" transform="translate(1069.000000, 46.000000)">
                    <path d="M201.903751,9.40321778 C201.877167,8.07589124 201.625703,6.76268186 201.160053,5.51943111 C200.758292,4.45180517 200.128489,3.48466221 199.31456,2.68544 C198.515338,1.87151066 197.548195,1.24170774 196.480569,0.839946667 C195.237318,0.374296557 193.924109,0.122832977 192.596782,0.0962488889 C190.890187,0.0184533333 190.345369,0 186,0 C181.654631,0 181.109813,0.0184533333 179.403218,0.0962488889 C178.075891,0.122832977 176.762682,0.374296557 175.519431,0.839946667 C174.451805,1.24170774 173.484662,1.87151066 172.68544,2.68544 C171.871511,3.48466221 171.241708,4.45180517 170.839947,5.51943111 C170.374297,6.76268186 170.122833,8.07589124 170.096249,9.40321778 C170.018453,11.1098133 170,11.6546311 170,16 C170,20.3453689 170.018453,20.8901867 170.096249,22.5967822 C170.122833,23.9241088 170.374297,25.2373181 170.839947,26.4805689 C171.241708,27.5481948 171.871511,28.5153378 172.68544,29.31456 C173.484633,30.1285249 174.451784,30.7583333 175.519431,31.1600533 C176.762682,31.6257034 178.075891,31.877167 179.403218,31.9037511 C181.109813,31.9816711 181.654631,32 186,32 C190.345369,32 190.890187,31.9816711 192.596782,31.9037511 C193.924109,31.877167 195.237318,31.6257034 196.480569,31.1600533 C198.629786,30.3288335 200.328816,28.6298034 201.160036,26.4805867 C201.625686,25.2373359 201.877149,23.9241265 201.903733,22.5968 C201.981547,20.8901867 202,20.3453689 202,16 C202,11.6546311 201.981547,11.1098133 201.903751,9.40321778 Z M199.023876,22.4653867 C199.011867,23.4799554 198.825483,24.4849039 198.472871,25.4363022 C197.934661,26.8317296 196.831726,27.9346705 195.436302,28.4728889 C194.4849,28.8254885 193.479954,29.0118721 192.465387,29.0238933 C190.778436,29.1008 190.272462,29.1170844 186,29.1170844 C181.727538,29.1170844 181.221564,29.1008 179.534613,29.0238756 C178.520047,29.01186 177.515101,28.8254824 176.563698,28.4728889 C175.868712,28.2164554 175.240053,27.8074824 174.723964,27.2760533 C174.192527,26.7599618 173.783547,26.1312964 173.527111,25.4363022 C173.174499,24.4849039 172.988115,23.4799554 172.976107,22.4653867 C172.8992,20.7782044 172.882916,20.2722489 172.882916,16 C172.882916,11.7277511 172.8992,11.2217956 172.976124,9.53461333 C172.98814,8.52004687 173.174518,7.51510057 173.527111,6.56369778 C173.783545,5.86871159 174.192518,5.2400527 174.723947,4.72396444 C175.240038,4.19252675 175.868704,3.78354742 176.563698,3.52711111 C177.5151,3.17451151 178.520046,2.98812792 179.534613,2.97610667 C181.221796,2.8992 181.727751,2.88291556 186,2.88291556 C190.272249,2.88291556 190.778204,2.8992 192.465387,2.97612444 C193.479954,2.9881457 194.4849,3.17452929 195.436302,3.52712889 C196.131288,3.78356237 196.759947,4.19253539 197.276036,4.72396444 C197.807471,5.2400509 198.21645,5.86870993 198.472889,6.56369778 C198.825488,7.5150995 199.011872,8.52004583 199.023893,9.53461333 C199.100818,11.2217244 199.117102,11.7278578 199.117102,16 C199.117102,20.2721422 199.1008,20.7782044 199.023876,22.4653867 L199.023876,22.4653867 Z M186,7.78375111 C181.462291,7.78375111 177.783751,11.462291 177.783751,16 C177.783751,20.537709 181.462291,24.2162489 186,24.2162489 C190.537709,24.2162489 194.216249,20.537709 194.216249,16 C194.2162,11.4623114 190.537689,7.7838002 186,7.78375111 Z M186,21.3333333 C183.054481,21.3333333 180.666667,18.9455187 180.666667,16 C180.666667,13.0544813 183.054481,10.6666667 186,10.6666667 C188.945519,10.6666667 191.333333,13.0544813 191.333333,16 C191.333333,17.4144879 190.77143,18.7710421 189.771236,19.7712362 C188.771042,20.7714302 187.414488,21.3333333 186,21.3333333 Z M196.460836,7.4592 C196.460836,8.51958672 195.601222,9.3792 194.540836,9.3792 C193.480449,9.3792 192.620836,8.51958672 192.620836,7.4592 C192.620836,6.39881328 193.480449,5.5392 194.540836,5.5392 C195.601222,5.5392 196.460836,6.39881328 196.460836,7.4592 L196.460836,7.4592 Z" id="Shape"></path>
                </g>
            </g>
        </g>
    </g>
</svg>