<?xml version="1.0" encoding="UTF-8"?>
<svg width="240px" height="50px" viewBox="0 0 394 82" version="1.1" xmlns="http://www.w3.org/2000/svg" xmlns:xlink="http://www.w3.org/1999/xlink">
    <!-- Generator: Sketch 47.1 (45422) - http://www.bohemiancoding.com/sketch -->
    <title>Group</title>
    <desc>Created with Sketch.</desc>
    <defs>
        <linearGradient x1="5.75416667%" y1="50.3948718%" x2="314.865%" y2="50.3948718%" id="linearGradient-1">
            <stop stop-color="#FFFFFF" offset="0%"></stop>
            <stop stop-color="#A4A4A4" offset="100%"></stop>
        </linearGradient>
        <linearGradient x1="53.1208333%" y1="56.895%" x2="19.5633333%" y2="-53.92%" id="linearGradient-2">
            <stop stop-color="#CCCCCC" offset="0%"></stop>
            <stop stop-color="#808080" offset="100%"></stop>
        </linearGradient>
        <linearGradient x1="7.18166667%" y1="132.75%" x2="114.268333%" y2="-81.945%" id="linearGradient-3">
            <stop stop-color="#CCCCCC" offset="0%"></stop>
            <stop stop-color="#808080" offset="100%"></stop>
        </linearGradient>
        <linearGradient x1="50.6217391%" y1="-21.9487179%" x2="50.6217391%" y2="146.002564%" id="linearGradient-4">
            <stop stop-color="#FFFFFF" offset="0%"></stop>
            <stop stop-color="#A4A4A4" offset="100%"></stop>
        </linearGradient>
        <linearGradient x1="49.5130435%" y1="388.484615%" x2="49.5130435%" y2="142.094872%" id="linearGradient-5">
            <stop stop-color="#FFFFFF" offset="0%"></stop>
            <stop stop-color="#A4A4A4" offset="100%"></stop>
        </linearGradient>
        <linearGradient x1="3.9325%" y1="49.2487179%" x2="236.580833%" y2="49.2487179%" id="linearGradient-6">
            <stop stop-color="#FFFFFF" offset="0%"></stop>
            <stop stop-color="#A4A4A4" offset="100%"></stop>
        </linearGradient>
        <linearGradient x1="53.495%" y1="59.66%" x2="19.9416667%" y2="-51.145%" id="linearGradient-7">
            <stop stop-color="#CCCCCC" offset="0%"></stop>
            <stop stop-color="#808080" offset="100%"></stop>
        </linearGradient>
        <linearGradient x1="7.92666667%" y1="135.505%" x2="115.005%" y2="-79.17%" id="linearGradient-8">
            <stop stop-color="#CCCCCC" offset="0%"></stop>
            <stop stop-color="#808080" offset="100%"></stop>
        </linearGradient>
        <linearGradient x1="50.4%" y1="96.0410256%" x2="50.4%" y2="-182.379487%" id="linearGradient-9">
            <stop stop-color="#FFFFFF" offset="0%"></stop>
            <stop stop-color="#A4A4A4" offset="100%"></stop>
        </linearGradient>
        <linearGradient x1="118.75%" y1="312.905128%" x2="46.7%" y2="13.2333333%" id="linearGradient-10">
            <stop stop-color="#FFFFFF" offset="0%"></stop>
            <stop stop-color="#A4A4A4" offset="100%"></stop>
        </linearGradient>
        <linearGradient x1="10.4091667%" y1="49.2487179%" x2="229.09%" y2="49.2487179%" id="linearGradient-11">
            <stop stop-color="#FFFFFF" offset="0%"></stop>
            <stop stop-color="#A4A4A4" offset="100%"></stop>
        </linearGradient>
        <linearGradient x1="53.5825%" y1="59.66%" x2="20.0291667%" y2="-51.145%" id="linearGradient-12">
            <stop stop-color="#CCCCCC" offset="0%"></stop>
            <stop stop-color="#808080" offset="100%"></stop>
        </linearGradient>
        <linearGradient x1="6.43666667%" y1="135.505%" x2="113.511667%" y2="-79.17%" id="linearGradient-13">
            <stop stop-color="#CCCCCC" offset="0%"></stop>
            <stop stop-color="#808080" offset="100%"></stop>
        </linearGradient>
        <linearGradient x1="50.8291667%" y1="96.0538462%" x2="50.8291667%" y2="-181.182051%" id="linearGradient-14">
            <stop stop-color="#FFFFFF" offset="0%"></stop>
            <stop stop-color="#A4A4A4" offset="100%"></stop>
        </linearGradient>
        <linearGradient x1="49.7416667%" y1="247.405128%" x2="49.7416667%" y2="1.07435897%" id="linearGradient-15">
            <stop stop-color="#FFFFFF" offset="0%"></stop>
            <stop stop-color="#A4A4A4" offset="100%"></stop>
        </linearGradient>
        <linearGradient x1="39.7929577%" y1="2.35061728%" x2="91.8661972%" y2="225.415638%" id="linearGradient-16">
            <stop stop-color="#F2F2F2" offset="0%"></stop>
            <stop stop-color="#A4A4A4" offset="100%"></stop>
        </linearGradient>
        <linearGradient x1="49.96%" y1="127.838683%" x2="49.96%" y2="-0.617283951%" id="linearGradient-17">
            <stop stop-color="#CCCCCC" offset="0%"></stop>
            <stop stop-color="#808080" offset="100%"></stop>
        </linearGradient>
        <linearGradient x1="170.075969%" y1="132.315278%" x2="20.8387597%" y2="30.6263889%" id="linearGradient-18">
            <stop stop-color="#CCCCCC" offset="0%"></stop>
            <stop stop-color="#808080" offset="100%"></stop>
        </linearGradient>
        <linearGradient x1="82.6756757%" y1="20.5694444%" x2="-30.7414414%" y2="228.394444%" id="linearGradient-19">
            <stop stop-color="#F2F2F2" offset="0%"></stop>
            <stop stop-color="#A4A4A4" offset="100%"></stop>
        </linearGradient>
        <linearGradient x1="122.735849%" y1="40.6241379%" x2="9.15471698%" y2="52.5155172%" id="linearGradient-20">
            <stop stop-color="#CCCCCC" offset="0%"></stop>
            <stop stop-color="#808080" offset="100%"></stop>
        </linearGradient>
        <linearGradient x1="0.804166667%" y1="0.964102564%" x2="320.674167%" y2="327.907692%" id="linearGradient-21">
            <stop stop-color="#FFFFFF" offset="0%"></stop>
            <stop stop-color="#A4A4A4" offset="100%"></stop>
        </linearGradient>
        <linearGradient x1="46.8958333%" y1="58.6%" x2="80.4508333%" y2="-52.21%" id="linearGradient-22">
            <stop stop-color="#CCCCCC" offset="0%"></stop>
            <stop stop-color="#808080" offset="100%"></stop>
        </linearGradient>
        <linearGradient x1="92.87%" y1="134.46%" x2="-14.225%" y2="-80.25%" id="linearGradient-23">
            <stop stop-color="#CCCCCC" offset="0%"></stop>
            <stop stop-color="#808080" offset="100%"></stop>
        </linearGradient>
        <linearGradient x1="49.4173913%" y1="-21.0974359%" x2="49.4173913%" y2="146.851282%" id="linearGradient-24">
            <stop stop-color="#CCCCCC" offset="0%"></stop>
            <stop stop-color="#808080" offset="100%"></stop>
        </linearGradient>
        <linearGradient x1="6.11304348%" y1="99.9230769%" x2="169%" y2="-170.648718%" id="linearGradient-25">
            <stop stop-color="#FFFFFF" offset="0%"></stop>
            <stop stop-color="#A4A4A4" offset="100%"></stop>
        </linearGradient>
        <linearGradient x1="132.527027%" y1="161.413468%" x2="14.8702703%" y2="8.21279461%" id="linearGradient-26">
            <stop stop-color="#CCCCCC" offset="0%"></stop>
            <stop stop-color="#808080" offset="100%"></stop>
        </linearGradient>
        <linearGradient x1="10.9694444%" y1="11.1912458%" x2="266.069444%" y2="227.237374%" id="linearGradient-27">
            <stop stop-color="#F2F2F2" offset="0%"></stop>
            <stop stop-color="#A4A4A4" offset="100%"></stop>
        </linearGradient>
        <linearGradient x1="196.991667%" y1="124.693043%" x2="144.225%" y2="103.454783%" id="linearGradient-28">
            <stop stop-color="#F2F2F2" offset="0%"></stop>
            <stop stop-color="#A4A4A4" offset="100%"></stop>
        </linearGradient>
        <linearGradient x1="-30.3833333%" y1="-35.6269565%" x2="262.872222%" y2="247.038261%" id="linearGradient-29">
            <stop stop-color="#F2F2F2" offset="0%"></stop>
            <stop stop-color="#A4A4A4" offset="100%"></stop>
        </linearGradient>
        <linearGradient x1="49.8647887%" y1="127.83786%" x2="49.8647887%" y2="-0.616872428%" id="linearGradient-30">
            <stop stop-color="#CCCCCC" offset="0%"></stop>
            <stop stop-color="#808080" offset="100%"></stop>
        </linearGradient>
        <linearGradient x1="-20.6542857%" y1="9.38888889%" x2="432.54%" y2="269.753086%" id="linearGradient-31">
            <stop stop-color="#F2F2F2" offset="0%"></stop>
            <stop stop-color="#A4A4A4" offset="100%"></stop>
        </linearGradient>
        <linearGradient x1="96.5976744%" y1="101.608333%" x2="-17.124031%" y2="5.53194444%" id="linearGradient-32">
            <stop stop-color="#CCCCCC" offset="0%"></stop>
            <stop stop-color="#808080" offset="100%"></stop>
        </linearGradient>
        <linearGradient x1="161.130233%" y1="586.730556%" x2="-45.4937984%" y2="-377.283333%" id="linearGradient-33">
            <stop stop-color="#F2F2F2" offset="0%"></stop>
            <stop stop-color="#A4A4A4" offset="100%"></stop>
        </linearGradient>
        <linearGradient x1="86.9936937%" y1="52.2194444%" x2="-217.621622%" y2="43.9361111%" id="linearGradient-34">
            <stop stop-color="#F2F2F2" offset="0%"></stop>
            <stop stop-color="#A4A4A4" offset="100%"></stop>
        </linearGradient>
        <linearGradient x1="96.1132075%" y1="134.034483%" x2="-3.99622642%" y2="-74.6206897%" id="linearGradient-35">
            <stop stop-color="#CCCCCC" offset="0%"></stop>
            <stop stop-color="#808080" offset="100%"></stop>
        </linearGradient>
    </defs>
    <g id="Page-1" stroke="none" stroke-width="1" fill="none" fill-rule="evenodd">
        <g id="lockup-primary" fill-rule="nonzero">
            <g id="Group">
                <g transform="translate(84.000000, 37.000000)" id="Shape" fill="#000000">
                    <polygon points="3 20.1 3 1.2 0.5 1.2 0.5 0.4 8.8 0.4 8.8 1.2 6.3 1.2 6.3 20.1 8.8 20.1 8.8 21 0.5 21 0.5 20.2 3 20.2"></polygon>
                    <path d="M12.6,20.1 L12.6,9.6 L10.6,9.6 L10.6,8.8 L15.4,8.8 L15.4,10.4 C16.4,9.1 17.6,8.5 19.2,8.5 C20.6,8.5 21.6,9 22.4,9.9 C22.8,10.4 23,11 23.1,11.6 C23.1,12.1 23.2,12.7 23.2,13.5 L23.2,20.2 L25.2,20.2 L25.2,21 L18.6,21 L18.6,20.2 L20.4,20.2 L20.4,15.7 C20.4,12.7 20.2,10.9 19.9,10.3 C19.6,9.8 19.1,9.6 18.4,9.6 C17.5,9.6 16.7,10 16.2,10.8 C15.9,11.2 15.7,11.9 15.6,12.7 C15.5,13.7 15.4,15.1 15.4,16.7 L15.4,20.2 L17.2,20.2 L17.2,21 L10.6,21 L10.6,20.2 L12.6,20.2 L12.6,20.1 Z"></path>
                    <path d="M37.6,0.4 L37.6,20.2 L39.6,20.2 L39.6,21 L34.8,21 L34.8,18.6 C34.6,19.1 34.3,19.6 34,19.9 C33.3,20.8 32.3,21.2 31.2,21.2 C29.9,21.2 28.7,20.6 27.7,19.4 C26.6,18.1 26.1,16.6 26.1,14.7 C26.1,12.6 26.7,11 28,9.7 C28.9,8.8 30,8.3 31.1,8.3 C32.6,8.3 33.8,9.1 34.7,10.8 L34.7,1 L32.7,1 L32.7,0.2 L37.6,0.2 L37.6,0.4 Z M31.5,9.4 C31,9.4 30.6,9.6 30.2,9.9 C29.8,10.2 29.6,10.5 29.5,10.8 C29.3,11.6 29.2,12.8 29.2,14.6 C29.2,17.1 29.3,18.5 29.5,19 C29.9,19.9 30.6,20.3 31.5,20.3 C32.3,20.3 32.9,20 33.5,19.3 C34.3,18.3 34.8,16.8 34.8,14.9 C34.8,13.1 34.4,11.7 33.6,10.7 C33,9.8 32.3,9.4 31.5,9.4 Z"></path>
                    <path d="M43.2,20.1 L43.2,9.6 L41.2,9.6 L41.2,8.8 L46,8.8 L46,20.1 L48,20.1 L48,21 L41.2,21 L41.2,20.2 L43.2,20.2 L43.2,20.1 Z M44.5,0.8 C45,0.8 45.5,1 45.8,1.4 C46.1,1.8 46.3,2.2 46.3,2.5 C46.3,3 46.1,3.4 45.7,3.8 C45.4,4.1 45,4.3 44.5,4.3 C44,4.3 43.7,4.1 43.3,3.8 C43,3.5 42.8,3 42.8,2.5 C42.8,2 43,1.6 43.3,1.2 C43.6,0.9 44,0.8 44.5,0.8 Z"></path>
                    <path d="M61,19.8 L61.4,20.4 C60.8,21 60.1,21.3 59.3,21.3 C57.8,21.3 57,20.5 56.8,18.9 C56.5,19.4 56.2,19.8 55.9,20.1 C55,20.9 54,21.3 52.9,21.3 C51.8,21.3 51,21 50.4,20.3 C49.9,19.8 49.7,19.2 49.7,18.4 C49.7,16.8 50.6,15.6 52.5,14.8 C53.5,14.4 55,14.1 56.9,14.1 L56.9,12.1 C56.9,11.2 56.9,10.7 56.8,10.5 C56.6,9.7 56,9.3 54.8,9.3 C54.1,9.3 53.5,9.5 52.9,9.8 C52.6,10 52.5,10.2 52.5,10.4 C52.5,10.5 52.5,10.6 52.6,10.7 C52.9,11 53,11.4 53,11.7 C53,12.1 52.9,12.4 52.7,12.6 C52.5,12.9 52.2,13 51.8,13 C51.5,13 51.2,12.9 50.9,12.7 C50.6,12.5 50.5,12.1 50.5,11.7 C50.5,11 50.8,10.4 51.4,9.9 C52.4,9 53.7,8.6 55.2,8.6 C56.8,8.6 58,9 58.8,9.9 C59.2,10.3 59.4,10.8 59.5,11.4 C59.5,11.6 59.5,12.3 59.5,13.5 L59.5,16.9 C59.5,18.7 59.5,19.8 59.6,19.9 C59.7,20.1 59.9,20.2 60.1,20.2 C60.4,20.2 60.7,20 61,19.8 Z M56.8,14.9 C55.4,15 54.3,15.2 53.7,15.6 C52.8,16.1 52.3,16.9 52.3,17.9 C52.3,18.5 52.5,19 52.8,19.3 C53.1,19.6 53.5,19.7 54.1,19.7 C55,19.7 55.7,19.3 56.3,18.4 C56.6,17.9 56.8,16.9 56.8,15.4 L56.8,14.9 Z"></path>
                    <path d="M65.1,20.1 L65.1,9.6 L63.1,9.6 L63.1,8.8 L67.9,8.8 L67.9,10.4 C68.9,9.1 70.1,8.5 71.7,8.5 C73.1,8.5 74.1,9 74.9,9.9 C75.3,10.4 75.5,11 75.6,11.6 C75.6,12.1 75.7,12.7 75.7,13.5 L75.7,20.2 L77.7,20.2 L77.7,21 L71,21 L71,20.2 L72.8,20.2 L72.8,15.7 C72.8,12.7 72.6,10.9 72.3,10.3 C72,9.8 71.5,9.6 70.8,9.6 C69.9,9.6 69.1,10 68.6,10.8 C68.3,11.2 68.1,11.9 68,12.7 C67.9,13.7 67.8,15.1 67.8,16.7 L67.8,20.2 L69.6,20.2 L69.6,21 L63,21 L63,20.2 L65.1,20.2 L65.1,20.1 Z"></path>
                    <path d="M90.6,19.8 L91,20.4 C90.4,21 89.7,21.3 88.9,21.3 C87.4,21.3 86.6,20.5 86.4,18.9 C86.1,19.4 85.8,19.8 85.5,20.1 C84.6,20.9 83.6,21.3 82.5,21.3 C81.4,21.3 80.6,21 80,20.3 C79.5,19.8 79.3,19.2 79.3,18.4 C79.3,16.8 80.2,15.6 82.1,14.8 C83.1,14.4 84.6,14.1 86.5,14.1 L86.5,12.1 C86.5,11.2 86.5,10.7 86.4,10.5 C86.2,9.7 85.6,9.3 84.4,9.3 C83.7,9.3 83.1,9.5 82.5,9.8 C82.2,10 82.1,10.2 82.1,10.4 C82.1,10.5 82.1,10.6 82.2,10.7 C82.5,11 82.6,11.4 82.6,11.7 C82.6,12.1 82.5,12.4 82.3,12.6 C82.1,12.9 81.8,13 81.4,13 C81.1,13 80.8,12.9 80.5,12.7 C80.2,12.5 80.1,12.1 80.1,11.7 C80.1,11 80.4,10.4 81,9.9 C82,9 83.3,8.6 84.8,8.6 C86.4,8.6 87.6,9 88.4,9.9 C88.8,10.3 89,10.8 89.1,11.4 C89.1,11.6 89.1,12.3 89.1,13.5 L89.1,16.9 C89.1,18.7 89.1,19.8 89.2,19.9 C89.3,20.1 89.5,20.2 89.7,20.2 C90,20.2 90.3,20 90.6,19.8 Z M86.4,14.9 C85,15 83.9,15.2 83.3,15.6 C82.4,16.1 81.9,16.9 81.9,17.9 C81.9,18.5 82.1,19 82.4,19.3 C82.7,19.6 83.1,19.7 83.7,19.7 C84.6,19.7 85.3,19.3 85.9,18.4 C86.2,17.9 86.4,16.9 86.4,15.4 L86.4,14.9 Z"></path>
                    <path d="M115.3,1.2 L112.8,1.2 L112.8,0.4 L118.6,0.4 L118.6,1.2 L116.2,1.2 L116.2,12.9 C116.2,15.2 116.1,16.7 115.8,17.5 C114.9,20.1 113,21.4 110,21.4 C108.4,21.4 107,21.1 105.8,20.5 C104.3,19.8 103.4,18.7 103,17.2 C102.8,16.5 102.7,15 102.7,12.9 L102.7,1.2 L100.2,1.2 L100.2,0.4 L108.5,0.4 L108.5,1.2 L106,1.2 L106,12.9 C106,15.4 106.1,16.9 106.2,17.5 C106.5,18.6 107.1,19.3 108,19.8 C108.7,20.2 109.6,20.4 110.6,20.4 C112.5,20.4 113.9,19.6 114.6,18 C114.9,17.5 115,16.9 115.1,16.3 C115.2,15.7 115.2,14.6 115.2,12.9 L115.2,1.2 L115.3,1.2 Z"></path>
                    <path d="M121.4,20.1 L121.4,9.6 L119.4,9.6 L119.4,8.8 L124.2,8.8 L124.2,10.4 C125.2,9.1 126.4,8.5 128,8.5 C129.4,8.5 130.4,9 131.2,9.9 C131.6,10.4 131.8,11 131.9,11.6 C131.9,12.1 132,12.7 132,13.5 L132,20.2 L134,20.2 L134,21 L127.4,21 L127.4,20.2 L129.2,20.2 L129.2,15.7 C129.2,12.7 129,10.9 128.7,10.3 C128.4,9.8 127.9,9.6 127.2,9.6 C126.3,9.6 125.5,10 125,10.8 C124.7,11.2 124.5,11.9 124.4,12.7 C124.3,13.7 124.2,15.1 124.2,16.7 L124.2,20.2 L126,20.2 L126,21 L119.4,21 L119.4,20.2 L121.4,20.2 L121.4,20.1 Z"></path>
                    <path d="M137.5,20.1 L137.5,9.6 L135.5,9.6 L135.5,8.8 L140.3,8.8 L140.3,20.1 L142.3,20.1 L142.3,21 L135.5,21 L135.5,20.2 L137.5,20.2 L137.5,20.1 Z M138.8,0.8 C139.3,0.8 139.8,1 140.1,1.4 C140.4,1.8 140.6,2.2 140.6,2.5 C140.6,3 140.4,3.4 140,3.8 C139.7,4.1 139.3,4.3 138.8,4.3 C138.3,4.3 138,4.1 137.6,3.8 C137.3,3.5 137.1,3 137.1,2.5 C137.1,2 137.3,1.6 137.6,1.2 C137.9,0.9 138.3,0.8 138.8,0.8 Z"></path>
                    <polygon points="154.2 9.6 149.8 21.2 148.7 21.2 144.1 9.6 142.8 9.6 142.8 8.8 149.2 8.8 149.2 9.6 147.1 9.6 150.2 17.5 153.3 9.6 151 9.6 151 8.8 155.3 8.8 155.3 9.6"></polygon>
                    <path d="M167.1,14 L159.2,14 C159.2,14.4 159.2,14.7 159.2,14.8 C159.2,16.1 159.2,17.1 159.3,17.6 C159.4,19.4 160.4,20.4 162.1,20.4 C163.2,20.4 164.2,19.9 165,19 C165.4,18.5 165.7,17.8 166,17 L166.9,17 C166.7,18.2 166.2,19.2 165.4,20 C164.5,20.9 163.4,21.4 162,21.4 C160.6,21.4 159.4,20.9 158.3,19.8 C156.9,18.5 156.2,16.9 156.2,15 C156.2,13.1 156.9,11.4 158.4,10 C159.4,9 160.6,8.5 161.9,8.5 C163.1,8.5 164.2,8.9 165.1,9.6 C166,10.3 166.7,11.3 167,12.4 C167,12.8 167,13.3 167.1,14 Z M163.9,13.1 C163.9,11.7 163.8,10.9 163.6,10.5 C163.3,9.8 162.6,9.4 161.7,9.4 C160.6,9.4 159.9,9.7 159.5,10.4 C159.3,10.8 159.2,11.3 159.2,12 C159.2,12 159.2,12.3 159.2,12.7 C159.2,12.8 159.2,13 159.2,13.1 L163.9,13.1 L163.9,13.1 Z"></path>
                    <path d="M170.7,20.1 L170.7,9.6 L168.7,9.6 L168.7,8.8 L173.5,8.8 L173.5,11.7 C174.3,9.5 175.4,8.5 176.8,8.5 C177.3,8.5 177.8,8.6 178.1,8.9 C178.5,9.2 178.7,9.7 178.7,10.3 C178.7,10.8 178.6,11.2 178.3,11.5 C178,11.8 177.7,12 177.2,12 C176.7,12 176.3,11.8 176,11.4 C175.9,11.2 175.8,10.9 175.8,10.6 C175.8,10.2 175.7,10 175.5,10 C175.2,10 175,10.3 174.7,10.8 C174.3,11.6 173.9,12.5 173.8,13.5 C173.6,14.5 173.5,15.8 173.5,17.5 L173.5,20.2 L175.5,20.2 L175.5,21 L168.7,21 L168.7,20.2 L170.7,20.2 L170.7,20.1 Z"></path>
                    <path d="M188.5,8.6 L188.6,12.3 L187.9,12.3 C187.8,11.5 187.4,10.9 186.9,10.4 C186.2,9.8 185.3,9.4 184.3,9.4 C183.6,9.4 183,9.6 182.5,9.9 C182,10.3 181.7,10.8 181.7,11.3 C181.7,11.8 181.9,12.2 182.4,12.4 C182.8,12.6 183.6,12.8 184.8,13 C185.9,13.2 186.7,13.4 187.2,13.7 C188.5,14.4 189.1,15.5 189.1,17.1 C189.1,18.2 188.7,19.2 187.9,20 C187.1,20.8 186.1,21.2 184.9,21.2 C184.1,21.2 183.3,21 182.6,20.6 C182.3,20.5 182,20.2 181.6,19.9 L181,21 L180.5,21 L180.4,16.4 L181.1,16.4 C181.4,17.5 181.8,18.4 182.2,19 C182.9,19.9 183.9,20.4 185.2,20.4 C186.1,20.4 186.8,20.1 187.3,19.6 C187.8,19.2 188,18.7 188,18.2 C188,17.7 187.8,17.3 187.4,17 C187,16.7 186.2,16.5 184.9,16.3 C183.8,16.1 183,15.9 182.5,15.7 C181.1,15.1 180.5,14 180.5,12.4 C180.5,11.3 180.9,10.4 181.6,9.7 C182.3,9 183.2,8.6 184.4,8.6 C185.5,8.6 186.5,8.9 187.5,9.6 L187.9,8.7 L188.5,8.7 L188.5,8.6 Z"></path>
                    <path d="M193.1,20.1 L193.1,9.6 L191.1,9.6 L191.1,8.8 L195.9,8.8 L195.9,20.1 L197.9,20.1 L197.9,21 L191.1,21 L191.1,20.2 L193.1,20.2 L193.1,20.1 Z M194.4,0.8 C194.9,0.8 195.4,1 195.7,1.4 C196,1.8 196.2,2.2 196.2,2.5 C196.2,3 196,3.4 195.6,3.8 C195.3,4.1 194.9,4.3 194.4,4.3 C193.9,4.3 193.6,4.1 193.2,3.8 C192.9,3.5 192.7,3 192.7,2.5 C192.7,2 192.9,1.6 193.2,1.2 C193.5,0.9 193.9,0.8 194.4,0.8 Z"></path>
                    <path d="M203.3,4.1 L203.3,8.7 L206.4,8.7 L206.4,9.5 L203.3,9.5 L203.3,18.2 C203.3,18.9 203.4,19.3 203.5,19.5 C203.8,19.9 204.2,20 204.7,20 C205.5,20 206,19.5 206.2,18.6 L207,18.6 C206.9,19.2 206.7,19.7 206.4,20.1 C205.8,20.9 204.9,21.2 203.8,21.2 C202.7,21.2 201.8,20.8 201.2,20.1 C200.9,19.7 200.7,19.3 200.7,18.9 C200.7,18.6 200.6,18 200.6,17.2 L200.6,9.4 L198.8,9.4 L198.8,8.7 C200,8.2 200.9,7.6 201.5,6.9 C202,6.3 202.5,5.3 202.9,4 L203.3,4 L203.3,4.1 Z"></path>
                    <path d="M215.5,17.5 L218.3,9.7 L216,9.7 L216,8.9 L220.6,8.9 L220.6,9.7 L219.4,9.7 L213,26.8 C212.6,27.9 212,28.6 211.1,29 C210.8,29.1 210.5,29.2 210.1,29.2 C209.7,29.2 209.3,29.1 209,28.8 C208.6,28.5 208.4,28.1 208.4,27.7 C208.4,27.3 208.6,26.9 208.9,26.6 C209.2,26.4 209.5,26.2 209.9,26.2 C210.5,26.2 210.9,26.4 211.2,26.9 C211.4,27.1 211.5,27.2 211.6,27.2 C211.8,27.2 212,27 212.2,26.5 L214.2,21 L209.1,9.6 L207.8,9.6 L207.8,8.8 L214.3,8.8 L214.3,9.6 L212.2,9.6 L215.5,17.5 Z"></path>
                    <polygon points="243.4 10.9 235.3 10.9 235.3 20.2 237.8 20.2 237.8 21 229.5 21 229.5 20.2 232 20.2 232 1.2 229.5 1.2 229.5 0.4 237.8 0.4 237.8 1.2 235.3 1.2 235.3 10 243.4 10 243.4 1.2 240.9 1.2 240.9 0.4 249.2 0.4 249.2 1.2 246.7 1.2 246.7 20.1 249.2 20.1 249.2 21 240.9 21 240.9 20.2 243.4 20.2"></polygon>
                    <path d="M261.3,14 L253.4,14 C253.4,14.4 253.4,14.7 253.4,14.8 C253.4,16.1 253.4,17.1 253.5,17.6 C253.6,19.4 254.6,20.4 256.3,20.4 C257.4,20.4 258.4,19.9 259.2,19 C259.6,18.5 259.9,17.8 260.2,17 L261.1,17 C260.9,18.2 260.4,19.2 259.6,20 C258.7,20.9 257.6,21.4 256.2,21.4 C254.8,21.4 253.6,20.9 252.5,19.8 C251.1,18.5 250.4,16.9 250.4,15 C250.4,13.1 251.1,11.4 252.6,10 C253.6,9 254.8,8.5 256.1,8.5 C257.3,8.5 258.4,8.9 259.3,9.6 C260.2,10.3 260.9,11.3 261.2,12.4 C261.2,12.8 261.3,13.3 261.3,14 Z M258.2,13.1 C258.2,11.7 258.1,10.9 257.9,10.5 C257.6,9.8 256.9,9.4 256,9.4 C254.9,9.4 254.2,9.7 253.8,10.4 C253.6,10.8 253.5,11.3 253.5,12 C253.5,12 253.5,12.3 253.5,12.7 C253.5,12.8 253.5,13 253.5,13.1 L258.2,13.1 L258.2,13.1 Z"></path>
                    <path d="M274.7,19.8 L275.1,20.4 C274.5,21 273.8,21.3 273,21.3 C271.5,21.3 270.7,20.5 270.5,18.9 C270.2,19.4 269.9,19.8 269.6,20.1 C268.7,20.9 267.7,21.3 266.6,21.3 C265.5,21.3 264.7,21 264.1,20.3 C263.6,19.8 263.4,19.2 263.4,18.4 C263.4,16.8 264.3,15.6 266.2,14.8 C267.2,14.4 268.7,14.1 270.6,14.1 L270.6,12.1 C270.6,11.2 270.6,10.7 270.5,10.5 C270.3,9.7 269.7,9.3 268.5,9.3 C267.8,9.3 267.2,9.5 266.6,9.8 C266.3,10 266.2,10.2 266.2,10.4 C266.2,10.5 266.2,10.6 266.3,10.7 C266.6,11 266.7,11.4 266.7,11.7 C266.7,12.1 266.6,12.4 266.4,12.6 C266.2,12.9 265.9,13 265.5,13 C265.2,13 264.9,12.9 264.6,12.7 C264.3,12.5 264.2,12.1 264.2,11.7 C264.2,11 264.5,10.4 265.1,9.9 C266.1,9 267.4,8.6 268.9,8.6 C270.5,8.6 271.7,9 272.5,9.9 C272.9,10.3 273.1,10.8 273.2,11.4 C273.2,11.6 273.2,12.3 273.2,13.5 L273.2,16.9 C273.2,18.7 273.2,19.8 273.3,19.9 C273.4,20.1 273.6,20.2 273.8,20.2 C274,20.2 274.3,20 274.7,19.8 Z M270.4,14.9 C269,15 267.9,15.2 267.3,15.6 C266.4,16.1 265.9,16.9 265.9,17.9 C265.9,18.5 266.1,19 266.4,19.3 C266.7,19.6 267.1,19.7 267.7,19.7 C268.6,19.7 269.3,19.3 269.9,18.4 C270.2,17.9 270.4,16.9 270.4,15.4 L270.4,14.9 Z"></path>
                    <polygon points="278.6 20.1 278.6 1.2 276.6 1.2 276.6 0.4 281.4 0.4 281.4 20.2 283.4 20.2 283.4 21 276.6 21 276.6 20.2 278.6 20.2"></polygon>
                    <path d="M289,4.1 L289,8.7 L292.1,8.7 L292.1,9.5 L289,9.5 L289,18.2 C289,18.9 289.1,19.3 289.2,19.5 C289.5,19.9 289.9,20 290.4,20 C291.2,20 291.7,19.5 291.9,18.6 L292.7,18.6 C292.6,19.2 292.4,19.7 292.1,20.1 C291.5,20.9 290.6,21.2 289.5,21.2 C288.4,21.2 287.5,20.8 286.9,20.1 C286.6,19.7 286.4,19.3 286.4,18.9 C286.4,18.6 286.3,18 286.3,17.2 L286.3,9.4 L284.5,9.4 L284.5,8.7 C285.7,8.2 286.6,7.6 287.2,6.9 C287.7,6.3 288.2,5.3 288.6,4 L289,4 L289,4.1 Z"></path>
                    <path d="M296.3,20.1 L296.3,1.2 L294.3,1.2 L294.3,0.4 L299.1,0.4 L299.1,11 C299.5,10.4 299.8,9.9 300.2,9.7 C301.1,9 302.3,8.6 303.6,8.6 C305,8.6 306.1,9 306.7,9.7 C307,10.1 307.2,10.5 307.3,11 C307.3,11.3 307.4,12 307.4,13 L307.4,20.2 L309.4,20.2 L309.4,21 L302.8,21 L302.8,20.2 L304.6,20.2 L304.6,13 C304.6,12 304.6,11.3 304.5,11.1 C304.4,10.2 303.7,9.7 302.6,9.7 C301.8,9.7 301,10 300.4,10.5 C299.8,11.1 299.4,11.8 299.2,12.8 C299.1,13.5 299,14.5 299,15.8 L299,20.2 L300.8,20.2 L300.8,21 L294.2,21 L294.2,20.2 L296.3,20.2 L296.3,20.1 Z"></path>
                </g>
                <g>
                    <rect id="Rectangle-path" fill="#000000" x="0.7" y="0.6" width="70.7" height="81.4"></rect>
                    <rect id="Rectangle-path" fill="#FFFFFF" x="1.6" y="1.6" width="68.8" height="79.5"></rect>
                    <rect id="Rectangle-path" fill="#000000" x="4" y="3.9" width="64.1" height="74.8"></rect>
                    <g transform="translate(8.000000, 65.000000)" id="Shape" fill="#FFFFFF">
                        <path d="M9.6,1.4 L9.6,1 L5.8,1.1 L5.9,1.5 C7,1.5 7.1,1.8 7.1,3.5 L7.2,4.3 L3.5,4.4 L3.5,3.5 C3.5,1.8 3.7,1.5 4.8,1.5 L4.7,1 L0.9,1.1 L1,1.5 C2.1,1.5 2.2,1.8 2.2,3.5 L2.2,6.3 C2.2,8 2,8.3 0.9,8.4 L1,8.8 L4.8,8.8 L4.7,8.4 C3.6,8.4 3.5,8.1 3.5,6.4 L3.4,5.1 L7.1,5.1 L7.1,6.4 C7.1,8.1 6.9,8.4 5.8,8.5 L5.9,8.9 L9.7,8.9 L9.6,8.4 C8.5,8.4 8.4,8.1 8.4,6.4 L8.4,3.6 C8.3,1.7 8.6,1.5 9.6,1.4 Z"></path>
                        <path d="M17.5,6.6 L17.4,7 C17.2,7.7 17,8 15.5,8 L15.3,8 C14.2,8 14.1,7.7 14.1,6 L14,5 L14.1,5 C15.7,5 15.8,5.2 15.9,6.4 L16.3,6.3 L16.2,2.8 L15.9,3 C15.9,4.2 15.8,4.3 14.2,4.3 L14.2,4.4 L14,1.8 L15.1,1.8 C16.6,1.8 16.8,2.1 16.9,2.9 L17,3.3 L17.4,3.2 L17.3,1 L11.5,1.1 L11.6,1.5 C12.7,1.5 12.8,1.8 12.8,3.5 L12.8,6.3 C12.8,8 12.6,8.3 11.5,8.4 L11.6,8.8 L17.8,8.8 L17.9,6.7 L17.9,6.6 L17.9,6.6 L17.9,6.5 L17.5,6.6 Z"></path>
                        <path d="M26.3,6.8 L23.8,0.7 L23.5,0.7 L21.1,6.7 C20.6,8 20.4,8.2 19.4,8.2 L19.5,8.6 L22.7,8.6 L22.6,8.2 C22,8.2 21.7,8.1 21.6,8 C21.5,7.8 21.6,7.5 21.8,7 L22.1,6.2 L24.7,6.2 L25,7 C25.2,7.6 25.3,7.9 25.2,8 C25.1,8.2 24.8,8.2 24.2,8.3 L24.3,8.7 L28,8.7 L27.9,8.2 C27,8.3 26.8,8.1 26.3,6.8 Z M22.3,5.6 L23.3,3 L24.1,4.8 L24.4,5.5 L22.9,5.5 L22.3,5.5 L22.3,5.6 Z"></path>
                        <path d="M35.8,6.6 L35.7,7 C35.5,7.8 35.3,8.1 33.8,8.1 L33.2,8.1 C32.1,8.1 32,7.8 32,6.1 L32,3.6 C32,1.9 32.2,1.6 33.3,1.6 L33.3,1 L29.5,1.1 L29.6,1.5 C30.7,1.5 30.8,1.8 30.8,3.5 L30.8,6.3 C30.8,8 30.6,8.3 29.5,8.4 L29.6,8.8 L36.2,8.8 L36.3,6.7 L36.3,6.6 L36.3,6.6 L36.3,6.5 L35.8,6.6 Z"></path>
                        <path d="M37.2,1.1 L37.1,3.2 L37.1,3.3 L37.1,3.3 L37.1,3.3 L37.5,3.3 L37.6,2.9 C37.8,2.1 37.9,1.8 39.4,1.8 L40.3,1.8 L40.3,6.3 C40.3,8 40.1,8.3 39,8.4 L39.1,8.8 L42.9,8.8 L42.8,8.3 C41.7,8.3 41.5,8 41.5,6.3 L41.4,1.8 L42.3,1.8 C43.8,1.8 43.9,2.1 44.1,2.9 L44.2,3.3 L44.6,3.2 L44.5,1 L37.2,1.1 Z"></path>
                        <path d="M53.9,6.3 L53.9,3.5 C53.9,1.7 54.1,1.5 55.2,1.5 L55.2,1 L51.4,1.1 L51.5,1.5 C52.6,1.5 52.7,1.8 52.7,3.5 L52.8,4.3 L49,4.4 L49,3.5 C49,1.8 49.2,1.5 50.3,1.5 L50.3,1 L46.5,1.1 L46.6,1.5 C47.7,1.5 47.8,1.8 47.8,3.5 L47.8,6.3 C47.8,8 47.6,8.3 46.5,8.4 L46.6,8.8 L50.4,8.8 L50.3,8.4 C49.2,8.4 49.1,8.1 49.1,6.4 L49,5.1 L52.7,5.1 L52.7,6.4 C52.7,8.1 52.5,8.4 51.4,8.5 L51.5,8.9 L55.3,8.9 L55.2,8.4 C54.1,8.3 53.9,8 53.9,6.3 Z"></path>
                    </g>
                    <rect id="Rectangle-path" fill="#B30838" x="10.6" y="10.5" width="50.9" height="47.8"></rect>
                    <g transform="translate(17.000000, 17.000000)">
                        <g transform="translate(13.000000, 0.000000)">
                            <rect id="Rectangle-path" fill="url(#linearGradient-1)" x="0" y="0.1" width="12" height="3.9"></rect>
                            <rect id="Rectangle-path" fill="url(#linearGradient-2)" x="0" y="2.1" width="12" height="2"></rect>
                            <rect id="Rectangle-path" fill="url(#linearGradient-3)" x="6" y="2.1" width="6" height="2"></rect>
                            <polygon id="Shape" fill="url(#linearGradient-4)" points="0 0.1 2.3 2.1 0 4"></polygon>
                            <polygon id="Shape" fill="url(#linearGradient-5)" points="12 0.1 9.7 2.1 12 4"></polygon>
                        </g>
                        <g transform="translate(0.000000, 5.000000)">
                            <rect id="Rectangle-path" fill="url(#linearGradient-6)" x="0.1" y="0.6" width="12" height="3.9"></rect>
                            <rect id="Rectangle-path" fill="url(#linearGradient-7)" x="0.1" y="2.5" width="12" height="2"></rect>
                            <rect id="Rectangle-path" fill="url(#linearGradient-8)" x="6.1" y="2.5" width="6" height="2"></rect>
                            <polygon id="Shape" fill="url(#linearGradient-9)" points="0.1 0.6 2.5 2.5 0.1 4.5"></polygon>
                            <polygon id="Shape" fill="url(#linearGradient-10)" points="12.2 0.6 9.8 2.5 12.2 4.5"></polygon>
                        </g>
                        <g transform="translate(25.000000, 5.000000)">
                            <rect id="Rectangle-path" fill="url(#linearGradient-11)" x="0.8" y="0.6" width="12" height="3.9"></rect>
                            <rect id="Rectangle-path" fill="url(#linearGradient-12)" x="0.8" y="2.5" width="12" height="2"></rect>
                            <rect id="Rectangle-path" fill="url(#linearGradient-13)" x="6.9" y="2.5" width="6" height="2"></rect>
                            <polygon id="Shape" fill="url(#linearGradient-14)" points="0.8 0.6 3.2 2.5 0.8 4.5"></polygon>
                            <polygon id="Shape" fill="url(#linearGradient-15)" points="12.9 0.6 10.5 2.5 12.9 4.5"></polygon>
                        </g>
                        <polygon id="Shape" fill="url(#linearGradient-16)" points="35.4 31.8 31.9 29.6 28.3 28.2 28.3 9.5 31.9 7.5 35.4 9.5"></polygon>
                        <polygon id="Shape" fill="url(#linearGradient-17)" points="35.4 31.8 31.9 29.6 31.9 7.5 35.4 9.5"></polygon>
                        <polygon id="Shape" fill="url(#linearGradient-18)" points="31.9 35.4 22.6 35.4 19 31.8 22.6 28.2 28.3 28.2 30.1 31.8"></polygon>
                        <polygon id="Shape" fill="#FFFFFF" points="31.9 29.6 30.1 31.8 19 31.8 22.6 28.2 28.3 28.2"></polygon>
                        <polygon id="Shape" fill="url(#linearGradient-19)" points="30.1 31.8 19 31.8 22.6 28.2 28.3 28.2"></polygon>
                        <polygon id="Shape" fill="url(#linearGradient-20)" points="30.1 31.8 31.9 35.4 35.4 31.8 31.9 29.6"></polygon>
                        <rect id="Rectangle-path" fill="url(#linearGradient-21)" x="13" y="41.3" width="12" height="3.9"></rect>
                        <rect id="Rectangle-path" fill="url(#linearGradient-22)" x="13" y="43.3" width="12" height="2"></rect>
                        <rect id="Rectangle-path" fill="url(#linearGradient-23)" x="13" y="43.3" width="6" height="2"></rect>
                        <polygon id="Shape" fill="url(#linearGradient-24)" points="25 41.3 22.7 43.3 25 45.2"></polygon>
                        <polygon id="Shape" fill="url(#linearGradient-25)" points="13 41.3 15.3 43.3 13 45.2"></polygon>
                        <polygon id="Shape" fill="url(#linearGradient-26)" points="22.6 28.2 19 31.8 19 2.1 22.7 4"></polygon>
                        <polygon id="Shape" fill="url(#linearGradient-27)" points="15.4 28.2 19 31.8 19 2.1 15.4 4"></polygon>
                        <polygon id="Shape" fill="url(#linearGradient-28)" points="22.6 41.3 19 43.3 19 31.8 22.6 35.4"></polygon>
                        <polygon id="Shape" fill="url(#linearGradient-29)" points="15.4 41.3 19 43.3 19 31.8 15.4 35.4"></polygon>
                        <polygon id="Shape" fill="url(#linearGradient-30)" points="2.6 31.8 6.1 29.6 9.7 28.2 9.7 9.5 6.1 7.5 2.6 9.5"></polygon>
                        <polygon id="Shape" fill="url(#linearGradient-31)" points="2.6 31.8 6.1 29.6 6.1 7.5 2.6 9.5"></polygon>
                        <polygon id="Shape" fill="url(#linearGradient-32)" points="6.1 35.4 15.4 35.4 19 31.8 15.4 28.2 9.7 28.2"></polygon>
                        <polygon id="Shape" fill="url(#linearGradient-33)" points="6.1 29.6 7.9 31.8 19 31.8 15.4 28.2 9.7 28.2"></polygon>
                        <polygon id="Shape" fill="url(#linearGradient-34)" points="7.9 31.8 19 31.8 15.4 28.2 9.7 28.2"></polygon>
                        <polygon id="Shape" fill="url(#linearGradient-35)" points="7.9 31.8 6.1 35.4 2.6 31.8 6.1 29.6"></polygon>
                        <g transform="translate(13.000000, 0.000000)" id="Shape" fill="#FFFFFF">
                            <polygon opacity="0" points="9.7 2.1 2.3 2.1 0 0.2 0 0.1 0 0.1 2.3 2 9.7 2 12 0.1 12 0.1 12 0.2"></polygon>
                            <polygon opacity="0.5" points="0 0.1 2.3 2 9.7 2 12 0.1 12 0.1 12 0.1 9.7 2.1 2.3 2.1 0 0.1"></polygon>
                            <polygon points="2.3 2.1 0 0.1 0 0.1 0 0.1 2.3 2 9.7 2 12 0.1 12 0.1 12 0.1 9.7 2.1"></polygon>
                        </g>
                        <g transform="translate(6.000000, 29.000000)" id="Shape" fill="#FFFFFF">
                            <polygon opacity="0" points="24.1 2.8 1.9 2.8 0.1 0.6 0.2 0.6 2 2.8 24.1 2.8 25.8 0.6 25.9 0.6"></polygon>
                            <path d="M0.1,0.6 L0.1,0.6 L1.9,2.8 L24,2.8 L25.8,0.6 L25.8,0.6 L25.8,0.6 L25.8,0.6 L24,2.8 L1.9,2.8 C1.9,2.8 0.1,0.6 0.1,0.6 Z" opacity="0.5"></path>
                            <polygon points="1.9 2.8 0.1 0.6 0.2 0.6 2 2.8 24.1 2.8 25.9 0.6 25.9 0.6 25.9 0.6 24.1 2.8"></polygon>
                        </g>
                        <g transform="translate(18.000000, 2.000000)" id="Rectangle-path" fill="#FFFFFF">
                            <rect opacity="0" x="1" y="0.1" width="1" height="29.8"></rect>
                            <rect opacity="0.5" x="1" y="0.1" width="1" height="29.8"></rect>
                            <rect x="1" y="0.1" width="1" height="29.8"></rect>
                        </g>
                        <g transform="translate(13.000000, 41.000000)" id="Shape" fill="#FFFFFF">
                            <polygon opacity="0" points="9.7 2.3 2.3 2.3 0 0.4 0 0.4 0 0.3 2.3 2.2 9.7 2.2 12 0.4 12 0.4 12 0.4"></polygon>
                            <polygon opacity="0.5" points="0 0.3 2.3 2.2 9.7 2.2 12 0.4 12 0.4 12 0.4 9.7 2.3 2.3 2.3 0 0.4 0 0.4"></polygon>
                            <polygon points="2.3 2.3 0 0.4 0 0.4 0 0.3 2.3 2.3 9.7 2.3 12 0.4 12 0.4 12 0.4 9.7 2.3"></polygon>
                        </g>
                        <g transform="translate(18.000000, 31.000000)" id="Rectangle-path" fill="#FFFFFF">
                            <rect opacity="0" x="1" y="0.8" width="1" height="11.5"></rect>
                            <rect opacity="0.5" x="1" y="0.8" width="1" height="11.5"></rect>
                            <rect x="1" y="0.8" width="1" height="11.5"></rect>
                        </g>
                        <g transform="translate(31.000000, 7.000000)" id="Rectangle-path" fill="#FFFFFF">
                            <rect opacity="0" x="0.8" y="0.5" width="1" height="22.1"></rect>
                            <rect opacity="0.5" x="0.8" y="0.5" width="1" height="22.1"></rect>
                            <rect x="0.8" y="0.5" width="1" height="22.1"></rect>
                        </g>
                        <g transform="translate(6.000000, 7.000000)" id="Shape" fill="#FFFFFF">
                            <polygon opacity="0" points="0.2 22.6 0.1 22.6 0.1 0.5 0.2 0.5"></polygon>
                            <polygon opacity="0.5" points="0.2 0.5 0.2 22.6 0.1 22.6 0.1 0.5"></polygon>
                            <polygon points="0.1 22.6 0.1 0.5 0.2 0.5 0.2 22.6"></polygon>
                        </g>
                        <g transform="translate(0.000000, 5.000000)" id="Shape" fill="#FFFFFF">
                            <polygon opacity="0" points="9.8 2.5 2.5 2.5 0.1 0.6 0.1 0.6 0.2 0.6 2.5 2.5 9.8 2.5 12.1 0.6 12.2 0.6 12.2 0.6"></polygon>
                            <polygon opacity="0.5" points="0.2 0.6 2.5 2.5 9.8 2.5 12.1 0.6 12.2 0.6 12.2 0.6 9.8 2.5 2.5 2.5 0.1 0.6 0.1 0.6"></polygon>
                            <polygon points="2.5 2.5 0.1 0.6 0.1 0.6 0.2 0.6 2.5 2.5 9.8 2.5 12.1 0.6 12.2 0.6 12.2 0.6 9.8 2.5"></polygon>
                        </g>
                        <g transform="translate(25.000000, 5.000000)" id="Shape" fill="#FFFFFF">
                            <polygon opacity="0" points="10.5 2.5 3.2 2.5 0.8 0.6 0.8 0.6 0.9 0.6 3.2 2.5 10.5 2.5 12.8 0.6 12.9 0.6 12.9 0.6"></polygon>
                            <polygon opacity="0.5" points="0.9 0.6 3.2 2.5 10.5 2.5 12.8 0.6 12.9 0.6 12.9 0.6 10.5 2.5 3.2 2.5 0.8 0.6 0.8 0.6"></polygon>
                            <polygon points="3.2 2.5 0.8 0.6 0.8 0.6 0.9 0.6 3.2 2.5 10.5 2.5 12.8 0.6 12.9 0.6 12.9 0.6 10.5 2.5"></polygon>
                        </g>
                    </g>
                </g>
            </g>
        </g>
    </g>
</svg>
