<svg width="1179px" height="429px" viewBox="0 0 1179 429" version="1.1" xmlns="http://www.w3.org/2000/svg" xmlns:xlink="http://www.w3.org/1999/xlink">
    <!-- Generator: Sketch 47.1 (45422) - http://www.bohemiancoding.com/sketch -->
    <desc>Created with Sketch.</desc>
    <defs></defs>
    <g id="Desktop" stroke="none" stroke-width="1" fill="none" fill-rule="evenodd" opacity="0.15">
        <path d="M107.84,199 L65.99,135.82 L39.8,135.82 L39.8,199 L0.65,199 L0.65,0.28 L60.86,0.28 C85.5201233,0.28 104.644932,6.26494015 118.235,18.235 C131.825068,30.2050598 138.62,46.5398965 138.62,67.24 C138.62,79.4800612 136.055026,90.9549465 130.925,101.665 C125.794974,112.375054 117.920053,120.789969 107.3,126.91 L153.47,199 L107.84,199 Z M39.8,98.02 L67.61,98.02 C78.2300531,98.02 85.9699757,94.915031 90.83,88.705 C95.6900243,82.4949689 98.12,75.790036 98.12,68.59 C98.12,61.389964 96.0500207,54.5050329 91.91,47.935 C87.7699793,41.3649671 79.7600594,38.08 67.88,38.08 L39.8,38.08 L39.8,98.02 Z M321.41,0.28 L321.41,38.08 L225.02,38.08 L225.02,80.47 L310.34,80.47 L310.34,118.27 L225.02,118.27 L225.02,161.2 L325.19,161.2 L325.19,199 L185.87,199 L185.87,0.28 L321.41,0.28 Z M404.84,0.28 L404.84,161.2 L498.26,161.2 L498.26,199 L365.69,199 L365.69,0.28 L404.84,0.28 Z M577.91,0.28 L577.91,199 L538.76,199 L538.76,0.28 L577.91,0.28 Z M793.64,0.28 L702.92,208.18 L612.2,0.28 L659.18,0.28 L704.54,112.33 L747.2,0.28 L793.64,0.28 Z M963.47,0.28 L963.47,38.08 L867.08,38.08 L867.08,80.47 L952.4,80.47 L952.4,118.27 L867.08,118.27 L867.08,161.2 L967.25,161.2 L967.25,199 L827.93,199 L827.93,0.28 L963.47,0.28 Z M107.84,419 L65.99,355.82 L39.8,355.82 L39.8,419 L0.65,419 L0.65,220.28 L60.86,220.28 C85.5201233,220.28 104.644932,226.26494 118.235,238.235 C131.825068,250.20506 138.62,266.539896 138.62,287.24 C138.62,299.480061 136.055026,310.954946 130.925,321.665 C125.794974,332.375054 117.920053,340.789969 107.3,346.91 L153.47,419 L107.84,419 Z M39.8,318.02 L67.61,318.02 C78.2300531,318.02 85.9699757,314.915031 90.83,308.705 C95.6900243,302.494969 98.12,295.790036 98.12,288.59 C98.12,281.389964 96.0500207,274.505033 91.91,267.935 C87.7699793,261.364967 79.7600594,258.08 67.88,258.08 L39.8,258.08 L39.8,318.02 Z M321.41,220.28 L321.41,258.08 L225.02,258.08 L225.02,300.47 L310.34,300.47 L310.34,338.27 L225.02,338.27 L225.02,381.2 L325.19,381.2 L325.19,419 L185.87,419 L185.87,220.28 L321.41,220.28 Z M530.12,220.28 L439.4,428.18 L348.68,220.28 L395.66,220.28 L441.02,332.33 L483.68,220.28 L530.12,220.28 Z M770.42,381.2 L770.42,419 L641.09,419 L655.67,404.42 C672.590085,387.139914 685.684954,373.280052 694.955,362.84 C704.225046,352.399948 711.964969,341.825054 718.175,331.115 C724.385031,320.404946 727.49,310.190049 727.49,300.47 C727.49,292.909962 724.970025,286.880022 719.93,282.38 C714.889975,277.879977 708.230041,275.63 699.95,275.63 C692.02996,275.63 685.730023,277.699979 681.05,281.84 C676.369977,285.980021 674.03,290.659974 674.03,295.88 C674.03,306.500053 677.539965,315.499963 684.56,322.88 L660.53,344.75 C655.669976,342.409988 651.350019,338.360029 647.57,332.6 C643.789981,326.839971 640.91001,320.630033 638.93,313.97 C636.94999,307.309967 635.96,301.640023 635.96,296.96 C635.96,286.87995 638.749972,277.295045 644.33,268.205 C649.910028,259.114955 658.054946,251.780028 668.765,246.2 C679.475054,240.619972 692.119927,237.83 706.7,237.83 C718.580059,237.83 729.199953,240.574973 738.56,246.065 C747.920047,251.555027 755.209974,258.889954 760.43,268.07 C765.650026,277.250046 768.26,286.969949 768.26,297.23 C768.26,306.770048 766.415018,316.129954 762.725,325.31 C759.034982,334.490046 754.355028,343.174959 748.685,351.365 C743.014972,359.555041 735.500047,369.499942 726.14,381.2 L770.42,381.2 Z M830.36,409.415 C819.019943,402.664966 810.020033,392.495068 803.36,378.905 C796.699967,365.314932 793.37,348.5301 793.37,328.55 C793.37,267.709696 818.479749,237.469998 868.7,237.83 C882.920071,237.649999 895.699943,240.934966 907.04,247.685 C918.380057,254.435034 927.379967,264.604932 934.04,278.195 C940.700033,291.785068 944.03,308.5699 944.03,328.55 C944.03,349.070103 940.700033,366.124932 934.04,379.715 C927.379967,393.305068 918.380057,403.339968 907.04,409.82 C895.699943,416.300032 882.920071,419.450001 868.7,419.27 C854.479929,419.450001 841.700057,416.165034 830.36,409.415 Z M895.295,367.16 C900.605027,357.439951 903.26,344.210084 903.26,327.47 C903.26,292.909827 891.650116,275.63 868.43,275.63 C856.009938,275.63 847.190026,280.309953 841.97,289.67 C836.749974,299.030047 834.14,311.899918 834.14,328.28 C834.14,344.840083 836.749974,357.889952 841.97,367.43 C847.190026,376.970048 856.009938,381.74 868.43,381.74 C881.030063,381.74 889.984973,376.880049 895.295,367.16 Z M1020.71,239.99 L1020.71,419 L981.29,419 L981.29,277.79 L966.98,277.79 L966.98,239.99 L1020.71,239.99 Z M1178.12,239.99 L1111.43,419 L1067.69,419 L1121.42,277.79 L1057.16,277.79 L1057.16,239.99 L1178.12,239.99 Z" id="Relive-Rev-2017" fill="#EF4550"></path>
    </g>
</svg>
