<?xml version="1.0" encoding="UTF-8"?>
<svg width="27px" height="22px" viewBox="0 0 27 22" version="1.1" xmlns="http://www.w3.org/2000/svg" xmlns:xlink="http://www.w3.org/1999/xlink">
    <!-- Generator: Sketch 47.1 (45422) - http://www.bohemiancoding.com/sketch -->
    <title>twitter</title>
    <desc>Created with Sketch.</desc>
    <defs></defs>
    <g id="Symbols" stroke="none" stroke-width="1" fill="none" fill-rule="evenodd">
        <g id="Footer" transform="translate(-1146.000000, -94.000000)" fill="#981E32">
            <g id="footer15" transform="translate(-1.000000, 44.000000)">
                <g id="social" transform="translate(1069.000000, 46.000000)">
                    <path d="M105,6.60423909 C104.006675,7.04603931 102.938965,7.34449811 101.818606,7.47877073 C102.962185,6.79143569 103.840626,5.70304242 104.254129,4.40606639 C103.183719,5.04264312 101.99829,5.50474667 100.736451,5.75380072 C99.7261164,4.67434091 98.2864836,4 96.6932215,4 C93.6341368,4 91.1537942,6.48661519 91.1537942,9.55376996 C91.1537942,9.98907312 91.202799,10.4130064 91.2971635,10.8194789 C86.6934165,10.5878857 82.6118469,8.37671886 79.8798656,5.01651952 C79.403048,5.83677362 79.1298094,6.79075891 79.1298094,7.80863199 C79.1298094,9.73555234 80.1077445,11.4354816 81.594087,12.4314271 C80.6859466,12.4025964 79.8319408,12.1527302 79.0851246,11.7367828 C79.0845846,11.7599286 79.0845846,11.7832098 79.0845846,11.8066263 C79.0845846,14.4974928 80.994015,16.7422278 83.5280874,17.2525179 C83.0632847,17.3794813 82.5739121,17.4472944 82.0686097,17.4472944 C81.7115364,17.4472944 81.3645882,17.4123727 81.0262799,17.3476728 C81.7313813,19.5541022 83.7768911,21.1599594 86.200939,21.2046267 C84.3051435,22.6943489 81.9167354,23.5821454 79.3213734,23.5821454 C78.8742556,23.5821454 78.4333478,23.5558864 78,23.5044513 C80.4514527,25.080395 83.3632532,26 86.4913225,26 C96.6801266,26 102.251819,17.5370351 102.251819,10.1976559 C102.251819,9.95685852 102.246419,9.71741471 102.235754,9.47905374 C103.318313,8.69615775 104.257369,7.71794383 105,6.60423909 L105,6.60423909 Z" id="twitter"></path>
                </g>
            </g>
        </g>
    </g>
</svg>