<?xml version="1.0" encoding="UTF-8"?>
<svg width="93px" height="30px" viewBox="0 0 93 30" version="1.1" xmlns="http://www.w3.org/2000/svg" xmlns:xlink="http://www.w3.org/1999/xlink">
    <!-- Generator: Sketch 47.1 (45422) - http://www.bohemiancoding.com/sketch -->
    <title>Group</title>
    <desc>Created with Sketch.</desc>
    <defs></defs>
    <g id="Page-1" stroke="none" stroke-width="1" fill="none" fill-rule="evenodd">
        <g id="lockup-primary" transform="translate(-677.000000, -27.000000)">
            <g id="Group" transform="translate(677.000000, 27.000000)">
                <g id="Shape">
                    <g transform="translate(49.000000, 0.000000)" fill-rule="nonzero">
                        <polygon fill="#ED1C24" points="43 0.4 40.6 5.5 39.7 3.6 38.8 3.6 40.2 6.8 41 6.8 44 0.4"></polygon>
                        <path d="M32.8,9.9 L34.7,9.9 L34.7,6.4 C34.7,5.6 35.2,5 35.9,5 C36.6,5 36.9,5.5 36.9,6.1 L36.9,9.9 L38.8,9.9 L38.8,5.8 C38.8,4.4 38,3.4 36.6,3.4 C35.7,3.4 35.1,3.8 34.7,4.5 L34.7,4.5 L34.7,3.6 L32.8,3.6 L32.8,9.9 Z M29.1,3.4 C27.1,3.4 25.7,4.8 25.7,6.8 C25.7,8.7 27,10.2 29.1,10.2 C31.1,10.2 32.5,8.7 32.5,6.8 C32.4,4.9 31.1,3.4 29.1,3.4 Z M29,8.7 C28.1,8.7 27.6,7.9 27.6,6.8 C27.6,5.6 28.1,4.9 29,4.9 C29.9,4.9 30.4,5.7 30.4,6.8 C30.5,7.9 30,8.7 29,8.7 Z M20.2,9.9 L25.6,9.9 L25.6,8.4 L22.5,8.4 L22.5,8.4 L25.4,5.1 L25.4,3.6 L20.1,3.6 L20.1,5.1 L23.1,5.1 L23.1,5.1 L20.1,8.4 L20.1,9.9 L20.2,9.9 Z M17.7,9.9 L19.6,9.9 L19.6,3.6 L17.7,3.6 L17.7,9.9 Z M13.2,9.9 L15.1,9.9 L15.1,7 C15.1,5.7 15.9,5.1 17.1,5.3 L17.1,5.3 L17.1,3.6 C17,3.6 16.9,3.6 16.7,3.6 C15.9,3.6 15.4,3.9 15,4.7 L15,4.7 L15,3.6 L13.2,3.6 L13.2,9.9 Z M9.7,8.7 C8.8,8.7 8.3,8.1 8.2,7.3 L12.8,7.3 C12.8,5.9 12.5,4.9 11.7,4.2 C11.2,3.7 10.5,3.4 9.6,3.4 C7.7,3.4 6.4,4.8 6.4,6.7 C6.4,8.6 7.7,10.1 9.8,10.1 C10.6,10.1 11.2,9.9 11.7,9.5 C12.3,9.1 12.7,8.6 12.8,8 L10.9,8 C10.6,8.5 10.3,8.7 9.7,8.7 Z M9.6,4.8 C10.3,4.8 10.8,5.3 10.8,6 L8.2,6 C8.4,5.3 8.8,4.8 9.6,4.8 Z M2.5,9.9 L4.5,9.9 L6.7,3.6 L4.8,3.6 L3.6,7.7 L3.6,7.7 L2.4,3.6 L0.4,3.6 L2.5,9.9 Z M17.7,1.3 L19.6,1.3 L19.6,3 L17.7,3 L17.7,1.3 Z M13.3,20.3 C12.9,20.3 12.5,20.2 12.1,20 C11.8,19.9 11.5,19.6 11.3,19.4 C11,19.1 10.9,18.7 10.7,18.3 C10.6,17.9 10.5,17.4 10.5,17 C10.5,16.5 10.6,16 10.7,15.6 C10.8,15.2 11,14.9 11.2,14.6 C11.4,14.3 11.7,14.1 12,13.9 C12.4,13.7 12.7,13.6 13.2,13.6 C13.6,13.6 14,13.7 14.2,13.8 C14.5,14 14.7,14.2 14.9,14.5 L14.9,14.5 L14.9,11.3 L16.8,11.3 L16.8,20.2 L15,20.2 L15,19.3 L15,19.3 C14.8,19.6 14.5,19.9 14.2,20.1 C14.1,20.2 13.7,20.3 13.3,20.3 Z M13.8,18.7 C14.2,18.7 14.6,18.5 14.8,18.2 C15,17.9 15.2,17.4 15.2,16.9 C15.2,16.6 15.2,16.4 15.1,16.1 C15,15.9 15,15.7 14.8,15.5 C14.7,15.4 14.6,15.2 14.4,15.2 C14.2,15.1 14,15.1 13.8,15.1 C13.4,15.1 13.1,15.3 12.8,15.6 C12.6,15.9 12.5,16.4 12.5,16.9 C12.5,17.5 12.6,17.9 12.8,18.2 C13.1,18.5 13.4,18.7 13.8,18.7 Z M18.2,22.1 L18.2,20.6 L18.9,20.6 C19.2,20.6 19.4,20.5 19.6,20.4 C19.7,20.3 19.8,20.1 19.8,19.9 C19.8,19.8 19.8,19.6 19.7,19.4 C19.6,19.2 19.6,19 19.4,18.6 C19.4,18.5 19.3,18.3 19.2,18.2 L17.5,13.7 L19.5,13.7 L20.4,16.4 C20.4,16.5 20.4,16.5 20.4,16.6 C20.4,16.7 20.5,16.8 20.5,16.9 C20.5,17.1 20.6,17.2 20.6,17.4 C20.6,17.5 20.6,17.6 20.7,17.7 C20.7,17.8 20.7,17.9 20.8,17.9 L20.8,17.9 C20.8,17.8 20.9,17.6 20.9,17.4 C20.9,17.3 21,17.1 21,16.9 C21,16.7 21.1,16.6 21.1,16.4 L21.9,13.7 L23.8,13.7 L21.6,20.1 C21.6,20.2 21.5,20.3 21.5,20.4 C21.4,20.7 21.3,20.9 21.2,21.1 C21.1,21.3 20.9,21.5 20.7,21.7 C20.5,21.9 20.3,22 20.1,22 C19.9,22.1 19.6,22.1 19.3,22.1 L18.2,22.1 L18.2,22.1 Z M26.9,20.3 C26.4,20.3 25.9,20.2 25.5,20 C25.1,19.8 24.8,19.6 24.5,19.3 C24.2,19 24,18.6 23.8,18.2 C23.7,17.8 23.6,17.4 23.6,16.9 C23.6,16.4 23.7,15.9 23.8,15.5 C23.9,15.1 24.2,14.8 24.4,14.5 C24.7,14.2 25.1,13.9 25.5,13.8 C25.9,13.6 26.3,13.6 26.8,13.6 C27.2,13.6 27.6,13.7 28,13.8 C28.3,13.9 28.6,14.1 28.9,14.3 C29.2,14.5 29.4,14.8 29.5,15.1 C29.6,15.4 29.7,15.7 29.8,16 L28,16 C27.9,15.7 27.8,15.5 27.6,15.3 C27.4,15.1 27.2,15.1 26.9,15.1 C26.4,15.1 26.1,15.3 25.9,15.6 C25.7,15.9 25.6,16.4 25.6,17 C25.6,17.6 25.7,18 25.9,18.4 C26.1,18.7 26.5,18.9 26.9,18.9 C27.6,18.9 28,18.5 28.1,17.8 L30,17.8 C30,18.1 29.9,18.5 29.8,18.7 C29.7,19 29.5,19.3 29.2,19.6 C28.9,19.8 28.6,20 28.3,20.2 C27.8,20.2 27.4,20.3 26.9,20.3 Z M34.6,20.1 C34.5,20 34.5,19.9 34.5,19.8 C34.5,19.7 34.4,19.6 34.4,19.4 L34.4,19.4 C34.2,19.7 33.9,19.9 33.6,20.1 C33.3,20.2 32.9,20.3 32.5,20.3 C32.2,20.3 31.9,20.3 31.6,20.2 C31.3,20.1 31.1,20 30.9,19.8 C30.7,19.6 30.6,19.4 30.5,19.2 C30.4,19 30.3,18.7 30.3,18.4 C30.3,18.1 30.4,17.8 30.5,17.5 C30.6,17.3 30.8,17.1 31,16.9 C31.2,16.8 31.5,16.6 31.8,16.5 C32.1,16.4 32.4,16.4 32.7,16.3 C32.8,16.3 32.9,16.3 33,16.3 C33.4,16.2 33.8,16.2 33.9,16.1 C34.2,16 34.3,15.8 34.3,15.6 C34.3,15.4 34.2,15.2 34.1,15.1 C34,15 33.7,14.9 33.4,14.9 C33.1,14.9 32.8,15 32.7,15.1 C32.5,15.2 32.4,15.5 32.4,15.7 L30.6,15.7 C30.6,15.4 30.7,15.2 30.8,14.9 C30.9,14.6 31.1,14.4 31.3,14.2 C31.5,14 31.8,13.9 32.1,13.7 C32.5,13.6 32.9,13.5 33.4,13.5 C33.8,13.5 34.2,13.5 34.6,13.6 C34.9,13.7 35.2,13.8 35.5,14 C35.8,14.2 36,14.4 36.1,14.8 C36.2,15.1 36.3,15.5 36.3,15.9 L36.3,19.1 C36.3,19.2 36.3,19.2 36.3,19.3 C36.3,19.5 36.3,19.6 36.3,19.7 C36.3,19.8 36.4,19.9 36.5,20 L36.5,20.1 L34.6,20.1 Z M33,19 C33.4,19 33.7,18.9 34,18.7 C34.2,18.5 34.4,18.2 34.4,17.9 L34.4,17 C34.3,17.1 34.1,17.1 33.9,17.2 C33.8,17.2 33.7,17.3 33.6,17.3 C33.5,17.3 33.4,17.3 33.3,17.4 C32.9,17.5 32.6,17.6 32.4,17.7 C32.2,17.8 32.1,18 32.1,18.3 C32.1,18.6 32.2,18.8 32.3,18.9 C32.5,18.9 32.8,19 33,19 Z M4,29.8 C3.1,29.8 2.3,29.6 1.8,29.2 C1.3,28.8 1,28.3 0.9,27.6 L2.7,27.6 C2.7,27.9 2.9,28.2 3.1,28.3 C3.3,28.4 3.6,28.5 3.9,28.5 C4.2,28.5 4.5,28.4 4.7,28.3 C4.9,28.2 4.9,28 4.9,27.8 C4.9,27.7 4.9,27.5 4.8,27.5 C4.7,27.4 4.6,27.3 4.4,27.3 C4.3,27.3 4.1,27.2 3.9,27.2 C3.7,27.2 3.5,27.1 3.4,27.1 C3.3,27.1 3.1,27 3,27 C2.9,27 2.7,26.9 2.6,26.9 C2.3,26.8 2.1,26.7 1.9,26.6 C1.7,26.5 1.5,26.3 1.4,26 C1.3,25.8 1.2,25.5 1.2,25.1 C1.2,24.8 1.3,24.5 1.4,24.2 C1.5,23.9 1.7,23.7 2,23.6 C2.2,23.4 2.5,23.3 2.9,23.2 C3.2,23.1 3.6,23.1 3.9,23.1 C4.8,23.1 5.5,23.3 6,23.7 C6.5,24.1 6.7,24.6 6.8,25.2 L5,25.2 C5,24.9 4.8,24.7 4.7,24.6 C4.5,24.5 4.3,24.4 4,24.4 C3.7,24.4 3.5,24.5 3.3,24.6 C3.1,24.7 3.1,24.8 3.1,25 C3.1,25.1 3.1,25.2 3.2,25.3 C3.3,25.4 3.4,25.4 3.6,25.5 C3.7,25.5 3.9,25.6 4,25.6 C4.1,25.6 4.2,25.6 4.3,25.6 C4.4,25.6 4.5,25.6 4.6,25.7 C4.9,25.7 5.1,25.8 5.4,25.9 C5.7,26 6,26.1 6.2,26.2 C6.4,26.3 6.6,26.5 6.8,26.8 C7,27.1 7,27.4 7,27.8 C7,28.1 6.9,28.4 6.8,28.7 C6.7,29 6.5,29.2 6.2,29.4 C5.9,29.6 5.6,29.7 5.3,29.8 C4.7,29.7 4.4,29.8 4,29.8 Z M30.2,29.8 C29.3,29.8 28.5,29.6 28,29.2 C27.5,28.8 27.2,28.3 27.1,27.6 L28.9,27.6 C28.9,27.9 29.1,28.2 29.3,28.3 C29.5,28.4 29.8,28.5 30.1,28.5 C30.4,28.5 30.7,28.4 30.9,28.3 C31.1,28.2 31.1,28 31.1,27.8 C31.1,27.7 31.1,27.5 31,27.5 C30.9,27.4 30.8,27.3 30.6,27.3 C30.5,27.3 30.3,27.2 30.1,27.2 C29.9,27.2 29.7,27.1 29.6,27.1 C29.5,27.1 29.3,27 29.2,27 C29.1,27 28.9,26.9 28.8,26.9 C28.5,26.8 28.3,26.7 28.1,26.6 C27.9,26.5 27.7,26.3 27.6,26 C27.5,25.8 27.4,25.5 27.4,25.1 C27.4,24.8 27.5,24.5 27.6,24.2 C27.7,23.9 27.9,23.7 28.2,23.6 C28.4,23.4 28.7,23.3 29.1,23.2 C29.4,23.1 29.8,23.1 30.1,23.1 C31,23.1 31.7,23.3 32.2,23.7 C32.7,24.1 32.9,24.6 33,25.2 L31.2,25.2 C31.2,24.9 31,24.7 30.9,24.6 C30.7,24.5 30.5,24.4 30.2,24.4 C29.9,24.4 29.7,24.5 29.5,24.6 C29.3,24.7 29.3,24.8 29.3,25 C29.3,25.1 29.3,25.2 29.4,25.3 C29.5,25.4 29.6,25.4 29.8,25.5 C29.9,25.5 30.1,25.6 30.2,25.6 C30.3,25.6 30.4,25.6 30.5,25.6 C30.6,25.6 30.7,25.6 30.8,25.7 C31.1,25.7 31.3,25.8 31.6,25.9 C31.9,26 32.2,26.1 32.4,26.2 C32.6,26.3 32.8,26.5 33,26.8 C33.2,27.1 33.2,27.4 33.2,27.8 C33.2,28.1 33.1,28.4 33,28.7 C32.9,29 32.7,29.2 32.4,29.4 C32.1,29.6 31.8,29.7 31.5,29.8 C31,29.7 30.6,29.8 30.2,29.8 Z M10.3,28.4 C9.4,28.4 8.9,27.8 8.8,27 L13.4,27 C13.4,25.6 13.1,24.6 12.3,23.9 C11.8,23.4 11.1,23.1 10.2,23.1 C8.3,23.1 7,24.5 7,26.4 C7,28.3 8.3,29.8 10.4,29.8 C11.2,29.8 11.8,29.6 12.3,29.2 C12.9,28.8 13.3,28.3 13.4,27.7 L11.5,27.7 C11.3,28.1 10.9,28.4 10.3,28.4 Z M10.2,24.5 C10.9,24.5 11.4,25 11.4,25.7 L8.8,25.7 C9,25 9.4,24.5 10.2,24.5 Z M23.8,28.4 C22.9,28.4 22.4,27.8 22.3,27 L26.9,27 C26.9,25.6 26.6,24.6 25.8,23.9 C25.3,23.4 24.6,23.1 23.7,23.1 C21.8,23.1 20.5,24.5 20.5,26.4 C20.5,28.3 21.8,29.8 23.9,29.8 C24.7,29.8 25.3,29.6 25.8,29.2 C26.4,28.8 26.8,28.3 26.9,27.7 L25,27.7 C24.8,28.1 24.4,28.4 23.8,28.4 Z M23.7,24.5 C24.4,24.5 24.9,25 24.9,25.7 L22.3,25.7 C22.5,25 22.9,24.5 23.7,24.5 Z M18.2,29.6 L20.1,29.6 L20.1,23.3 L18.2,23.3 L18.2,29.6 Z M13.8,29.6 L15.7,29.6 L15.7,26.7 C15.7,25.4 16.5,24.8 17.7,25 L17.7,25 L17.7,23.3 C17.6,23.3 17.5,23.3 17.3,23.3 C16.5,23.3 16,23.6 15.6,24.4 L15.6,24.4 L15.6,23.3 L13.8,23.3 L13.8,29.6 Z M36.9,20.1 L38.8,20.1 L38.8,17.2 C38.8,15.9 39.6,15.3 40.8,15.5 L40.8,15.5 L40.8,13.8 C40.7,13.8 40.6,13.8 40.4,13.8 C39.6,13.8 39.1,14.1 38.7,14.9 L38.7,14.9 L38.7,13.8 L36.9,13.8 L36.9,20.1 Z M1.5,20.1 L3.4,20.1 L3.4,13.8 L1.5,13.8 L1.5,20.1 Z M1.5,11.5 L3.4,11.5 L3.4,13.2 L1.5,13.2 L1.5,11.5 Z M4.1,20.1 L6,20.1 L6,16.6 C6,15.8 6.5,15.2 7.2,15.2 C7.9,15.2 8.2,15.7 8.2,16.3 L8.2,20.1 L10.1,20.1 L10.1,16 C10.1,14.6 9.3,13.6 7.9,13.6 C7,13.6 6.4,14 6,14.7 L6,14.7 L6,13.8 L4.1,13.8 L4.1,20.1 Z" fill="#000000"></path>
                    </g>
                    <path d="M43.4,4.1 C43.4,4.1 43.5,4.1 43.5,4.2 C43.5,4.1 43.5,4.1 43.4,4.1 Z" fill="#000000" fill-rule="nonzero"></path>
                    <path d="M43.6,4.2 C43.6,4.2 43.7,4.3 43.7,4.3 C43.6,4.2 43.6,4.2 43.6,4.2 Z" fill="#000000" fill-rule="nonzero"></path>
                    <path d="M44.1,4.8 C44.1,4.8 44.1,4.9 44.1,4.9 C44.1,4.9 44.1,4.8 44.1,4.8 Z" fill="#000000" fill-rule="nonzero"></path>
                    <path d="M42.9,3.9 C42.9,3.9 43,3.9 43,3.9 C43,4 43,3.9 42.9,3.9 Z" fill="#000000" fill-rule="nonzero"></path>
                    <path d="M43.3,4 C43.3,4 43.4,4 43.4,4 C43.3,4.1 43.3,4 43.3,4 Z" fill="#000000" fill-rule="nonzero"></path>
                    <path d="M42.7,3.9 C42.8,3.9 42.8,3.9 42.9,3.9 C42.8,3.9 42.7,3.9 42.7,3.9 Z" fill="#000000" fill-rule="nonzero"></path>
                    <path d="M43.1,4 C43.1,4 43.2,4 43.2,4 C43.2,4 43.1,4 43.1,4 Z" fill="#000000" fill-rule="nonzero"></path>
                    <path d="M44,4.7 C44,4.7 44,4.8 44.1,4.8 C44.1,4.7 44,4.7 44,4.7 Z" fill="#000000" fill-rule="nonzero"></path>
                    <path d="M44.2,5.1 C44.2,5.2 44.2,5.2 44.2,5.3 C44.2,5.2 44.2,5.2 44.2,5.1 Z" fill="#000000" fill-rule="nonzero"></path>
                    <path d="M44.2,5.5 C44.2,5.4 44.2,5.4 44.2,5.3 C44.2,5.5 44.2,5.7 44.2,5.9 L44.2,6 L44.2,5.9 C44.2,5.7 44.3,5.5 44.2,5.5 Z" fill="#000000" fill-rule="nonzero"></path>
                    <path d="M44.2,5 C44.2,5 44.2,5.1 44.2,5.1 C44.2,5.1 44.2,5 44.2,5 Z" fill="#000000" fill-rule="nonzero"></path>
                    <path d="M44,4.6 C43.9,4.5 43.8,4.3 43.7,4.2 C43.8,4.4 43.9,4.5 44,4.6 Z" fill="#000000" fill-rule="nonzero"></path>
                    <polygon fill="#E31837" fill-rule="nonzero" points="40.2 24.5 44.2 6"></polygon>
                    <path d="M43,4 C43.1,4 43.1,4 43,4 C43.1,4 43.1,4 43,4 Z" fill="#E31837" fill-rule="nonzero"></path>
                    <path d="M44.2,4.9 C44.2,4.9 44.2,5 44.2,4.9 C44.2,5 44.2,4.9 44.2,4.9 Z" fill="#E31837" fill-rule="nonzero"></path>
                    <path d="M43.5,4.1 C43.5,4.2 43.5,4.2 43.5,4.1 C43.5,4.2 43.5,4.2 43.5,4.1 Z" fill="#E31837" fill-rule="nonzero"></path>
                    <path d="M43.7,4.2 C43.7,4.3 43.7,4.3 43.7,4.2 C43.7,4.3 43.7,4.3 43.7,4.2 Z" fill="#E31837" fill-rule="nonzero"></path>
                    <path d="M44.2,5.3 C44.2,5.3 44.2,5.3 44.2,5.3 C44.2,5.2 44.2,5.2 44.2,5.1 C44.2,5.1 44.2,5.1 44.2,5.1 C44.2,5.1 44.2,5 44.2,5 C44.2,5 44.2,5 44.2,5 C44.2,5 44.2,4.9 44.2,4.9 C44.2,4.9 44.2,4.9 44.2,4.9 C44.2,4.9 44.2,4.8 44.1,4.8 C44.1,4.8 44.1,4.8 44.1,4.8 C44,4.7 43.9,4.5 43.8,4.4 C43.8,4.4 43.8,4.4 43.8,4.4 C43.8,4.4 43.7,4.3 43.7,4.3 C43.7,4.3 43.7,4.3 43.7,4.3 C43.7,4.3 43.6,4.3 43.6,4.2 C43.6,4.2 43.6,4.2 43.6,4.2 C43.6,4.2 43.5,4.2 43.5,4.2 C43.5,4.2 43.5,4.2 43.4,4.2 C43.4,4.2 43.3,4.2 43.3,4.2 C43.3,4.2 43.3,4.2 43.2,4.2 C43.2,4.2 43.1,4.2 43.1,4.2 C43.1,4.2 43.1,4.2 43,4.2 C42.9,4.2 42.9,4.2 42.8,4.2 L8,4.2 C6.9,4.2 5.9,5 5.6,6.1 L4.2,12.5 L40.3,24.8 L44.2,6.3 L44.2,6.2 C44.2,5.7 44.2,5.5 44.2,5.3 Z" fill="#000000" fill-rule="nonzero"></path>
                    <path d="M39.5,28.4 L39.5,28.4 C39.6,28.4 39.7,28.4 39.8,28.4 C40.5,28.4 41.1,27.9 41.2,27.2 L43.4,16.9 C43.5,16.2 43.2,15.5 42.5,15.2 L39.9,27.3 C39.9,27.8 39.7,28.1 39.5,28.4 Z"></path>
                    <path d="M4.7,7.3 C4,7.3 3.4,7.8 3.3,8.5 L1.1,18.8 C0.9,19.5 1.3,20.2 2,20.5 L4.7,7.3 C4.8,7.3 4.7,7.3 4.7,7.3 Z"></path>
                    <path d="M44.6,5.5 C44.6,5.5 44.6,5.5 44.6,5.5 C44.6,4.9 44.4,4.4 44.1,4.1 C43.7,3.7 43.3,3.5 42.7,3.5 L7.9,3.5 C6.7,3.5 5.5,4.5 5.2,5.7 L5,6.8 C4.9,6.8 4.9,6.8 4.8,6.8 C3.9,6.8 3.1,7.4 2.9,8.3 L0.7,18.6 C0.5,19.6 1.1,20.5 2,20.8 L0.6,27.2 C0.6,27.4 0.5,27.6 0.5,27.8 C0.5,28.2 0.6,28.7 0.9,29 C1.2,29.4 1.7,29.6 2.2,29.6 L2.2,29.6 L37,29.6 C37.7,29.6 38.5,29.3 39.1,28.7 L39.4,28.8 C39.5,28.8 39.7,28.8 39.8,28.8 C40.7,28.8 41.5,28.2 41.7,27.3 L43.9,17 C44,16.5 43.9,16 43.6,15.6 C43.4,15.2 43,15 42.6,14.8 L44.5,5.9 C44.6,5.7 44.6,5.6 44.6,5.5 Z M1.1,18.7 L3.3,8.4 C3.4,7.7 4,7.2 4.7,7.2 C4.7,7.2 4.8,7.2 4.8,7.2 L2,20.4 C1.4,20.2 1,19.5 1.1,18.7 Z M43.4,17 L41.2,27.3 C41.1,28 40.5,28.5 39.8,28.5 C39.7,28.5 39.6,28.5 39.5,28.5 L39.5,28.5 C39.7,28.2 39.9,27.9 39.9,27.6 L42.5,15.5 C43.2,15.6 43.6,16.3 43.4,17 Z M44.1,5.5 C44.1,5.5 44.1,5.6 44.1,5.8 L42.2,14.7 L42.1,15.1 L40.1,24.4 L4.2,12.2 L5.2,7.4 L5.3,7 L5.5,5.9 C5.7,4.9 6.8,4.1 7.8,4.1 L42.6,4.1 C43,4.1 43.4,4.3 43.7,4.5 C44,4.7 44.1,5.1 44.1,5.5 C44.1,5.5 44.1,5.5 44.1,5.5 L44.1,5.5 L44.1,5.5 Z" fill="#000000" fill-rule="nonzero"></path>
                    <path d="M42.3,15.2 L37.7,14.2 C36.9,14 36.1,14.5 36,15.3 L35.6,17.2 L31.2,16.1 L31.4,14.9 L32.6,15.2 C32.7,15.2 32.8,15.2 32.8,15.1 L33,14.2 C33,14.1 33,14 32.9,14 L30.3,13.4 C30.2,13.4 30.1,13.4 30.1,13.5 L29.9,14.4 C29.9,14.5 29.9,14.6 30,14.6 L30.6,14.7 L30.4,15.8 L29.7,15.6 C29.2,15.4 28.2,15.4 27.5,13 C27.3,12.3 27.1,11.7 27,11.1 L34.9,12.8 L34.4,15.4 L34.7,15.5 L35.9,9.8 L35.6,9.7 L35.3,11.1 L26.5,9.2 C26.5,9.1 26.4,9 26.4,9 C26.3,8.6 26.1,7.3 24.6,7 L24.6,7 L24.6,7 L24.6,7 L24.6,7 C23.1,6.7 22.4,7.7 22.1,8.1 C22.1,8.1 22.1,8.1 22,8.2 L13.2,6.3 L13.5,4.9 L13.2,4.8 L12,10.5 L12.3,10.6 L12.8,8 L20.7,9.7 C20.3,10.1 19.9,10.6 19.5,11.2 C17.9,13.1 17,12.7 16.5,12.7 L15.8,12.6 L16,11.5 L16.6,11.6 C16.7,11.6 16.8,11.6 16.8,11.5 L17,10.6 C17,10.5 17,10.4 16.9,10.4 L14.3,9.8 C14.2,9.8 14.1,9.8 14.1,9.9 L13.9,10.8 C13.9,10.9 13.9,11 14,11 L15.2,11.3 L15,12.5 L10.6,11.7 L11,9.8 C11.2,9 10.7,8.2 9.9,8.1 L5.3,7.1 C4.5,6.9 3.7,7.4 3.6,8.2 L1.4,18.5 C1.2,19.3 1.7,20.1 2.5,20.2 L7.1,21.2 C7.9,21.4 8.7,20.9 8.8,20.1 L8.8,20.1 L14.9,21.2 C15,21.5 15,21.7 15.1,21.8 C15.2,22.3 15.7,22.4 15.7,22.4 L20.6,23.4 L21.8,23.7 L26.7,24.7 C26.7,24.7 27.2,24.8 27.5,24.4 C27.6,24.3 27.7,24.1 27.9,23.9 L33.9,25.4 L33.9,25.4 C33.7,26.2 34.2,27 35,27.1 L39.6,28.1 C40.4,28.3 41.2,27.8 41.3,27 L43.5,16.7 C43.6,16.2 43.1,15.4 42.3,15.2 Z M8.7,19.6 L8.9,18.8 L14.4,20.3 C14.4,20.4 14.5,20.5 14.5,20.6 L8.7,19.6 Z M22.9,8.6 C23.1,8.3 23.1,8.3 23.1,8.3 C23.2,8.1 23.6,7.7 24.4,7.9 L24.4,7.9 C24.4,7.9 24.4,7.9 24.4,7.9 C25.2,8.1 25.3,8.6 25.4,8.8 C25.4,8.8 25.4,8.8 25.5,9.2 L22.9,8.6 Z M33.9,25 L28.2,23.6 C28.3,23.5 28.3,23.4 28.4,23.4 L34.1,24.3 L33.9,25 Z" fill="#FFFFFF" fill-rule="nonzero"></path>
                </g>
                <path d="M41.7,29.1 L41.5,29.1 L41.5,29 L42.1,29 L42.1,29.2 L41.9,29.2 L41.9,29.7 L41.7,29.7 L41.7,29.1 L41.7,29.1 Z M42.2,29 L42.5,29 L42.6,29.4 L42.6,29.4 L42.7,29 L43,29 L43,29.6 L42.8,29.6 L42.8,29.2 L42.8,29.2 L42.7,29.6 L42.5,29.6 L42.4,29.2 L42.4,29.2 L42.4,29.6 L42.2,29.6 L42.2,29 L42.2,29 Z" id="Shape" fill="#000000" fill-rule="nonzero"></path>
                <path d="M91,14.6 C90.9,14.6 90.8,14.6 90.8,14.6 C90.7,14.6 90.7,14.5 90.6,14.5 C90.5,14.4 90.5,14.4 90.5,14.3 C90.5,14.2 90.5,14.1 90.5,14.1 C90.5,14 90.5,13.9 90.5,13.9 C90.5,13.9 90.6,13.8 90.6,13.7 C90.7,13.6 90.7,13.6 90.8,13.6 C90.9,13.6 90.9,13.6 91,13.6 C91.1,13.6 91.2,13.6 91.2,13.6 C91.3,13.6 91.3,13.7 91.4,13.7 C91.5,13.8 91.5,13.8 91.5,13.9 C91.5,14 91.5,14.1 91.5,14.1 C91.5,14.2 91.5,14.3 91.5,14.3 C91.5,14.4 91.4,14.4 91.4,14.5 C91.3,14.6 91.3,14.6 91.2,14.6 C91.1,14.6 91,14.6 91,14.6 Z M91,14.5 C91.1,14.5 91.1,14.5 91.2,14.5 C91.3,14.5 91.3,14.4 91.3,14.4 C91.3,14.4 91.4,14.3 91.4,14.2 C91.4,14.1 91.4,14.1 91.4,14 C91.4,13.9 91.4,13.9 91.4,13.8 C91.4,13.7 91.3,13.7 91.3,13.6 C91.3,13.6 91.2,13.5 91.2,13.5 C91.1,13.5 91.1,13.5 91,13.5 C90.9,13.5 90.9,13.5 90.8,13.5 C90.7,13.5 90.7,13.6 90.7,13.6 C90.7,13.6 90.6,13.7 90.6,13.8 C90.6,13.9 90.6,13.9 90.6,14 C90.6,14.1 90.6,14.1 90.6,14.2 C90.6,14.3 90.7,14.3 90.7,14.4 C90.7,14.4 90.8,14.5 90.8,14.5 C90.8,14.5 90.9,14.5 91,14.5 Z M90.7,13.7 L91,13.7 C91.1,13.7 91.1,13.7 91.2,13.7 C91.2,13.7 91.3,13.8 91.3,13.8 C91.3,13.9 91.3,13.9 91.2,13.9 L91.2,13.9 C91.2,13.9 91.2,13.9 91.3,13.9 C91.3,13.9 91.3,13.9 91.3,14 C91.3,14 91.3,14.1 91.3,14.1 C91.3,14.1 91.3,14.2 91.3,14.2 L91.3,14.2 L91.1,14.2 C91.1,14.2 91.1,14.2 91.1,14.1 C91.1,14.1 91.1,14 91.1,14 C91.1,13.9 91.1,13.9 91,13.9 L90.9,13.9 L90.9,14.1 L90.7,14.1 L90.7,13.7 L90.7,13.7 Z M91,14 C91,14 91.1,14 91,14 C91.1,13.9 91.1,13.9 91,13.9 L90.9,13.9 L91,14 L91,14 Z" id="Shape" fill="#000000" fill-rule="nonzero"></path>
            </g>
        </g>
    </g>
</svg>