<?xml version="1.0" encoding="UTF-8"?>
<svg width="895px" height="170px" viewBox="0 0 895 170" version="1.1" xmlns="http://www.w3.org/2000/svg" xmlns:xlink="http://www.w3.org/1999/xlink">
    <!-- Generator: Sketch 47.1 (45422) - http://www.bohemiancoding.com/sketch -->
    <title>volunteer - headline</title>
    <desc>Created with Sketch.</desc>
    <defs></defs>
    <g id="Desktop" stroke="none" stroke-width="1" fill="none" fill-rule="evenodd">
        <g id="D-::-Volunteer" transform="translate(-294.000000, -234.000000)" fill="#FFFFFF">
            <g id="Hero" transform="translate(-1.000000, 0.000000)">
                <g id="volunteer---headline" transform="translate(295.000000, 233.000000)">
                    <polygon id="Fill-1" points="477.1748 139.3088 475.7608 137.8948 586.1758 27.4798 587.5898 28.8938"></polygon>
                    <polygon id="Fill-2" points="627.4818 60.824 627.4818 170.174 702.1808 170.174 702.1808 153.074 645.7818 153.074 645.7818 123.973 694.0808 123.973 694.0808 106.874 645.7818 106.874 645.7818 77.474 700.0808 77.474 700.0808 60.824"></polygon>
                    <polygon id="Fill-3" points="720.3294 60.824 720.3294 170.174 795.0294 170.174 795.0294 153.074 738.6294 153.074 738.6294 123.973 786.9294 123.973 786.9294 106.874 738.6294 106.874 738.6294 77.474 792.9294 77.474 792.9294 60.824"></polygon>
                    <g id="Group-19" transform="translate(0.000000, 0.174000)">
                        <path d="M831.4775,115.0996 L846.1775,115.0996 C849.9765,115.0996 853.1265,114.4516 855.6265,113.1506 C858.1255,111.8516 860.1265,110.2766 861.6265,108.4246 C863.1265,106.5766 864.1775,104.5766 864.7775,102.4246 C865.3765,100.2756 865.6775,98.2996 865.6775,96.4996 C865.6775,94.8006 865.4005,92.8766 864.8525,90.7246 C864.3015,88.5766 863.3005,86.5506 861.8525,84.6506 C860.4015,82.7516 858.4255,81.1506 855.9275,79.8496 C853.4265,78.5516 850.2275,77.9006 846.3275,77.9006 L831.4775,77.9006 L831.4775,115.0996 Z M813.1775,169.9996 L813.1775,60.6506 L844.0775,60.6506 C850.0775,60.6506 855.5525,61.4516 860.5015,63.0496 C865.4525,64.6506 869.6525,66.9506 873.1025,69.9506 C876.5525,72.9506 879.2265,76.6506 881.1265,81.0496 C883.0255,85.4516 883.9775,90.4016 883.9775,95.9006 C883.9775,98.9006 883.6775,101.9006 883.0775,104.9006 C882.4775,107.9006 881.5255,110.8016 880.2275,113.5996 C878.9265,116.4006 877.2275,118.9766 875.1265,121.3256 C873.0275,123.6756 870.5265,125.7016 867.6265,127.4006 C869.8265,130.9016 871.9775,134.3266 874.0775,137.6746 C876.1775,141.0266 878.3005,144.4016 880.4525,147.7996 C882.6015,151.2016 884.8265,154.7006 887.1265,158.2996 C889.4265,161.9006 891.9275,165.7996 894.6265,169.9996 L872.5775,169.9996 C868.0775,163.0016 863.8265,156.3756 859.8275,150.1246 C855.8265,143.8766 851.9755,137.9516 848.2775,132.3496 L846.7775,132.3496 L831.4775,132.3496 L831.4775,169.9996 L813.1775,169.9996 Z" id="Fill-4"></path>
                        <g id="Group-8" transform="translate(0.000000, 5.000000)">
                            <path d="M18.1499,0.7754 L47.3999,71.1254 C47.3999,71.2264 47.5989,71.9004 47.9999,73.1504 C48.3989,74.4024 48.6979,75.5764 48.8999,76.6754 C49.0989,75.5764 49.3999,74.4024 49.7999,73.1504 C50.1979,71.9004 50.4489,71.2264 50.5499,71.1254 L79.7999,0.7754 L97.9499,0.7754 C97.5489,1.6754 96.5999,3.9254 95.0999,7.5254 C93.5999,11.1254 91.7249,15.5504 89.4749,20.8004 C87.2249,26.0504 84.7239,31.9004 81.9749,38.3494 C79.2239,44.8004 76.3999,51.3514 73.4999,58.0004 C70.5989,64.6524 67.7749,71.2264 65.0249,77.7244 C62.2739,84.2264 59.7749,90.0994 57.5249,95.3494 C55.2749,100.5994 53.3739,105.0024 51.8249,108.5504 C50.2739,112.0994 49.2979,114.3264 48.8999,115.2244 C48.4989,114.3264 47.5499,112.0994 46.0499,108.5504 C44.5499,105.0024 42.6749,100.5994 40.4249,95.3494 C38.1749,90.0994 35.6739,84.2264 32.9249,77.7244 C30.1729,71.2264 27.3489,64.6524 24.4499,58.0004 C21.5479,51.3514 18.7239,44.8004 15.9749,38.3494 C13.2239,31.9004 10.7249,26.0504 8.4749,20.8004 C6.2249,15.5504 4.3499,11.1254 2.8499,7.5254 C1.3499,3.9254 0.3989,1.6754 -0.0001,0.7754 L18.1499,0.7754 Z" id="Fill-6"></path>
                        </g>
                        <path d="M118.8003,60.6758 C118.8003,65.9768 119.7753,70.9508 121.7253,75.5998 C123.6753,80.2498 126.3753,84.3008 129.8253,87.7498 C133.2753,91.2008 137.2733,93.9258 141.8253,95.9258 C146.3743,97.9278 151.2993,98.9258 156.6003,98.9258 C161.7003,98.9258 166.5233,97.9278 171.0753,95.9258 C175.6243,93.9258 179.5733,91.2008 182.9253,87.7498 C186.2743,84.3008 188.9253,80.2498 190.8753,75.5998 C192.8253,70.9508 193.8003,65.9768 193.8003,60.6758 C193.8003,55.3768 192.7993,50.4008 190.8003,45.7498 C188.7993,41.0998 186.0983,37.0278 182.7003,33.5258 C179.2993,30.0258 175.3243,27.2778 170.7753,25.2758 C166.2233,23.2758 161.3483,22.2758 156.1503,22.2758 C150.9493,22.2758 146.0743,23.2758 141.5253,25.2758 C136.9733,27.2778 133.0243,30.0258 129.6753,33.5258 C126.3233,37.0278 123.6753,41.0998 121.7253,45.7498 C119.7753,50.4008 118.8003,55.3768 118.8003,60.6758 M100.3503,60.6758 C100.3503,53.0758 101.8243,45.8768 104.7753,39.0758 C107.7233,32.2758 111.7243,26.3258 116.7753,21.2248 C121.8233,16.1248 127.7253,12.0758 134.4753,9.0758 C141.2253,6.0758 148.4483,4.5758 156.1503,4.5758 C163.7483,4.5758 170.9483,6.0758 177.7503,9.0758 C184.5493,12.0758 190.5003,16.1248 195.6003,21.2248 C200.7003,26.3258 204.7243,32.2758 207.6753,39.0758 C210.6233,45.8768 212.1003,53.0758 212.1003,60.6758 C212.1003,68.3768 210.6233,75.5998 207.6753,82.3498 C204.7243,89.0998 200.7003,95.0018 195.6003,100.0508 C190.5003,105.1018 184.5493,109.0758 177.7503,111.9748 C170.9483,114.8768 163.7483,116.3258 156.1503,116.3258 C148.4483,116.3258 141.2253,114.8768 134.4753,111.9748 C127.7253,109.0758 121.8233,105.1018 116.7753,100.0508 C111.7243,95.0018 107.7233,89.0998 104.7753,82.3498 C101.8243,75.5998 100.3503,68.3768 100.3503,60.6758" id="Fill-9"></path>
                        <polygon id="Fill-11" points="231.5981 115.125 231.5981 5.775 249.8981 5.775 249.8981 97.725 302.9981 97.725 302.9981 115.125"></polygon>
                        <path d="M359.3984,116.3262 C353.4974,116.3262 347.9724,115.3492 342.8234,113.4002 C337.6714,111.4512 333.1984,108.7262 329.3984,105.2242 C325.5964,101.7262 322.5964,97.5002 320.3984,92.5512 C318.1984,87.5992 317.0984,82.1252 317.0984,76.1252 L317.0984,5.7752 L335.3984,5.7752 L335.3984,75.6762 C335.3984,78.8772 336.0224,81.8772 337.2734,84.6762 C338.5224,87.4762 340.2214,89.9262 342.3744,92.0252 C344.5224,94.1252 347.0464,95.8012 349.9484,97.0512 C352.8474,98.3032 355.9984,98.9262 359.3984,98.9262 C362.7964,98.9262 365.9724,98.3032 368.9234,97.0512 C371.8724,95.8012 374.4484,94.1252 376.6484,92.0252 C378.8464,89.9262 380.5724,87.4762 381.8234,84.6762 C383.0734,81.8772 383.6984,78.8772 383.6984,75.6762 L383.6984,5.7752 L401.9994,5.7752 L401.9994,76.1252 C401.9994,82.1252 400.8974,87.5992 398.6984,92.5512 C396.4984,97.5002 393.4714,101.7262 389.6244,105.2242 C385.7724,108.7262 381.2474,111.4512 376.0484,113.4002 C370.8474,115.3492 365.2974,116.3262 359.3984,116.3262" id="Fill-13"></path>
                        <path d="M524.2471,5.7754 L524.2471,90.4284 L509.6571,105.5604 C509.6571,105.5604 503.3711,99.5994 499.1221,95.5504 C494.8701,91.5004 490.5461,87.4004 486.1461,83.2504 C481.7451,79.1014 477.4461,75.0254 473.2471,71.0254 C469.0471,67.0274 465.2221,63.3514 461.7711,60.0004 C458.3211,56.6504 455.4201,53.8004 453.0711,51.4514 C450.7211,49.1014 449.1951,47.4744 448.4971,46.5764 C448.3951,46.3774 447.9951,45.8514 447.2971,45.0004 C446.5961,44.1524 445.9961,43.3774 445.4971,42.6754 L445.9461,47.4744 L445.9461,115.1254 L427.6461,115.1254 L427.6461,0.8264 C428.3451,1.7244 429.8961,3.3514 432.2971,5.7014 C434.6961,8.0504 437.6451,10.8754 441.1461,14.1754 C444.6451,17.4744 448.5201,21.0764 452.7711,24.9744 C457.0201,28.8754 461.3451,32.8494 465.7471,36.9004 C470.1451,40.9514 474.4461,44.9514 478.6461,48.9004 C482.8471,52.8514 486.6951,56.4514 490.1961,59.7014 C493.6961,62.9514 496.6211,65.7264 498.9721,68.0254 C501.3201,70.3264 502.8461,71.9254 503.5471,72.8264 L506.3961,77.0254 L505.9461,71.9254 L505.9461,5.7754 L524.2471,5.7754 Z" id="Fill-15"></path>
                        <polygon id="Fill-17" points="608.583 60.4248 608.583 77.9748 581.583 77.9748 581.583 169.7748 563.133 169.7748 563.133 77.9748 536.845 77.9748 554.395 60.4248"></polygon>
                    </g>
                </g>
            </g>
        </g>
    </g>
</svg>